<?xml version="1.0" encoding="UTF-8"?>
<svg id="Layer_1" data-name="Layer 1" xmlns="http://www.w3.org/2000/svg" viewBox="0 0 503.56 335.87">
  <defs>
    <style>
      .cls-1 {
        stroke-linecap: square;
      }

      .cls-1, .cls-2, .cls-3 {
        fill: none;
      }

      .cls-1, .cls-4 {
        stroke: #010101;
        stroke-width: .8px;
      }

      .cls-2 {
        stroke: #000;
        stroke-width: .25px;
      }

      .cls-5 {
        fill: #fff;
      }

      .cls-4, .cls-6 {
        stroke-linejoin: round;
      }

      .cls-4, .cls-7 {
        fill: #010101;
      }

      .cls-8, .cls-6 {
        fill: #f68d64;
      }

      .cls-6 {
        stroke: #f68d64;
      }
    </style>
  </defs>
  <g id="patch_2" data-name="patch 2">
    <path class="cls-5" d="M33.4,306.28h417.48V15.12H33.4v291.16Z"/>
  </g>
  <g id="PathCollection_1" data-name="PathCollection 1">
    <rect class="cls-3" x="33.4" y="15.12" width="417.48" height="291.16"/>
    <g>
      <path id="mca657580c7" class="cls-6" d="M253.64,32.82c1.19,0,2.32-.47,3.16-1.31.84-.84,1.31-1.98,1.31-3.16s-.47-2.32-1.31-3.16c-.84-.84-1.98-1.31-3.16-1.31s-2.32.47-3.16,1.31c-.84.84-1.31,1.98-1.31,3.16s.47,2.32,1.31,3.16c.84.84,1.98,1.31,3.16,1.31Z"/>
      <path id="mca657580c7-2" data-name="mca657580c7" class="cls-6" d="M411.7,144.92c1.19,0,2.32-.47,3.16-1.31.84-.84,1.31-1.98,1.31-3.16s-.47-2.32-1.31-3.16c-.84-.84-1.98-1.31-3.16-1.31s-2.32.47-3.16,1.31c-.84.84-1.31,1.98-1.31,3.16s.47,2.32,1.31,3.16c.84.84,1.98,1.31,3.16,1.31Z"/>
      <path id="mca657580c7-3" data-name="mca657580c7" class="cls-6" d="M403.4,239.73c1.19,0,2.32-.47,3.16-1.31.84-.84,1.31-1.98,1.31-3.16s-.47-2.32-1.31-3.16c-.84-.84-1.98-1.31-3.16-1.31s-2.32.47-3.16,1.31c-.84.84-1.31,1.98-1.31,3.16s.47,2.32,1.31,3.16c.84.84,1.98,1.31,3.16,1.31Z"/>
      <path id="mca657580c7-4" data-name="mca657580c7" class="cls-6" d="M404.86,276.27c1.19,0,2.32-.47,3.16-1.31.84-.84,1.31-1.98,1.31-3.16s-.47-2.32-1.31-3.16c-.84-.84-1.98-1.31-3.16-1.31s-2.32.47-3.16,1.31c-.84.84-1.31,1.98-1.31,3.16s.47,2.32,1.31,3.16c.84.84,1.98,1.31,3.16,1.31Z"/>
      <path id="mca657580c7-5" data-name="mca657580c7" class="cls-6" d="M426.71,277.7c1.19,0,2.32-.47,3.16-1.31.84-.84,1.31-1.98,1.31-3.16s-.47-2.32-1.31-3.16c-.84-.84-1.98-1.31-3.16-1.31s-2.32.47-3.16,1.31c-.84.84-1.31,1.98-1.31,3.16s.47,2.32,1.31,3.16c.84.84,1.98,1.31,3.16,1.31Z"/>
      <path id="mca657580c7-6" data-name="mca657580c7" class="cls-6" d="M424.4,278.07c1.19,0,2.32-.47,3.16-1.31.84-.84,1.31-1.98,1.31-3.16s-.47-2.32-1.31-3.16c-.84-.84-1.98-1.31-3.16-1.31s-2.32.47-3.16,1.31c-.84.84-1.31,1.98-1.31,3.16s.47,2.32,1.31,3.16c.84.84,1.98,1.31,3.16,1.31Z"/>
      <path id="mca657580c7-7" data-name="mca657580c7" class="cls-6" d="M52.38,280.11c1.19,0,2.32-.47,3.16-1.31.84-.84,1.31-1.98,1.31-3.16s-.47-2.32-1.31-3.16c-.84-.84-1.98-1.31-3.16-1.31s-2.32.47-3.16,1.31c-.84.84-1.31,1.98-1.31,3.16s.47,2.32,1.31,3.16c.84.84,1.98,1.31,3.16,1.31Z"/>
      <path id="mca657580c7-8" data-name="mca657580c7" class="cls-6" d="M418.63,284.94c1.19,0,2.32-.47,3.16-1.31.84-.84,1.31-1.98,1.31-3.16s-.47-2.32-1.31-3.16c-.84-.84-1.98-1.31-3.16-1.31s-2.32.47-3.16,1.31c-.84.84-1.31,1.98-1.31,3.16s.47,2.32,1.31,3.16c.84.84,1.98,1.31,3.16,1.31Z"/>
      <path id="mca657580c7-9" data-name="mca657580c7" class="cls-6" d="M431.91,291.94c1.19,0,2.32-.47,3.16-1.31.84-.84,1.31-1.98,1.31-3.16s-.47-2.32-1.31-3.16c-.84-.84-1.98-1.31-3.16-1.31s-2.32.47-3.16,1.31c-.84.84-1.31,1.98-1.31,3.16s.47,2.32,1.31,3.16c.84.84,1.98,1.31,3.16,1.31Z"/>
      <path id="mca657580c7-10" data-name="mca657580c7" class="cls-6" d="M398.58,297.52c1.19,0,2.32-.47,3.16-1.31.84-.84,1.31-1.98,1.31-3.16s-.47-2.32-1.31-3.16c-.84-.84-1.98-1.31-3.16-1.31s-2.32.47-3.16,1.31c-.84.84-1.31,1.98-1.31,3.16s.47,2.32,1.31,3.16c.84.84,1.98,1.31,3.16,1.31Z"/>
    </g>
  </g>
  <g id="matplotlib.axis_1" data-name="matplotlib.axis 1">
    <g id="xtick_1" data-name="xtick 1">
      <g id="line2d_1" data-name="line2d 1">
        <path id="m5fa650921a" class="cls-4" d="M432.73,306.28v3.5"/>
      </g>
      <g id="text_1" data-name="text 1">
        <g>
          <path id="DejaVuSans-30" class="cls-7" d="M423.64,314.24c-.51,0-.89.25-1.15.75-.26.5-.38,1.25-.38,2.25s.13,1.75.38,2.25c.26.5.64.75,1.15.75s.89-.25,1.15-.75c.26-.5.38-1.25.38-2.25s-.13-1.75-.38-2.25c-.26-.5-.64-.75-1.15-.75ZM423.64,313.45c.82,0,1.44.32,1.87.97.43.65.65,1.58.65,2.81s-.22,2.16-.65,2.81c-.43.65-1.06.97-1.87.97s-1.44-.32-1.87-.97c-.43-.65-.65-1.58-.65-2.81s.22-2.17.65-2.81c.43-.65,1.06-.97,1.87-.97Z"/>
          <path id="DejaVuSans-2e" class="cls-7" d="M427.9,319.64h1.03v1.24h-1.03v-1.24Z"/>
          <path id="DejaVuSans-30-2" data-name="DejaVuSans-30" class="cls-7" d="M433.18,314.24c-.51,0-.89.25-1.15.75-.26.5-.38,1.25-.38,2.25s.13,1.75.38,2.25c.26.5.64.75,1.15.75s.89-.25,1.15-.75c.26-.5.38-1.25.38-2.25s-.13-1.75-.38-2.25c-.26-.5-.64-.75-1.15-.75ZM433.18,313.45c.82,0,1.44.32,1.87.97.43.65.65,1.58.65,2.81s-.22,2.16-.65,2.81c-.43.65-1.06.97-1.87.97s-1.44-.32-1.87-.97c-.43-.65-.65-1.58-.65-2.81s.22-2.17.65-2.81c.43-.65,1.06-.97,1.87-.97Z"/>
          <path id="DejaVuSans-4d" class="cls-7" d="M437.35,313.59h1.47l1.86,4.96,1.87-4.96h1.47v7.29h-.96v-6.4l-1.88,5h-.99l-1.88-5v6.4h-.96v-7.29Z"/>
        </g>
      </g>
    </g>
    <g id="xtick_2" data-name="xtick 2">
      <g id="line2d_2" data-name="line2d 2">
        <path id="m5fa650921a-2" data-name="m5fa650921a" class="cls-4" d="M376.31,306.28v3.5"/>
      </g>
      <g id="text_2" data-name="text 2">
        <g>
          <path id="DejaVuSans-35" class="cls-7" d="M365.12,313.59h3.87v.83h-2.97v1.79c.14-.05.29-.09.43-.11.14-.02.29-.04.43-.04.81,0,1.46.22,1.93.67.48.45.71,1.05.71,1.81s-.24,1.39-.73,1.83c-.49.43-1.18.65-2.07.65-.31,0-.62-.03-.94-.08-.32-.05-.64-.13-.98-.23v-.99c.29.16.6.28.91.36s.64.12.99.12c.56,0,1.01-.15,1.34-.44.33-.3.49-.7.49-1.21s-.16-.91-.49-1.2c-.33-.3-.77-.45-1.34-.45-.26,0-.53.03-.79.09-.26.06-.53.15-.8.27v-3.66Z"/>
          <path id="DejaVuSans-2e-2" data-name="DejaVuSans-2e" class="cls-7" d="M371.47,319.64h1.03v1.24h-1.03v-1.24Z"/>
          <path id="DejaVuSans-30-3" data-name="DejaVuSans-30" class="cls-7" d="M376.76,314.24c-.51,0-.89.25-1.15.75-.26.5-.38,1.25-.38,2.25s.13,1.75.38,2.25c.26.5.64.75,1.15.75s.89-.25,1.15-.75c.26-.5.38-1.25.38-2.25s-.13-1.75-.38-2.25c-.26-.5-.64-.75-1.15-.75ZM376.76,313.45c.82,0,1.44.32,1.87.97.43.65.65,1.58.65,2.81s-.22,2.16-.65,2.81c-.43.65-1.06.97-1.87.97s-1.44-.32-1.87-.97c-.43-.65-.65-1.58-.65-2.81s.22-2.17.65-2.81c.43-.65,1.06-.97,1.87-.97Z"/>
          <path id="DejaVuSans-4d-2" data-name="DejaVuSans-4d" class="cls-7" d="M380.93,313.59h1.47l1.86,4.96,1.87-4.96h1.47v7.29h-.96v-6.4l-1.88,5h-.99l-1.88-5v6.4h-.96v-7.29Z"/>
        </g>
      </g>
    </g>
    <g id="xtick_3" data-name="xtick 3">
      <g id="line2d_3" data-name="line2d 3">
        <path id="m5fa650921a-3" data-name="m5fa650921a" class="cls-4" d="M319.89,306.28v3.5"/>
      </g>
      <g id="text_3" data-name="text 3">
        <g>
          <path id="DejaVuSans-31" class="cls-7" d="M305.68,320.05h1.61v-5.56l-1.75.35v-.9l1.74-.35h.99v6.46h1.61v.83h-4.2v-.83Z"/>
          <path id="DejaVuSans-30-4" data-name="DejaVuSans-30" class="cls-7" d="M313.98,314.24c-.51,0-.89.25-1.15.75-.26.5-.38,1.25-.38,2.25s.13,1.75.38,2.25c.26.5.64.75,1.15.75s.89-.25,1.15-.75c.26-.5.38-1.25.38-2.25s-.13-1.75-.38-2.25c-.26-.5-.64-.75-1.15-.75ZM313.98,313.45c.82,0,1.44.32,1.87.97.43.65.65,1.58.65,2.81s-.22,2.16-.65,2.81c-.43.65-1.06.97-1.87.97s-1.44-.32-1.87-.97c-.43-.65-.65-1.58-.65-2.81s.22-2.17.65-2.81c.43-.65,1.06-.97,1.87-.97Z"/>
          <path id="DejaVuSans-2e-3" data-name="DejaVuSans-2e" class="cls-7" d="M318.24,319.64h1.03v1.24h-1.03v-1.24Z"/>
          <path id="DejaVuSans-30-5" data-name="DejaVuSans-30" class="cls-7" d="M323.52,314.24c-.51,0-.89.25-1.15.75-.26.5-.38,1.25-.38,2.25s.13,1.75.38,2.25c.26.5.64.75,1.15.75s.89-.25,1.15-.75c.26-.5.38-1.25.38-2.25s-.13-1.75-.38-2.25c-.26-.5-.64-.75-1.15-.75ZM323.52,313.45c.82,0,1.44.32,1.87.97.43.65.65,1.58.65,2.81s-.22,2.16-.65,2.81c-.43.65-1.06.97-1.87.97s-1.44-.32-1.87-.97c-.43-.65-.65-1.58-.65-2.81s.22-2.17.65-2.81c.43-.65,1.06-.97,1.87-.97Z"/>
          <path id="DejaVuSans-4d-3" data-name="DejaVuSans-4d" class="cls-7" d="M327.69,313.59h1.47l1.86,4.96,1.87-4.96h1.47v7.29h-.96v-6.4l-1.88,5h-.99l-1.88-5v6.4h-.96v-7.29Z"/>
        </g>
      </g>
    </g>
    <g id="xtick_4" data-name="xtick 4">
      <g id="line2d_4" data-name="line2d 4">
        <path id="m5fa650921a-4" data-name="m5fa650921a" class="cls-4" d="M263.47,306.28v3.5"/>
      </g>
      <g id="text_4" data-name="text 4">
        <g>
          <path id="DejaVuSans-31-2" data-name="DejaVuSans-31" class="cls-7" d="M249.26,320.05h1.61v-5.56l-1.75.35v-.9l1.74-.35h.99v6.46h1.61v.83h-4.2v-.83Z"/>
          <path id="DejaVuSans-35-2" data-name="DejaVuSans-35" class="cls-7" d="M255.46,313.59h3.87v.83h-2.97v1.79c.14-.05.29-.09.43-.11.14-.02.29-.04.43-.04.81,0,1.46.22,1.93.67.48.45.71,1.05.71,1.81s-.24,1.39-.73,1.83c-.49.43-1.18.65-2.07.65-.31,0-.62-.03-.94-.08-.32-.05-.64-.13-.98-.23v-.99c.29.16.6.28.91.36s.64.12.99.12c.56,0,1.01-.15,1.34-.44.33-.3.49-.7.49-1.21s-.16-.91-.49-1.2c-.33-.3-.77-.45-1.34-.45-.26,0-.53.03-.79.09-.26.06-.53.15-.8.27v-3.66Z"/>
          <path id="DejaVuSans-2e-4" data-name="DejaVuSans-2e" class="cls-7" d="M261.82,319.64h1.03v1.24h-1.03v-1.24Z"/>
          <path id="DejaVuSans-30-6" data-name="DejaVuSans-30" class="cls-7" d="M267.1,314.24c-.51,0-.89.25-1.15.75-.26.5-.38,1.25-.38,2.25s.13,1.75.38,2.25c.26.5.64.75,1.15.75s.89-.25,1.15-.75c.26-.5.38-1.25.38-2.25s-.13-1.75-.38-2.25c-.26-.5-.64-.75-1.15-.75ZM267.1,313.45c.82,0,1.44.32,1.87.97.43.65.65,1.58.65,2.81s-.22,2.16-.65,2.81c-.43.65-1.06.97-1.87.97s-1.44-.32-1.87-.97c-.43-.65-.65-1.58-.65-2.81s.22-2.17.65-2.81c.43-.65,1.06-.97,1.87-.97Z"/>
          <path id="DejaVuSans-4d-4" data-name="DejaVuSans-4d" class="cls-7" d="M271.27,313.59h1.47l1.86,4.96,1.87-4.96h1.47v7.29h-.96v-6.4l-1.88,5h-.99l-1.88-5v6.4h-.96v-7.29Z"/>
        </g>
      </g>
    </g>
    <g id="xtick_5" data-name="xtick 5">
      <g id="line2d_5" data-name="line2d 5">
        <path id="m5fa650921a-5" data-name="m5fa650921a" class="cls-4" d="M207.05,306.28v3.5"/>
      </g>
      <g id="text_5" data-name="text 5">
        <g>
          <path id="DejaVuSans-32" class="cls-7" d="M193.52,320.05h3.44v.83h-4.63v-.83c.37-.39.88-.91,1.53-1.56.65-.65,1.05-1.07,1.22-1.26.32-.35.54-.65.66-.9.13-.25.19-.49.19-.73,0-.39-.14-.7-.41-.95-.27-.24-.63-.37-1.06-.37-.31,0-.64.05-.98.16-.34.11-.71.27-1.1.49v-1c.4-.16.77-.28,1.11-.36.35-.08.66-.12.95-.12.76,0,1.36.19,1.81.57.45.38.67.88.67,1.51,0,.3-.06.58-.17.85-.11.27-.32.58-.61.95-.08.09-.34.37-.78.82-.44.45-1.05,1.08-1.85,1.89Z"/>
          <path id="DejaVuSans-30-7" data-name="DejaVuSans-30" class="cls-7" d="M201.14,314.24c-.51,0-.89.25-1.15.75-.26.5-.38,1.25-.38,2.25s.13,1.75.38,2.25c.26.5.64.75,1.15.75s.89-.25,1.15-.75c.26-.5.38-1.25.38-2.25s-.13-1.75-.38-2.25c-.26-.5-.64-.75-1.15-.75ZM201.14,313.45c.82,0,1.44.32,1.87.97.43.65.65,1.58.65,2.81s-.22,2.16-.65,2.81c-.43.65-1.06.97-1.87.97s-1.44-.32-1.87-.97c-.43-.65-.65-1.58-.65-2.81s.22-2.17.65-2.81c.43-.65,1.06-.97,1.87-.97Z"/>
          <path id="DejaVuSans-2e-5" data-name="DejaVuSans-2e" class="cls-7" d="M205.39,319.64h1.03v1.24h-1.03v-1.24Z"/>
          <path id="DejaVuSans-30-8" data-name="DejaVuSans-30" class="cls-7" d="M210.68,314.24c-.51,0-.89.25-1.15.75-.26.5-.38,1.25-.38,2.25s.13,1.75.38,2.25c.26.5.64.75,1.15.75s.89-.25,1.15-.75c.26-.5.38-1.25.38-2.25s-.13-1.75-.38-2.25c-.26-.5-.64-.75-1.15-.75ZM210.68,313.45c.82,0,1.44.32,1.87.97.43.65.65,1.58.65,2.81s-.22,2.16-.65,2.81c-.43.65-1.06.97-1.87.97s-1.44-.32-1.87-.97c-.43-.65-.65-1.58-.65-2.81s.22-2.17.65-2.81c.43-.65,1.06-.97,1.87-.97Z"/>
          <path id="DejaVuSans-4d-5" data-name="DejaVuSans-4d" class="cls-7" d="M214.85,313.59h1.47l1.86,4.96,1.87-4.96h1.47v7.29h-.96v-6.4l-1.88,5h-.99l-1.88-5v6.4h-.96v-7.29Z"/>
        </g>
      </g>
    </g>
    <g id="xtick_6" data-name="xtick 6">
      <g id="line2d_6" data-name="line2d 6">
        <path id="m5fa650921a-6" data-name="m5fa650921a" class="cls-4" d="M150.63,306.28v3.5"/>
      </g>
      <g id="text_6" data-name="text 6">
        <g>
          <path id="DejaVuSans-32-2" data-name="DejaVuSans-32" class="cls-7" d="M137.1,320.05h3.44v.83h-4.63v-.83c.37-.39.88-.91,1.53-1.56.65-.65,1.05-1.07,1.22-1.26.32-.35.54-.65.66-.9.13-.25.19-.49.19-.73,0-.39-.14-.7-.41-.95-.27-.24-.63-.37-1.06-.37-.31,0-.64.05-.98.16-.34.11-.71.27-1.1.49v-1c.4-.16.77-.28,1.11-.36.35-.08.66-.12.95-.12.76,0,1.36.19,1.81.57.45.38.67.88.67,1.51,0,.3-.06.58-.17.85-.11.27-.32.58-.61.95-.08.09-.34.37-.78.82-.44.45-1.05,1.08-1.85,1.89Z"/>
          <path id="DejaVuSans-35-3" data-name="DejaVuSans-35" class="cls-7" d="M142.62,313.59h3.87v.83h-2.97v1.79c.14-.05.29-.09.43-.11.14-.02.29-.04.43-.04.81,0,1.46.22,1.93.67.48.45.71,1.05.71,1.81s-.24,1.39-.73,1.83c-.49.43-1.18.65-2.07.65-.31,0-.62-.03-.94-.08-.32-.05-.64-.13-.98-.23v-.99c.29.16.6.28.91.36s.64.12.99.12c.56,0,1.01-.15,1.34-.44.33-.3.49-.7.49-1.21s-.16-.91-.49-1.2c-.33-.3-.77-.45-1.34-.45-.26,0-.53.03-.79.09-.26.06-.53.15-.8.27v-3.66Z"/>
          <path id="DejaVuSans-2e-6" data-name="DejaVuSans-2e" class="cls-7" d="M148.97,319.64h1.03v1.24h-1.03v-1.24Z"/>
          <path id="DejaVuSans-30-9" data-name="DejaVuSans-30" class="cls-7" d="M154.26,314.24c-.51,0-.89.25-1.15.75-.26.5-.38,1.25-.38,2.25s.13,1.75.38,2.25c.26.5.64.75,1.15.75s.89-.25,1.15-.75c.26-.5.38-1.25.38-2.25s-.13-1.75-.38-2.25c-.26-.5-.64-.75-1.15-.75ZM154.26,313.45c.82,0,1.44.32,1.87.97.43.65.65,1.58.65,2.81s-.22,2.16-.65,2.81c-.43.65-1.06.97-1.87.97s-1.44-.32-1.87-.97c-.43-.65-.65-1.58-.65-2.81s.22-2.17.65-2.81c.43-.65,1.06-.97,1.87-.97Z"/>
          <path id="DejaVuSans-4d-6" data-name="DejaVuSans-4d" class="cls-7" d="M158.43,313.59h1.47l1.86,4.96,1.87-4.96h1.47v7.29h-.96v-6.4l-1.88,5h-.99l-1.88-5v6.4h-.96v-7.29Z"/>
        </g>
      </g>
    </g>
    <g id="xtick_7" data-name="xtick 7">
      <g id="line2d_7" data-name="line2d 7">
        <path id="m5fa650921a-7" data-name="m5fa650921a" class="cls-4" d="M94.21,306.28v3.5"/>
      </g>
      <g id="text_7" data-name="text 7">
        <g>
          <path id="DejaVuSans-33" class="cls-7" d="M82.82,316.95c.47.1.84.31,1.1.63.27.32.4.71.4,1.18,0,.72-.25,1.28-.74,1.67-.49.39-1.2.59-2.11.59-.31,0-.62-.03-.94-.09-.32-.06-.66-.15-1-.27v-.95c.27.16.57.28.9.36.33.08.67.12,1.02.12.62,0,1.09-.12,1.41-.37s.49-.6.49-1.06c0-.43-.15-.77-.45-1.01-.3-.24-.72-.36-1.26-.36h-.85v-.81h.89c.48,0,.86-.1,1.11-.29s.39-.47.39-.84-.13-.66-.4-.86c-.26-.2-.64-.3-1.14-.3-.27,0-.56.03-.87.09-.31.06-.65.15-1.02.27v-.88c.38-.1.73-.18,1.05-.23s.64-.08.93-.08c.75,0,1.34.17,1.78.51.44.34.65.8.65,1.38,0,.4-.12.75-.35,1.02s-.56.47-.99.58Z"/>
          <path id="DejaVuSans-30-10" data-name="DejaVuSans-30" class="cls-7" d="M88.3,314.24c-.51,0-.89.25-1.15.75-.26.5-.38,1.25-.38,2.25s.13,1.75.38,2.25c.26.5.64.75,1.15.75s.89-.25,1.15-.75c.26-.5.38-1.25.38-2.25s-.13-1.75-.38-2.25c-.26-.5-.64-.75-1.15-.75ZM88.3,313.45c.82,0,1.44.32,1.87.97.43.65.65,1.58.65,2.81s-.22,2.16-.65,2.81c-.43.65-1.06.97-1.87.97s-1.44-.32-1.87-.97c-.43-.65-.65-1.58-.65-2.81s.22-2.17.65-2.81c.43-.65,1.06-.97,1.87-.97Z"/>
          <path id="DejaVuSans-2e-7" data-name="DejaVuSans-2e" class="cls-7" d="M92.55,319.64h1.03v1.24h-1.03v-1.24Z"/>
          <path id="DejaVuSans-30-11" data-name="DejaVuSans-30" class="cls-7" d="M97.84,314.24c-.51,0-.89.25-1.15.75-.26.5-.38,1.25-.38,2.25s.13,1.75.38,2.25c.26.5.64.75,1.15.75s.89-.25,1.15-.75c.26-.5.38-1.25.38-2.25s-.13-1.75-.38-2.25c-.26-.5-.64-.75-1.15-.75ZM97.84,313.45c.82,0,1.44.32,1.87.97.43.65.65,1.58.65,2.81s-.22,2.16-.65,2.81c-.43.65-1.06.97-1.87.97s-1.44-.32-1.87-.97c-.43-.65-.65-1.58-.65-2.81s.22-2.17.65-2.81c.43-.65,1.06-.97,1.87-.97Z"/>
          <path id="DejaVuSans-4d-7" data-name="DejaVuSans-4d" class="cls-7" d="M102.01,313.59h1.47l1.86,4.96,1.87-4.96h1.47v7.29h-.96v-6.4l-1.88,5h-.99l-1.88-5v6.4h-.96v-7.29Z"/>
        </g>
      </g>
    </g>
    <g id="xtick_8" data-name="xtick 8">
      <g id="line2d_8" data-name="line2d 8">
        <path id="m5fa650921a-8" data-name="m5fa650921a" class="cls-4" d="M37.79,306.28v3.5"/>
      </g>
      <g id="text_8" data-name="text 8">
        <g>
          <path id="DejaVuSans-33-2" data-name="DejaVuSans-33" class="cls-7" d="M26.4,316.95c.47.1.84.31,1.1.63.27.32.4.71.4,1.18,0,.72-.25,1.28-.74,1.67-.49.39-1.2.59-2.11.59-.31,0-.62-.03-.94-.09-.32-.06-.66-.15-1-.27v-.95c.27.16.57.28.9.36.33.08.67.12,1.02.12.62,0,1.09-.12,1.41-.37s.49-.6.49-1.06c0-.43-.15-.77-.45-1.01-.3-.24-.72-.36-1.26-.36h-.85v-.81h.89c.48,0,.86-.1,1.11-.29s.39-.47.39-.84-.13-.66-.4-.86c-.26-.2-.64-.3-1.14-.3-.27,0-.56.03-.87.09-.31.06-.65.15-1.02.27v-.88c.38-.1.73-.18,1.05-.23s.64-.08.93-.08c.75,0,1.34.17,1.78.51.44.34.65.8.65,1.38,0,.4-.12.75-.35,1.02s-.56.47-.99.58Z"/>
          <path id="DejaVuSans-35-4" data-name="DejaVuSans-35" class="cls-7" d="M29.78,313.59h3.87v.83h-2.97v1.79c.14-.05.29-.09.43-.11.14-.02.29-.04.43-.04.81,0,1.46.22,1.93.67.48.45.71,1.05.71,1.81s-.24,1.39-.73,1.83c-.49.43-1.18.65-2.07.65-.31,0-.62-.03-.94-.08-.32-.05-.64-.13-.98-.23v-.99c.29.16.6.28.91.36s.64.12.99.12c.56,0,1.01-.15,1.34-.44.33-.3.49-.7.49-1.21s-.16-.91-.49-1.2c-.33-.3-.77-.45-1.34-.45-.26,0-.53.03-.79.09-.26.06-.53.15-.8.27v-3.66Z"/>
          <path id="DejaVuSans-2e-8" data-name="DejaVuSans-2e" class="cls-7" d="M36.13,319.64h1.03v1.24h-1.03v-1.24Z"/>
          <path id="DejaVuSans-30-12" data-name="DejaVuSans-30" class="cls-7" d="M41.42,314.24c-.51,0-.89.25-1.15.75-.26.5-.38,1.25-.38,2.25s.13,1.75.38,2.25c.26.5.64.75,1.15.75s.89-.25,1.15-.75c.26-.5.38-1.25.38-2.25s-.13-1.75-.38-2.25c-.26-.5-.64-.75-1.15-.75ZM41.42,313.45c.82,0,1.44.32,1.87.97.43.65.65,1.58.65,2.81s-.22,2.16-.65,2.81c-.43.65-1.06.97-1.87.97s-1.44-.32-1.87-.97c-.43-.65-.65-1.58-.65-2.81s.22-2.17.65-2.81c.43-.65,1.06-.97,1.87-.97Z"/>
          <path id="DejaVuSans-4d-8" data-name="DejaVuSans-4d" class="cls-7" d="M45.59,313.59h1.47l1.86,4.96,1.87-4.96h1.47v7.29h-.96v-6.4l-1.88,5h-.99l-1.88-5v6.4h-.96v-7.29Z"/>
        </g>
      </g>
    </g>
    <g id="text_9" data-name="text 9">
      <g>
        <path id="DejaVuSans-54" class="cls-7" d="M196.18,327.26h6.17v.83h-2.59v6.46h-.99v-6.46h-2.59v-.83Z"/>
        <path id="DejaVuSans-6f" class="cls-7" d="M203.68,329.72c-.48,0-.86.19-1.14.56s-.42.89-.42,1.55.14,1.17.42,1.55c.28.38.66.56,1.15.56s.86-.19,1.14-.57c.28-.38.42-.89.42-1.54s-.14-1.16-.42-1.54c-.28-.38-.66-.57-1.14-.57ZM203.68,328.95c.78,0,1.39.25,1.84.76.45.51.67,1.21.67,2.11s-.22,1.6-.67,2.11c-.45.51-1.06.76-1.84.76s-1.4-.25-1.84-.76c-.44-.51-.67-1.21-.67-2.11s.22-1.6.67-2.11c.44-.51,1.06-.76,1.84-.76Z"/>
        <path id="DejaVuSans-74" class="cls-7" d="M208.57,327.53v1.55h1.85v.7h-1.85v2.97c0,.45.06.73.18.86s.37.19.75.19h.92v.75h-.92c-.69,0-1.17-.13-1.44-.39-.26-.26-.4-.73-.4-1.41v-2.97h-.66v-.7h.66v-1.55h.9Z"/>
        <path id="DejaVuSans-61" class="cls-7" d="M214.09,331.81c-.73,0-1.23.08-1.51.25s-.42.45-.42.85c0,.32.11.57.32.76.21.19.5.28.86.28.5,0,.9-.18,1.2-.53s.45-.82.45-1.41v-.2h-.89ZM215.88,331.43v3.12h-.9v-.83c-.21.33-.46.58-.77.73-.31.16-.68.24-1.12.24-.56,0-1-.16-1.34-.47-.33-.31-.5-.74-.5-1.26,0-.61.21-1.08.62-1.39.41-.31,1.03-.47,1.84-.47h1.26v-.09c0-.41-.14-.73-.41-.96s-.65-.34-1.15-.34c-.31,0-.62.04-.91.11-.3.08-.58.19-.85.34v-.83c.33-.13.65-.22.96-.28.31-.06.61-.1.9-.1.79,0,1.38.21,1.77.62.39.41.59,1.03.59,1.86Z"/>
        <path id="DejaVuSans-6c" class="cls-7" d="M217.73,326.96h.9v7.6h-.9v-7.6Z"/>
        <path id="DejaVuSans-41" class="cls-7" d="M226.16,328.24l-1.34,3.63h2.68l-1.34-3.63ZM225.6,327.26h1.12l2.78,7.29h-1.03l-.66-1.87h-3.29l-.66,1.87h-1.04l2.78-7.29Z"/>
        <path id="DejaVuSans-72" class="cls-7" d="M233.69,329.92c-.1-.06-.21-.1-.33-.13-.12-.03-.25-.04-.39-.04-.51,0-.9.17-1.17.5s-.41.8-.41,1.42v2.88h-.9v-5.47h.9v.85c.19-.33.44-.58.74-.74.3-.16.67-.24,1.1-.24.06,0,.13,0,.2.01.08,0,.16.02.25.04v.92Z"/>
        <path id="DejaVuSans-65" class="cls-7" d="M239.09,331.6v.44h-4.13c.04.62.23,1.09.56,1.41.33.32.8.49,1.39.49.34,0,.68-.04,1-.13s.65-.21.97-.38v.85c-.32.14-.65.24-.99.31s-.68.11-1.03.11c-.87,0-1.56-.25-2.07-.76-.51-.51-.76-1.2-.76-2.06s.24-1.6.73-2.13c.48-.53,1.14-.79,1.96-.79.74,0,1.32.24,1.75.71.43.47.64,1.12.64,1.93ZM238.19,331.33c0-.49-.14-.88-.41-1.18-.27-.29-.62-.44-1.07-.44-.5,0-.9.14-1.2.43s-.47.68-.52,1.2h3.2Z"/>
        <path id="DejaVuSans-61-2" data-name="DejaVuSans-61" class="cls-7" d="M243.05,331.81c-.73,0-1.23.08-1.51.25s-.42.45-.42.85c0,.32.11.57.32.76.21.19.5.28.86.28.5,0,.9-.18,1.2-.53s.45-.82.45-1.41v-.2h-.89ZM244.84,331.43v3.12h-.9v-.83c-.21.33-.46.58-.77.73-.31.16-.68.24-1.12.24-.56,0-1-.16-1.34-.47-.33-.31-.5-.74-.5-1.26,0-.61.21-1.08.62-1.39.41-.31,1.03-.47,1.84-.47h1.26v-.09c0-.41-.14-.73-.41-.96s-.65-.34-1.15-.34c-.31,0-.62.04-.91.11-.3.08-.58.19-.85.34v-.83c.33-.13.65-.22.96-.28.31-.06.61-.1.9-.1.79,0,1.38.21,1.77.62.39.41.59,1.03.59,1.86Z"/>
        <path id="DejaVuSans-28" class="cls-7" d="M252.03,326.97c-.44.75-.76,1.49-.97,2.22-.21.73-.32,1.47-.32,2.23s.11,1.5.32,2.23.54,1.48.97,2.23h-.78c-.49-.77-.85-1.52-1.1-2.26-.24-.74-.36-1.47-.36-2.2s.12-1.46.36-2.19c.24-.74.61-1.49,1.1-2.26h.78Z"/>
        <path id="DejaVuSans-4d-9" data-name="DejaVuSans-4d" class="cls-7" d="M253.81,327.26h1.47l1.86,4.96,1.87-4.96h1.47v7.29h-.96v-6.4l-1.88,5h-.99l-1.88-5v6.4h-.96v-7.29Z"/>
        <path id="DejaVuSans-6b" class="cls-7" d="M265.54,326.96h.9v4.49l2.68-2.36h1.15l-2.9,2.56,3.02,2.91h-1.17l-2.78-2.67v2.67h-.9v-7.6Z"/>
        <path id="DejaVuSans-6d" class="cls-7" d="M275.63,330.14c.23-.4.49-.7.81-.89s.68-.29,1.1-.29c.57,0,1.01.2,1.32.6.31.4.46.96.46,1.7v3.3h-.9v-3.27c0-.52-.09-.91-.28-1.17-.19-.25-.47-.38-.85-.38-.47,0-.83.15-1.1.46-.27.31-.4.73-.4,1.26v3.09h-.9v-3.27c0-.53-.09-.92-.28-1.17s-.47-.38-.86-.38c-.46,0-.82.16-1.1.47-.27.31-.4.73-.4,1.26v3.09h-.9v-5.47h.9v.85c.21-.34.45-.58.74-.74s.63-.24,1.02-.24.74.1,1.01.3c.28.2.48.49.62.88Z"/>
        <path id="DejaVuSans-b2" class="cls-7" d="M281.48,330.74h2.07v.56h-2.92v-.54c.11-.1.27-.24.47-.43,1.12-.99,1.68-1.64,1.68-1.95,0-.21-.08-.39-.25-.52-.17-.13-.39-.2-.67-.2-.17,0-.35.03-.55.09-.2.06-.41.14-.65.25v-.6c.25-.09.48-.16.7-.2.22-.05.42-.07.6-.07.47,0,.85.11,1.13.32.28.21.43.5.43.85,0,.45-.54,1.14-1.62,2.07-.18.16-.32.28-.42.37Z"/>
        <path id="DejaVuSans-29" class="cls-7" d="M284.98,326.97h.78c.49.77.85,1.52,1.1,2.26.24.74.36,1.47.36,2.19s-.12,1.46-.36,2.2c-.24.74-.61,1.49-1.1,2.26h-.78c.43-.75.76-1.49.97-2.23.21-.74.32-1.48.32-2.23s-.11-1.49-.32-2.23c-.21-.73-.54-1.47-.97-2.22Z"/>
      </g>
    </g>
  </g>
  <g id="matplotlib.axis_2" data-name="matplotlib.axis 2">
    <g id="ytick_1" data-name="ytick 1">
      <g id="line2d_9" data-name="line2d 9">
        <path id="m7de077ff06" class="cls-4" d="M33.4,253.59h-3.5"/>
      </g>
      <g id="text_10" data-name="text 10">
        <g>
          <path id="DejaVuSans-32-3" data-name="DejaVuSans-32" class="cls-7" d="M15.6,256.56h3.44v.83h-4.63v-.83c.37-.39.88-.91,1.53-1.56.65-.65,1.05-1.07,1.22-1.26.32-.35.54-.65.66-.9.13-.25.19-.49.19-.73,0-.39-.14-.7-.41-.95-.27-.24-.63-.37-1.06-.37-.31,0-.64.05-.98.16-.34.11-.71.27-1.1.49v-1c.4-.16.77-.28,1.11-.36.35-.08.66-.12.95-.12.76,0,1.36.19,1.81.57.45.38.67.88.67,1.51,0,.3-.06.58-.17.85-.11.27-.32.58-.61.95-.08.09-.34.37-.78.82-.44.45-1.05,1.08-1.85,1.89Z"/>
          <path id="DejaVuSans-30-13" data-name="DejaVuSans-30" class="cls-7" d="M23.22,250.75c-.51,0-.89.25-1.15.75-.26.5-.38,1.25-.38,2.25s.13,1.75.38,2.25c.26.5.64.75,1.15.75s.89-.25,1.15-.75c.26-.5.38-1.25.38-2.25s-.13-1.75-.38-2.25c-.26-.5-.64-.75-1.15-.75ZM23.22,249.97c.82,0,1.44.32,1.87.97.43.65.65,1.58.65,2.81s-.22,2.16-.65,2.81c-.43.65-1.06.97-1.87.97s-1.44-.32-1.87-.97c-.43-.65-.65-1.58-.65-2.81s.22-2.17.65-2.81c.43-.65,1.06-.97,1.87-.97Z"/>
        </g>
      </g>
    </g>
    <g id="ytick_2" data-name="ytick 2">
      <g id="line2d_10" data-name="line2d 10">
        <path id="m7de077ff06-2" data-name="m7de077ff06" class="cls-4" d="M33.4,191.66h-3.5"/>
      </g>
      <g id="text_11" data-name="text 11">
        <g>
          <path id="DejaVuSans-33-3" data-name="DejaVuSans-33" class="cls-7" d="M17.74,191.53c.47.1.84.31,1.1.63.27.32.4.71.4,1.18,0,.72-.25,1.28-.74,1.67-.49.39-1.2.59-2.11.59-.31,0-.62-.03-.94-.09-.32-.06-.66-.15-1-.27v-.95c.27.16.57.28.9.36.33.08.67.12,1.02.12.62,0,1.09-.12,1.41-.37s.49-.6.49-1.06c0-.43-.15-.77-.45-1.01-.3-.24-.72-.36-1.26-.36h-.85v-.81h.89c.48,0,.86-.1,1.11-.29s.39-.47.39-.84-.13-.66-.4-.86c-.26-.2-.64-.3-1.14-.3-.27,0-.56.03-.87.09-.31.06-.65.15-1.02.27v-.88c.38-.1.73-.18,1.05-.23s.64-.08.93-.08c.75,0,1.34.17,1.78.51.44.34.65.8.65,1.38,0,.4-.12.75-.35,1.02s-.56.47-.99.58Z"/>
          <path id="DejaVuSans-30-14" data-name="DejaVuSans-30" class="cls-7" d="M23.22,188.82c-.51,0-.89.25-1.15.75-.26.5-.38,1.25-.38,2.25s.13,1.75.38,2.25c.26.5.64.75,1.15.75s.89-.25,1.15-.75c.26-.5.38-1.25.38-2.25s-.13-1.75-.38-2.25c-.26-.5-.64-.75-1.15-.75ZM23.22,188.04c.82,0,1.44.32,1.87.97.43.65.65,1.58.65,2.81s-.22,2.16-.65,2.81c-.43.65-1.06.97-1.87.97s-1.44-.32-1.87-.97c-.43-.65-.65-1.58-.65-2.81s.22-2.17.65-2.81c.43-.65,1.06-.97,1.87-.97Z"/>
        </g>
      </g>
    </g>
    <g id="ytick_3" data-name="ytick 3">
      <g id="line2d_11" data-name="line2d 11">
        <path id="m7de077ff06-3" data-name="m7de077ff06" class="cls-4" d="M33.4,129.73h-3.5"/>
      </g>
      <g id="text_12" data-name="text 12">
        <g>
          <path id="DejaVuSans-34" class="cls-7" d="M17.46,127.1l-2.49,3.89h2.49v-3.89ZM17.2,126.24h1.24v4.75h1.04v.82h-1.04v1.72h-.98v-1.72h-3.29v-.95l3.03-4.62Z"/>
          <path id="DejaVuSans-30-15" data-name="DejaVuSans-30" class="cls-7" d="M23.22,126.89c-.51,0-.89.25-1.15.75-.26.5-.38,1.25-.38,2.25s.13,1.75.38,2.25c.26.5.64.75,1.15.75s.89-.25,1.15-.75c.26-.5.38-1.25.38-2.25s-.13-1.75-.38-2.25c-.26-.5-.64-.75-1.15-.75ZM23.22,126.11c.82,0,1.44.32,1.87.97.43.65.65,1.58.65,2.81s-.22,2.16-.65,2.81c-.43.65-1.06.97-1.87.97s-1.44-.32-1.87-.97c-.43-.65-.65-1.58-.65-2.81s.22-2.17.65-2.81c.43-.65,1.06-.97,1.87-.97Z"/>
        </g>
      </g>
    </g>
    <g id="ytick_4" data-name="ytick 4">
      <g id="line2d_12" data-name="line2d 12">
        <path id="m7de077ff06-4" data-name="m7de077ff06" class="cls-4" d="M33.4,67.8h-3.5"/>
      </g>
      <g id="text_13" data-name="text 13">
        <g>
          <path id="DejaVuSans-35-5" data-name="DejaVuSans-35" class="cls-7" d="M14.76,64.31h3.87v.83h-2.97v1.79c.14-.05.29-.09.43-.11.14-.02.29-.04.43-.04.81,0,1.46.22,1.93.67.48.45.71,1.05.71,1.81s-.24,1.39-.73,1.83c-.49.43-1.18.65-2.07.65-.31,0-.62-.03-.94-.08-.32-.05-.64-.13-.98-.23v-.99c.29.16.6.28.91.36s.64.12.99.12c.56,0,1.01-.15,1.34-.44.33-.3.49-.7.49-1.21s-.16-.91-.49-1.2c-.33-.3-.77-.45-1.34-.45-.26,0-.53.03-.79.09-.26.06-.53.15-.8.27v-3.66Z"/>
          <path id="DejaVuSans-30-16" data-name="DejaVuSans-30" class="cls-7" d="M23.22,64.96c-.51,0-.89.25-1.15.75-.26.5-.38,1.25-.38,2.25s.13,1.75.38,2.25c.26.5.64.75,1.15.75s.89-.25,1.15-.75c.26-.5.38-1.25.38-2.25s-.13-1.75-.38-2.25c-.26-.5-.64-.75-1.15-.75ZM23.22,64.18c.82,0,1.44.32,1.87.97.43.65.65,1.58.65,2.81s-.22,2.16-.65,2.81c-.43.65-1.06.97-1.87.97s-1.44-.32-1.87-.97c-.43-.65-.65-1.58-.65-2.81s.22-2.17.65-2.81c.43-.65,1.06-.97,1.87-.97Z"/>
        </g>
      </g>
    </g>
    <g id="text_14" data-name="text 14">
      <g>
        <path id="DejaVuSans-25" class="cls-7" d="M4.39,183.69c0,.28.12.51.36.67.24.16.58.24,1.01.24s.76-.08,1-.24c.24-.16.36-.38.36-.67s-.12-.5-.36-.66c-.24-.16-.58-.24-1-.24s-.76.08-1,.24c-.24.16-.36.38-.36.66ZM3.77,183.69c0-.51.18-.92.54-1.23.36-.3.84-.45,1.45-.45s1.09.15,1.45.46c.36.3.53.71.53,1.22s-.18.93-.53,1.24c-.36.3-.84.45-1.45.45s-1.1-.15-1.45-.46-.53-.72-.53-1.23ZM.8,188.73c0,.28.12.5.36.66.24.16.57.24,1,.24s.76-.08,1.01-.24c.24-.16.36-.38.36-.66s-.12-.51-.36-.67c-.24-.16-.58-.24-1.01-.24s-.75.08-1,.24c-.24.16-.37.38-.37.66ZM.18,184.32v-.78l7.56,4.56v.78l-7.56-4.56ZM.18,188.73c0-.51.18-.92.53-1.23.36-.31.84-.46,1.45-.46s1.1.15,1.45.46c.36.3.53.72.53,1.23s-.18.93-.53,1.23c-.36.3-.84.45-1.45.45s-1.09-.15-1.45-.45c-.36-.3-.54-.71-.54-1.23Z"/>
        <path id="DejaVuSans-50" class="cls-7" d="M1.12,176.32h2.74v-1.24c0-.46-.12-.81-.36-1.06-.24-.25-.58-.38-1.02-.38s-.77.13-1.01.38c-.24.25-.36.6-.36,1.06v1.24ZM.31,177.3v-2.23c0-.82.18-1.44.55-1.85.37-.42.91-.63,1.62-.63s1.26.21,1.63.63c.37.42.55,1.04.55,1.85v1.24h2.93v.99H.31Z"/>
        <path id="DejaVuSans-72-2" data-name="DejaVuSans-72" class="cls-7" d="M2.97,168.32c-.06.1-.1.21-.13.33-.03.12-.04.25-.04.39,0,.51.17.9.5,1.17s.8.41,1.42.41h2.88v.9H2.13v-.9h.85c-.33-.19-.58-.44-.74-.74-.16-.3-.24-.67-.24-1.1,0-.06,0-.13.01-.2,0-.08.02-.16.04-.25h.92Z"/>
        <path id="DejaVuSans-6f-2" data-name="DejaVuSans-6f" class="cls-7" d="M2.76,165.48c0,.48.19.86.56,1.14s.89.42,1.55.42,1.17-.14,1.55-.42c.38-.28.56-.66.56-1.15s-.19-.86-.57-1.14c-.38-.28-.89-.42-1.54-.42s-1.16.14-1.54.42c-.38.28-.57.66-.57,1.14ZM2,165.48c0-.78.25-1.39.76-1.84.51-.45,1.21-.67,2.11-.67s1.6.22,2.11.67c.51.45.76,1.06.76,1.84s-.25,1.4-.76,1.84c-.51.44-1.21.67-2.11.67s-1.6-.22-2.11-.67c-.51-.44-.76-1.06-.76-1.84Z"/>
        <path id="DejaVuSans-74-2" data-name="DejaVuSans-74" class="cls-7" d="M.58,160.59h1.55v-1.85h.7v1.85h2.97c.45,0,.73-.06.86-.18s.19-.37.19-.75v-.92h.75v.92c0,.69-.13,1.17-.39,1.44-.26.26-.73.4-1.41.4h-2.97v.66h-.7v-.66H.58v-.9Z"/>
        <path id="DejaVuSans-65-2" data-name="DejaVuSans-65" class="cls-7" d="M4.64,152.88h.44v4.13c.62-.04,1.09-.23,1.41-.56.32-.33.49-.8.49-1.39,0-.34-.04-.68-.13-1s-.21-.65-.38-.97h.85c.14.32.24.65.31.99s.11.68.11,1.03c0,.87-.25,1.56-.76,2.07-.51.51-1.2.76-2.06.76s-1.6-.24-2.13-.73c-.53-.48-.79-1.14-.79-1.96,0-.74.24-1.32.71-1.75.47-.43,1.12-.64,1.93-.64ZM4.38,153.78c-.49,0-.88.14-1.18.41-.29.27-.44.62-.44,1.07,0,.5.14.9.43,1.2s.68.47,1.2.52v-3.2Z"/>
        <path id="DejaVuSans-63" class="cls-7" d="M2.34,147.47h.84c-.14.25-.25.51-.32.76s-.1.51-.1.77c0,.58.18,1.04.55,1.36.37.32.89.48,1.55.48s1.19-.16,1.56-.48c.37-.32.55-.78.55-1.36,0-.26-.03-.52-.1-.77s-.18-.51-.32-.76h.83c.12.25.2.51.26.78.06.27.09.55.09.86,0,.82-.26,1.48-.78,1.96-.52.48-1.22.73-2.1.73s-1.59-.24-2.1-.73c-.51-.49-.77-1.16-.77-2.02,0-.28.03-.55.09-.81.06-.26.14-.52.25-.77Z"/>
        <path id="DejaVuSans-74-3" data-name="DejaVuSans-74" class="cls-7" d="M.58,145.02h1.55v-1.85h.7v1.85h2.97c.45,0,.73-.06.86-.18s.19-.37.19-.75v-.92h.75v.92c0,.69-.13,1.17-.39,1.44-.26.26-.73.4-1.41.4h-2.97v.66h-.7v-.66H.58v-.9Z"/>
        <path id="DejaVuSans-65-3" data-name="DejaVuSans-65" class="cls-7" d="M4.64,137.31h.44v4.13c.62-.04,1.09-.23,1.41-.56.32-.33.49-.8.49-1.39,0-.34-.04-.68-.13-1s-.21-.65-.38-.97h.85c.14.32.24.65.31.99s.11.68.11,1.03c0,.87-.25,1.56-.76,2.07-.51.51-1.2.76-2.06.76s-1.6-.24-2.13-.73c-.53-.48-.79-1.14-.79-1.96,0-.74.24-1.32.71-1.75.47-.43,1.12-.64,1.93-.64ZM4.38,138.21c-.49,0-.88.14-1.18.41-.29.27-.44.62-.44,1.07,0,.5.14.9.43,1.2s.68.47,1.2.52v-3.2Z"/>
        <path id="DejaVuSans-64" class="cls-7" d="M2.96,132.24H0v-.9h7.6v.9h-.82c.33.19.57.43.73.72.16.29.24.63.24,1.04,0,.66-.26,1.2-.79,1.61-.53.41-1.22.62-2.08.62s-1.55-.21-2.08-.62c-.53-.42-.79-.95-.79-1.61,0-.4.08-.75.24-1.04.16-.29.4-.53.72-.72ZM4.87,135.3c.66,0,1.18-.14,1.55-.41.38-.27.56-.65.56-1.12s-.19-.85-.56-1.12c-.38-.27-.89-.41-1.55-.41s-1.18.14-1.55.41c-.38.27-.56.65-.56,1.12s.19.85.56,1.12.89.41,1.55.41Z"/>
      </g>
    </g>
  </g>
  <g id="patch_3" data-name="patch 3">
    <path class="cls-1" d="M33.4,306.28V15.12"/>
  </g>
  <g id="patch_5" data-name="patch 5">
    <path class="cls-1" d="M33.4,306.28h417.48"/>
  </g>
  <g id="text_15" data-name="text 15">
    <g>
      <path id="DejaVuSans-42" class="cls-7" d="M260.02,20.92v1.87h1.11c.37,0,.65-.08.82-.23.18-.15.27-.39.27-.71s-.09-.55-.27-.71c-.18-.15-.45-.23-.82-.23h-1.11ZM260.02,18.82v1.54h1.02c.34,0,.59-.06.75-.19.17-.13.25-.32.25-.58s-.08-.45-.25-.58c-.16-.13-.42-.19-.75-.19h-1.02ZM259.33,18.25h1.76c.53,0,.93.11,1.22.33.29.22.43.53.43.93,0,.31-.07.56-.22.75s-.36.3-.64.34c.34.07.6.23.79.46.19.23.28.52.28.87,0,.46-.15.81-.46,1.06-.31.25-.75.37-1.32.37h-1.83v-5.1Z"/>
      <path id="DejaVuSans-72-3" data-name="DejaVuSans-72" class="cls-7" d="M266.32,20.11c-.07-.04-.15-.07-.23-.09-.08-.02-.17-.03-.27-.03-.36,0-.63.12-.82.35s-.29.56-.29,1v2.02h-.63v-3.83h.63v.6c.13-.23.3-.41.52-.52.21-.11.47-.17.77-.17.04,0,.09,0,.14,0,.05,0,.11.01.17.03v.65Z"/>
      <path id="DejaVuSans-61-3" data-name="DejaVuSans-61" class="cls-7" d="M268.72,21.43c-.51,0-.86.06-1.06.17s-.29.31-.29.6c0,.22.07.4.22.53.15.13.35.2.6.2.35,0,.63-.12.84-.37s.32-.58.32-.99v-.14h-.63ZM269.97,21.17v2.18h-.63v-.58c-.14.23-.32.4-.54.51-.21.11-.48.17-.79.17-.39,0-.7-.11-.94-.33-.23-.22-.35-.51-.35-.88,0-.43.14-.75.43-.97.29-.22.72-.33,1.29-.33h.88v-.06c0-.29-.1-.51-.29-.67s-.46-.24-.8-.24c-.22,0-.43.03-.64.08-.21.05-.41.13-.6.24v-.58c.23-.09.45-.16.67-.2.22-.04.43-.07.63-.07.55,0,.97.14,1.24.43.27.29.41.72.41,1.3Z"/>
      <path id="DejaVuSans-7a" class="cls-7" d="M271,19.52h2.99v.57l-2.36,2.75h2.36v.5h-3.07v-.57l2.37-2.75h-2.28v-.5Z"/>
      <path id="DejaVuSans-69" class="cls-7" d="M274.94,19.52h.63v3.83h-.63v-3.83ZM274.94,18.03h.63v.8h-.63v-.8Z"/>
      <path id="DejaVuSans-6c-2" data-name="DejaVuSans-6c" class="cls-7" d="M276.89,18.03h.63v5.32h-.63v-5.32Z"/>
    </g>
  </g>
  <g id="text_16" data-name="text 16">
    <g>
      <path id="DejaVuSans-56" class="cls-7" d="M418.7,135.45l-1.95-5.1h.72l1.62,4.3,1.62-4.3h.72l-1.94,5.1h-.78Z"/>
      <path id="DejaVuSans-65-4" data-name="DejaVuSans-65" class="cls-7" d="M424.88,133.38v.31h-2.89c.03.43.16.76.39.99.23.23.56.34.98.34.24,0,.48-.03.7-.09s.45-.15.68-.27v.6c-.23.1-.46.17-.69.22s-.48.08-.72.08c-.61,0-1.09-.18-1.45-.53-.36-.36-.53-.84-.53-1.44s.17-1.12.51-1.49c.34-.37.79-.55,1.37-.55.51,0,.92.17,1.22.5.3.33.45.78.45,1.35ZM424.25,133.19c0-.34-.1-.62-.29-.82-.19-.21-.44-.31-.75-.31-.35,0-.63.1-.84.3s-.33.48-.36.84h2.24Z"/>
      <path id="DejaVuSans-6e" class="cls-7" d="M429.09,133.14v2.31h-.63v-2.29c0-.36-.07-.63-.21-.81-.14-.18-.35-.27-.64-.27-.34,0-.61.11-.8.32-.2.22-.29.51-.29.88v2.16h-.63v-3.83h.63v.6c.15-.23.33-.4.53-.52.2-.11.44-.17.71-.17.44,0,.77.14,1,.41.23.27.34.67.34,1.2Z"/>
      <path id="DejaVuSans-65-5" data-name="DejaVuSans-65" class="cls-7" d="M433.62,133.38v.31h-2.89c.03.43.16.76.39.99.23.23.56.34.98.34.24,0,.48-.03.7-.09s.45-.15.68-.27v.6c-.23.1-.46.17-.69.22s-.48.08-.72.08c-.61,0-1.09-.18-1.45-.53-.36-.36-.53-.84-.53-1.44s.17-1.12.51-1.49c.34-.37.79-.55,1.37-.55.51,0,.92.17,1.22.5.3.33.45.78.45,1.35ZM432.99,133.19c0-.34-.1-.62-.29-.82-.19-.21-.44-.31-.75-.31-.35,0-.63.1-.84.3s-.33.48-.36.84h2.24Z"/>
      <path id="DejaVuSans-7a-2" data-name="DejaVuSans-7a" class="cls-7" d="M434.38,131.62h2.99v.57l-2.36,2.75h2.36v.5h-3.07v-.57l2.37-2.75h-2.28v-.5Z"/>
      <path id="DejaVuSans-75" class="cls-7" d="M438.26,133.94v-2.32h.63v2.29c0,.36.07.63.21.82.14.18.35.27.64.27.34,0,.61-.11.8-.32.2-.22.3-.51.3-.89v-2.17h.63v3.83h-.63v-.59c-.15.23-.33.41-.53.52-.2.11-.44.17-.7.17-.44,0-.77-.14-1-.41-.23-.27-.34-.67-.34-1.2ZM439.85,131.53h0Z"/>
      <path id="DejaVuSans-65-6" data-name="DejaVuSans-65" class="cls-7" d="M446.04,133.38v.31h-2.89c.03.43.16.76.39.99.23.23.56.34.98.34.24,0,.48-.03.7-.09s.45-.15.68-.27v.6c-.23.1-.46.17-.69.22s-.48.08-.72.08c-.61,0-1.09-.18-1.45-.53-.36-.36-.53-.84-.53-1.44s.17-1.12.51-1.49c.34-.37.79-.55,1.37-.55.51,0,.92.17,1.22.5.3.33.45.78.45,1.35ZM445.41,133.19c0-.34-.1-.62-.29-.82-.19-.21-.44-.31-.75-.31-.35,0-.63.1-.84.3s-.33.48-.36.84h2.24Z"/>
      <path id="DejaVuSans-6c-3" data-name="DejaVuSans-6c" class="cls-7" d="M447.07,130.13h.63v5.32h-.63v-5.32Z"/>
      <path id="DejaVuSans-61-4" data-name="DejaVuSans-61" class="cls-7" d="M450.76,133.52c-.51,0-.86.06-1.06.17s-.29.31-.29.6c0,.22.07.4.22.53.15.13.35.2.6.2.35,0,.63-.12.84-.37s.32-.58.32-.99v-.14h-.63ZM452.01,133.26v2.18h-.63v-.58c-.14.23-.32.4-.54.51-.21.11-.48.17-.79.17-.39,0-.7-.11-.94-.33-.23-.22-.35-.51-.35-.88,0-.43.14-.75.43-.97.29-.22.72-.33,1.29-.33h.88v-.06c0-.29-.1-.51-.29-.67s-.46-.24-.8-.24c-.22,0-.43.03-.64.08-.21.05-.41.13-.6.24v-.58c.23-.09.45-.16.67-.2.22-.04.43-.07.63-.07.55,0,.97.14,1.24.43.27.29.41.72.41,1.3Z"/>
    </g>
  </g>
  <g id="text_17" data-name="text 17">
    <g>
      <path id="DejaVuSans-43" class="cls-7" d="M412.91,225.55v.73c-.23-.22-.48-.38-.74-.48-.26-.11-.54-.16-.84-.16-.58,0-1.03.18-1.34.53s-.46.87-.46,1.55.15,1.19.46,1.54.76.53,1.34.53c.3,0,.58-.05.84-.16s.51-.27.74-.49v.72c-.24.16-.5.29-.77.37-.27.08-.55.12-.86.12-.77,0-1.38-.24-1.83-.71-.44-.47-.67-1.12-.67-1.94s.22-1.47.67-1.94c.44-.47,1.05-.71,1.83-.71.3,0,.59.04.86.12.27.08.52.2.76.36Z"/>
      <path id="DejaVuSans-6f-3" data-name="DejaVuSans-6f" class="cls-7" d="M415.43,226.88c-.34,0-.6.13-.8.39s-.29.62-.29,1.08.1.82.29,1.08c.2.26.46.39.8.39s.6-.13.8-.4c.2-.26.29-.62.29-1.08s-.1-.81-.29-1.08c-.2-.27-.46-.4-.8-.4ZM415.43,226.34c.55,0,.98.18,1.29.53.31.36.47.85.47,1.48s-.16,1.12-.47,1.48c-.31.36-.74.53-1.29.53s-.98-.18-1.29-.53c-.31-.36-.47-.85-.47-1.48s.16-1.12.47-1.48c.31-.36.74-.53,1.29-.53Z"/>
      <path id="DejaVuSans-6c-4" data-name="DejaVuSans-6c" class="cls-7" d="M418.23,224.94h.63v5.32h-.63v-5.32Z"/>
      <path id="DejaVuSans-6f-4" data-name="DejaVuSans-6f" class="cls-7" d="M421.66,226.88c-.34,0-.6.13-.8.39s-.29.62-.29,1.08.1.82.29,1.08c.2.26.46.39.8.39s.6-.13.8-.4c.2-.26.29-.62.29-1.08s-.1-.81-.29-1.08c-.2-.27-.46-.4-.8-.4ZM421.66,226.34c.55,0,.98.18,1.29.53.31.36.47.85.47,1.48s-.16,1.12-.47,1.48c-.31.36-.74.53-1.29.53s-.98-.18-1.29-.53c-.31-.36-.47-.85-.47-1.48s.16-1.12.47-1.48c.31-.36.74-.53,1.29-.53Z"/>
      <path id="DejaVuSans-6d-2" data-name="DejaVuSans-6d" class="cls-7" d="M427.44,227.17c.16-.28.35-.49.56-.63s.48-.2.77-.2c.4,0,.71.14.92.42.22.28.32.68.32,1.19v2.31h-.63v-2.29c0-.37-.07-.64-.2-.82-.13-.18-.33-.27-.59-.27-.33,0-.58.11-.77.32-.19.22-.28.51-.28.88v2.16h-.63v-2.29c0-.37-.06-.64-.19-.82s-.33-.26-.6-.26c-.32,0-.58.11-.77.33-.19.22-.28.51-.28.88v2.16h-.63v-3.83h.63v.6c.14-.23.32-.41.52-.52s.44-.17.71-.17.52.07.71.21c.19.14.34.35.43.61Z"/>
      <path id="DejaVuSans-62" class="cls-7" d="M434.02,228.35c0-.46-.1-.83-.29-1.09s-.45-.39-.78-.39-.6.13-.79.39-.29.63-.29,1.09.1.83.29,1.09c.19.26.45.39.79.39s.59-.13.78-.39c.19-.26.29-.63.29-1.09ZM431.88,227.02c.13-.23.3-.4.5-.51.2-.11.44-.17.72-.17.47,0,.84.18,1.13.55.29.37.44.85.44,1.46s-.15,1.09-.44,1.46c-.29.37-.67.55-1.13.55-.28,0-.52-.06-.72-.17-.2-.11-.37-.28-.5-.51v.57h-.63v-5.32h.63v2.07Z"/>
      <path id="DejaVuSans-69-2" data-name="DejaVuSans-69" class="cls-7" d="M435.72,226.43h.63v3.83h-.63v-3.83ZM435.72,224.94h.63v.8h-.63v-.8Z"/>
      <path id="DejaVuSans-61-5" data-name="DejaVuSans-61" class="cls-7" d="M439.4,228.34c-.51,0-.86.06-1.06.17s-.29.31-.29.6c0,.22.07.4.22.53.15.13.35.2.6.2.35,0,.63-.12.84-.37s.32-.58.32-.99v-.14h-.63ZM440.66,228.08v2.18h-.63v-.58c-.14.23-.32.4-.54.51-.21.11-.48.17-.79.17-.39,0-.7-.11-.94-.33-.23-.22-.35-.51-.35-.88,0-.43.14-.75.43-.97.29-.22.72-.33,1.29-.33h.88v-.06c0-.29-.1-.51-.29-.67s-.46-.24-.8-.24c-.22,0-.43.03-.64.08-.21.05-.41.13-.6.24v-.58c.23-.09.45-.16.67-.2.22-.04.43-.07.63-.07.55,0,.97.14,1.24.43.27.29.41.72.41,1.3Z"/>
    </g>
  </g>
  <g id="text_18" data-name="text 18">
    <g>
      <path id="DejaVuSans-45" class="cls-7" d="M368.64,269.06h3.23v.58h-2.54v1.51h2.43v.58h-2.43v1.85h2.6v.58h-3.29v-5.1Z"/>
      <path id="DejaVuSans-63-2" data-name="DejaVuSans-63" class="cls-7" d="M375.79,270.48v.59c-.18-.1-.36-.17-.53-.22s-.36-.07-.54-.07c-.41,0-.73.13-.95.39-.23.26-.34.62-.34,1.09s.11.83.34,1.09c.23.26.54.39.95.39.18,0,.36-.02.54-.07s.36-.12.53-.22v.58c-.18.08-.36.14-.55.18-.19.04-.39.06-.6.06-.58,0-1.04-.18-1.37-.54-.34-.36-.51-.85-.51-1.47s.17-1.11.51-1.47c.34-.36.81-.54,1.41-.54.19,0,.38.02.57.06.18.04.36.1.54.18Z"/>
      <path id="DejaVuSans-75-2" data-name="DejaVuSans-75" class="cls-7" d="M376.82,272.65v-2.32h.63v2.29c0,.36.07.63.21.82.14.18.35.27.64.27.34,0,.61-.11.8-.32.2-.22.3-.51.3-.89v-2.17h.63v3.83h-.63v-.59c-.15.23-.33.41-.53.52-.2.11-.44.17-.7.17-.44,0-.77-.14-1-.41-.23-.27-.34-.67-.34-1.2ZM378.4,270.24h0Z"/>
      <path id="DejaVuSans-61-6" data-name="DejaVuSans-61" class="cls-7" d="M383.06,272.24c-.51,0-.86.06-1.06.17s-.29.31-.29.6c0,.22.07.4.22.53.15.13.35.2.6.2.35,0,.63-.12.84-.37s.32-.58.32-.99v-.14h-.63ZM384.31,271.98v2.18h-.63v-.58c-.14.23-.32.4-.54.51-.21.11-.48.17-.79.17-.39,0-.7-.11-.94-.33-.23-.22-.35-.51-.35-.88,0-.43.14-.75.43-.97.29-.22.72-.33,1.29-.33h.88v-.06c0-.29-.1-.51-.29-.67s-.46-.24-.8-.24c-.22,0-.43.03-.64.08-.21.05-.41.13-.6.24v-.58c.23-.09.45-.16.67-.2.22-.04.43-.07.63-.07.55,0,.97.14,1.24.43.27.29.41.72.41,1.3Z"/>
      <path id="DejaVuSans-64-2" data-name="DejaVuSans-64" class="cls-7" d="M388.13,270.91v-2.07h.63v5.32h-.63v-.57c-.13.23-.3.4-.5.51-.2.11-.44.17-.73.17-.46,0-.84-.18-1.13-.55-.29-.37-.44-.86-.44-1.46s.15-1.09.44-1.46c.29-.37.67-.55,1.13-.55.28,0,.53.06.73.17.2.11.37.28.5.51ZM385.98,272.25c0,.46.1.83.29,1.09.19.26.45.39.78.39s.59-.13.79-.39c.19-.26.29-.63.29-1.09s-.1-.83-.29-1.09c-.19-.26-.45-.39-.79-.39s-.59.13-.78.39-.29.63-.29,1.09Z"/>
      <path id="DejaVuSans-6f-5" data-name="DejaVuSans-6f" class="cls-7" d="M391.53,270.77c-.34,0-.6.13-.8.39s-.29.62-.29,1.08.1.82.29,1.08c.2.26.46.39.8.39s.6-.13.8-.4c.2-.26.29-.62.29-1.08s-.1-.81-.29-1.08c-.2-.27-.46-.4-.8-.4ZM391.53,270.24c.55,0,.98.18,1.29.53.31.36.47.85.47,1.48s-.16,1.12-.47,1.48c-.31.36-.74.53-1.29.53s-.98-.18-1.29-.53c-.31-.36-.47-.85-.47-1.48s.16-1.12.47-1.48c.31-.36.74-.53,1.29-.53Z"/>
      <path id="DejaVuSans-72-4" data-name="DejaVuSans-72" class="cls-7" d="M396.55,270.92c-.07-.04-.15-.07-.23-.09-.08-.02-.17-.03-.27-.03-.36,0-.63.12-.82.35s-.29.56-.29,1v2.02h-.63v-3.83h.63v.6c.13-.23.3-.41.52-.52.21-.11.47-.17.77-.17.04,0,.09,0,.14,0,.05,0,.11.01.17.03v.65Z"/>
    </g>
  </g>
  <g id="text_19" data-name="text 19">
    <g>
      <path id="DejaVuSans-48" class="cls-7" d="M444.17,271.77h.69v2.09h2.51v-2.09h.69v5.1h-.69v-2.43h-2.51v2.43h-.69v-5.1Z"/>
      <path id="DejaVuSans-6f-6" data-name="DejaVuSans-6f" class="cls-7" d="M450.89,273.48c-.34,0-.6.13-.8.39s-.29.62-.29,1.08.1.82.29,1.08c.2.26.46.39.8.39s.6-.13.8-.4c.2-.26.29-.62.29-1.08s-.1-.81-.29-1.08c-.2-.27-.46-.4-.8-.4ZM450.89,272.95c.55,0,.98.18,1.29.53.31.36.47.85.47,1.48s-.16,1.12-.47,1.48c-.31.36-.74.53-1.29.53s-.98-.18-1.29-.53c-.31-.36-.47-.85-.47-1.48s.16-1.12.47-1.48c.31-.36.74-.53,1.29-.53Z"/>
      <path id="DejaVuSans-6e-2" data-name="DejaVuSans-6e" class="cls-7" d="M456.87,274.56v2.31h-.63v-2.29c0-.36-.07-.63-.21-.81-.14-.18-.35-.27-.64-.27-.34,0-.61.11-.8.32-.2.22-.29.51-.29.88v2.16h-.63v-3.83h.63v.6c.15-.23.33-.4.53-.52.2-.11.44-.17.71-.17.44,0,.77.14,1,.41.23.27.34.67.34,1.2Z"/>
      <path id="DejaVuSans-64-3" data-name="DejaVuSans-64" class="cls-7" d="M460.64,273.62v-2.07h.63v5.32h-.63v-.57c-.13.23-.3.4-.5.51-.2.11-.44.17-.73.17-.46,0-.84-.18-1.13-.55-.29-.37-.44-.86-.44-1.46s.15-1.09.44-1.46c.29-.37.67-.55,1.13-.55.28,0,.53.06.73.17.2.11.37.28.5.51ZM458.5,274.96c0,.46.1.83.29,1.09.19.26.45.39.78.39s.59-.13.79-.39c.19-.26.29-.63.29-1.09s-.1-.83-.29-1.09c-.19-.26-.45-.39-.79-.39s-.59.13-.78.39-.29.63-.29,1.09Z"/>
      <path id="DejaVuSans-75-3" data-name="DejaVuSans-75" class="cls-7" d="M462.5,275.36v-2.32h.63v2.29c0,.36.07.63.21.82.14.18.35.27.64.27.34,0,.61-.11.8-.32.2-.22.3-.51.3-.89v-2.17h.63v3.83h-.63v-.59c-.15.23-.33.41-.53.52-.2.11-.44.17-.7.17-.44,0-.77-.14-1-.41-.23-.27-.34-.67-.34-1.2ZM464.09,272.95h0Z"/>
      <path id="DejaVuSans-72-5" data-name="DejaVuSans-72" class="cls-7" d="M469.22,273.63c-.07-.04-.15-.07-.23-.09-.08-.02-.17-.03-.27-.03-.36,0-.63.12-.82.35s-.29.56-.29,1v2.02h-.63v-3.83h.63v.6c.13-.23.3-.41.52-.52.21-.11.47-.17.77-.17.04,0,.09,0,.14,0,.05,0,.11.01.17.03v.65Z"/>
      <path id="DejaVuSans-61-7" data-name="DejaVuSans-61" class="cls-7" d="M471.62,274.95c-.51,0-.86.06-1.06.17s-.29.31-.29.6c0,.22.07.4.22.53.15.13.35.2.6.2.35,0,.63-.12.84-.37s.32-.58.32-.99v-.14h-.63ZM472.88,274.69v2.18h-.63v-.58c-.14.23-.32.4-.54.51-.21.11-.48.17-.79.17-.39,0-.7-.11-.94-.33-.23-.22-.35-.51-.35-.88,0-.43.14-.75.43-.97.29-.22.72-.33,1.29-.33h.88v-.06c0-.29-.1-.51-.29-.67s-.46-.24-.8-.24c-.22,0-.43.03-.64.08-.21.05-.41.13-.6.24v-.58c.23-.09.45-.16.67-.2.22-.04.43-.07.63-.07.55,0,.97.14,1.24.43.27.29.41.72.41,1.3Z"/>
      <path id="DejaVuSans-73" class="cls-7" d="M476.61,273.16v.6c-.18-.09-.36-.16-.55-.2-.19-.05-.39-.07-.6-.07-.31,0-.55.05-.7.14-.16.1-.23.24-.23.43,0,.15.06.26.17.34s.34.16.67.24l.22.05c.45.1.76.23.95.4s.28.42.28.73c0,.36-.14.64-.42.85-.28.21-.67.31-1.16.31-.2,0-.42-.02-.64-.06-.22-.04-.46-.1-.7-.18v-.65c.23.12.46.21.69.27.23.06.45.09.67.09.3,0,.52-.05.68-.15.16-.1.24-.24.24-.43,0-.17-.06-.3-.17-.39-.11-.09-.37-.18-.76-.26l-.22-.05c-.39-.08-.67-.21-.84-.38-.17-.17-.26-.4-.26-.7,0-.36.13-.64.38-.83.26-.2.62-.29,1.09-.29.23,0,.45.02.66.05.21.03.39.08.57.15Z"/>
    </g>
  </g>
  <g id="text_20" data-name="text 20">
    <g>
      <path id="DejaVuSans-50-2" data-name="DejaVuSans-50" class="cls-7" d="M437.08,263.29v1.92h.87c.32,0,.57-.08.74-.25.18-.17.26-.4.26-.71s-.09-.54-.26-.71c-.18-.17-.42-.25-.74-.25h-.87ZM436.39,262.72h1.56c.57,0,1,.13,1.3.39.29.26.44.64.44,1.14s-.15.88-.44,1.14c-.29.26-.72.39-1.3.39h-.87v2.05h-.69v-5.1Z"/>
      <path id="DejaVuSans-61-8" data-name="DejaVuSans-61" class="cls-7" d="M442.01,265.9c-.51,0-.86.06-1.06.17s-.29.31-.29.6c0,.22.07.4.22.53.15.13.35.2.6.2.35,0,.63-.12.84-.37s.32-.58.32-.99v-.14h-.63ZM443.26,265.64v2.18h-.63v-.58c-.14.23-.32.4-.54.51-.21.11-.48.17-.79.17-.39,0-.7-.11-.94-.33-.23-.22-.35-.51-.35-.88,0-.43.14-.75.43-.97.29-.22.72-.33,1.29-.33h.88v-.06c0-.29-.1-.51-.29-.67s-.46-.24-.8-.24c-.22,0-.43.03-.64.08-.21.05-.41.13-.6.24v-.58c.23-.09.45-.16.67-.2.22-.04.43-.07.63-.07.55,0,.97.14,1.24.43.27.29.41.72.41,1.3Z"/>
      <path id="DejaVuSans-6e-3" data-name="DejaVuSans-6e" class="cls-7" d="M447.74,265.51v2.31h-.63v-2.29c0-.36-.07-.63-.21-.81-.14-.18-.35-.27-.64-.27-.34,0-.61.11-.8.32-.2.22-.29.51-.29.88v2.16h-.63v-3.83h.63v.6c.15-.23.33-.4.53-.52.2-.11.44-.17.71-.17.44,0,.77.14,1,.41.23.27.34.67.34,1.2Z"/>
      <path id="DejaVuSans-61-9" data-name="DejaVuSans-61" class="cls-7" d="M450.74,265.9c-.51,0-.86.06-1.06.17s-.29.31-.29.6c0,.22.07.4.22.53.15.13.35.2.6.2.35,0,.63-.12.84-.37s.32-.58.32-.99v-.14h-.63ZM451.99,265.64v2.18h-.63v-.58c-.14.23-.32.4-.54.51-.21.11-.48.17-.79.17-.39,0-.7-.11-.94-.33-.23-.22-.35-.51-.35-.88,0-.43.14-.75.43-.97.29-.22.72-.33,1.29-.33h.88v-.06c0-.29-.1-.51-.29-.67s-.46-.24-.8-.24c-.22,0-.43.03-.64.08-.21.05-.41.13-.6.24v-.58c.23-.09.45-.16.67-.2.22-.04.43-.07.63-.07.55,0,.97.14,1.24.43.27.29.41.72.41,1.3Z"/>
      <path id="DejaVuSans-6d-3" data-name="DejaVuSans-6d" class="cls-7" d="M456.27,264.73c.16-.28.35-.49.56-.63s.48-.2.77-.2c.4,0,.71.14.92.42.22.28.32.68.32,1.19v2.31h-.63v-2.29c0-.37-.07-.64-.2-.82-.13-.18-.33-.27-.59-.27-.33,0-.58.11-.77.32-.19.22-.28.51-.28.88v2.16h-.63v-2.29c0-.37-.06-.64-.19-.82s-.33-.26-.6-.26c-.32,0-.58.11-.77.33-.19.22-.28.51-.28.88v2.16h-.63v-3.83h.63v.6c.14-.23.32-.41.52-.52s.44-.17.71-.17.52.07.71.21c.19.14.34.35.43.61Z"/>
      <path id="DejaVuSans-61-10" data-name="DejaVuSans-61" class="cls-7" d="M461.84,265.9c-.51,0-.86.06-1.06.17s-.29.31-.29.6c0,.22.07.4.22.53.15.13.35.2.6.2.35,0,.63-.12.84-.37s.32-.58.32-.99v-.14h-.63ZM463.1,265.64v2.18h-.63v-.58c-.14.23-.32.4-.54.51-.21.11-.48.17-.79.17-.39,0-.7-.11-.94-.33-.23-.22-.35-.51-.35-.88,0-.43.14-.75.43-.97.29-.22.72-.33,1.29-.33h.88v-.06c0-.29-.1-.51-.29-.67s-.46-.24-.8-.24c-.22,0-.43.03-.64.08-.21.05-.41.13-.6.24v-.58c.23-.09.45-.16.67-.2.22-.04.43-.07.63-.07.55,0,.97.14,1.24.43.27.29.41.72.41,1.3Z"/>
    </g>
  </g>
  <g id="text_21" data-name="text 21">
    <g>
      <path id="DejaVuSans-55" class="cls-7" d="M57.99,265.54h.69v3.1c0,.55.1.94.3,1.18.2.24.52.36.96.36s.76-.12.96-.36c.2-.24.3-.63.3-1.18v-3.1h.69v3.19c0,.67-.16,1.17-.49,1.51-.33.34-.81.51-1.46.51s-1.13-.17-1.46-.51c-.33-.34-.49-.84-.49-1.51v-3.19Z"/>
      <path id="DejaVuSans-6e-4" data-name="DejaVuSans-6e" class="cls-7" d="M66.35,268.33v2.31h-.63v-2.29c0-.36-.07-.63-.21-.81-.14-.18-.35-.27-.64-.27-.34,0-.61.11-.8.32-.2.22-.29.51-.29.88v2.16h-.63v-3.83h.63v.6c.15-.23.33-.4.53-.52.2-.11.44-.17.71-.17.44,0,.77.14,1,.41.23.27.34.67.34,1.2Z"/>
      <path id="DejaVuSans-69-3" data-name="DejaVuSans-69" class="cls-7" d="M67.6,266.81h.63v3.83h-.63v-3.83ZM67.6,265.32h.63v.8h-.63v-.8Z"/>
      <path id="DejaVuSans-74-4" data-name="DejaVuSans-74" class="cls-7" d="M70.17,265.73v1.09h1.3v.49h-1.3v2.08c0,.31.04.51.13.6s.26.13.52.13h.65v.53h-.65c-.49,0-.82-.09-1.01-.27-.18-.18-.28-.51-.28-.99v-2.08h-.46v-.49h.46v-1.09h.63Z"/>
      <path id="DejaVuSans-65-7" data-name="DejaVuSans-65" class="cls-7" d="M75.56,268.57v.31h-2.89c.03.43.16.76.39.99.23.23.56.34.98.34.24,0,.48-.03.7-.09s.45-.15.68-.27v.6c-.23.1-.46.17-.69.22s-.48.08-.72.08c-.61,0-1.09-.18-1.45-.53-.36-.36-.53-.84-.53-1.44s.17-1.12.51-1.49c.34-.37.79-.55,1.37-.55.51,0,.92.17,1.22.5.3.33.45.78.45,1.35ZM74.93,268.38c0-.34-.1-.62-.29-.82-.19-.21-.44-.31-.75-.31-.35,0-.63.1-.84.3s-.33.48-.36.84h2.24Z"/>
      <path id="DejaVuSans-64-4" data-name="DejaVuSans-64" class="cls-7" d="M79.11,267.39v-2.07h.63v5.32h-.63v-.57c-.13.23-.3.4-.5.51-.2.11-.44.17-.73.17-.46,0-.84-.18-1.13-.55-.29-.37-.44-.86-.44-1.46s.15-1.09.44-1.46c.29-.37.67-.55,1.13-.55.28,0,.53.06.73.17.2.11.37.28.5.51ZM76.97,268.73c0,.46.1.83.29,1.09.19.26.45.39.78.39s.59-.13.79-.39c.19-.26.29-.63.29-1.09s-.1-.83-.29-1.09c-.19-.26-.45-.39-.79-.39s-.59.13-.78.39-.29.63-.29,1.09Z"/>
      <path id="DejaVuSans-53" class="cls-7" d="M86.35,265.71v.67c-.26-.13-.51-.22-.74-.28-.23-.06-.46-.09-.67-.09-.38,0-.67.07-.87.22-.2.15-.31.35-.31.62,0,.23.07.4.2.51.14.11.39.21.77.28l.42.09c.51.1.89.27,1.14.52s.37.58.37.99c0,.5-.17.87-.5,1.13-.33.26-.82.38-1.46.38-.24,0-.5-.03-.77-.08-.27-.05-.55-.14-.85-.24v-.71c.28.16.55.28.82.36.27.08.53.12.79.12.39,0,.7-.08.91-.23.21-.16.32-.38.32-.66,0-.25-.08-.45-.23-.59s-.41-.25-.76-.32l-.42-.08c-.51-.1-.89-.26-1.12-.48-.23-.22-.34-.52-.34-.91,0-.45.16-.81.48-1.07.32-.26.76-.39,1.31-.39.24,0,.48.02.73.07.25.04.5.11.76.19Z"/>
      <path id="DejaVuSans-74-5" data-name="DejaVuSans-74" class="cls-7" d="M88.33,265.73v1.09h1.3v.49h-1.3v2.08c0,.31.04.51.13.6s.26.13.52.13h.65v.53h-.65c-.49,0-.82-.09-1.01-.27-.18-.18-.28-.51-.28-.99v-2.08h-.46v-.49h.46v-1.09h.63Z"/>
      <path id="DejaVuSans-61-11" data-name="DejaVuSans-61" class="cls-7" d="M92.19,268.72c-.51,0-.86.06-1.06.17s-.29.31-.29.6c0,.22.07.4.22.53.15.13.35.2.6.2.35,0,.63-.12.84-.37s.32-.58.32-.99v-.14h-.63ZM93.45,268.46v2.18h-.63v-.58c-.14.23-.32.4-.54.51-.21.11-.48.17-.79.17-.39,0-.7-.11-.94-.33-.23-.22-.35-.51-.35-.88,0-.43.14-.75.43-.97.29-.22.72-.33,1.29-.33h.88v-.06c0-.29-.1-.51-.29-.67s-.46-.24-.8-.24c-.22,0-.43.03-.64.08-.21.05-.41.13-.6.24v-.58c.23-.09.45-.16.67-.2.22-.04.43-.07.63-.07.55,0,.97.14,1.24.43.27.29.41.72.41,1.3Z"/>
      <path id="DejaVuSans-74-6" data-name="DejaVuSans-74" class="cls-7" d="M95.36,265.73v1.09h1.3v.49h-1.3v2.08c0,.31.04.51.13.6s.26.13.52.13h.65v.53h-.65c-.49,0-.82-.09-1.01-.27-.18-.18-.28-.51-.28-.99v-2.08h-.46v-.49h.46v-1.09h.63Z"/>
      <path id="DejaVuSans-65-8" data-name="DejaVuSans-65" class="cls-7" d="M100.76,268.57v.31h-2.89c.03.43.16.76.39.99.23.23.56.34.98.34.24,0,.48-.03.7-.09s.45-.15.68-.27v.6c-.23.1-.46.17-.69.22s-.48.08-.72.08c-.61,0-1.09-.18-1.45-.53-.36-.36-.53-.84-.53-1.44s.17-1.12.51-1.49c.34-.37.79-.55,1.37-.55.51,0,.92.17,1.22.5.3.33.45.78.45,1.35ZM100.13,268.38c0-.34-.1-.62-.29-.82-.19-.21-.44-.31-.75-.31-.35,0-.63.1-.84.3s-.33.48-.36.84h2.24Z"/>
      <path id="DejaVuSans-73-2" data-name="DejaVuSans-73" class="cls-7" d="M104.23,266.93v.6c-.18-.09-.36-.16-.55-.2-.19-.05-.39-.07-.6-.07-.31,0-.55.05-.7.14-.16.1-.23.24-.23.43,0,.15.06.26.17.34s.34.16.67.24l.22.05c.45.1.76.23.95.4s.28.42.28.73c0,.36-.14.64-.42.85-.28.21-.67.31-1.16.31-.2,0-.42-.02-.64-.06-.22-.04-.46-.1-.7-.18v-.65c.23.12.46.21.69.27.23.06.45.09.67.09.3,0,.52-.05.68-.15.16-.1.24-.24.24-.43,0-.17-.06-.3-.17-.39-.11-.09-.37-.18-.76-.26l-.22-.05c-.39-.08-.67-.21-.84-.38-.17-.17-.26-.4-.26-.7,0-.36.13-.64.38-.83.26-.2.62-.29,1.09-.29.23,0,.45.02.66.05.21.03.39.08.57.15Z"/>
    </g>
  </g>
  <g id="text_22" data-name="text 22">
    <g>
      <path id="DejaVuSans-43-2" data-name="DejaVuSans-43" class="cls-7" d="M419.74,248.83v.73c-.23-.22-.48-.38-.74-.49-.26-.11-.54-.16-.84-.16-.58,0-1.03.18-1.34.53s-.47.87-.47,1.55.15,1.19.46,1.54.76.54,1.34.54c.3,0,.58-.05.84-.16s.51-.27.74-.48v.72c-.24.16-.5.29-.77.37-.27.08-.56.12-.86.12-.77,0-1.38-.24-1.83-.71-.44-.47-.66-1.12-.66-1.94s.22-1.47.67-1.94c.45-.47,1.05-.71,1.83-.71.3,0,.59.04.86.12.27.08.52.2.76.37Z"/>
      <path id="DejaVuSans-6f-7" data-name="DejaVuSans-6f" class="cls-7" d="M422.26,250.15c-.34,0-.6.13-.8.39s-.29.62-.3,1.08.1.82.29,1.08c.2.26.46.4.8.4s.6-.13.8-.39c.2-.26.29-.62.3-1.08s-.1-.81-.29-1.08c-.2-.27-.46-.4-.8-.4ZM422.26,249.62c.55,0,.98.18,1.29.54.31.36.47.85.47,1.48s-.16,1.12-.47,1.47c-.31.36-.74.53-1.29.53s-.98-.18-1.29-.54c-.31-.36-.46-.85-.46-1.48s.16-1.12.47-1.47c.31-.36.74-.53,1.29-.53Z"/>
      <path id="DejaVuSans-73-3" data-name="DejaVuSans-73" class="cls-7" d="M427.5,249.83v.59c-.18-.09-.36-.16-.55-.21-.19-.05-.39-.07-.59-.07-.31,0-.55.05-.7.14-.16.1-.23.24-.23.43,0,.15.06.26.17.34s.34.16.67.24l.22.05c.45.1.76.23.95.41s.28.42.28.73c0,.36-.14.64-.42.84-.28.21-.67.31-1.16.31-.2,0-.42-.02-.64-.06-.22-.04-.46-.1-.7-.18v-.65c.23.12.46.21.69.27.23.06.45.09.67.09.3,0,.52-.05.68-.15.16-.1.24-.24.24-.43,0-.17-.06-.3-.17-.39-.11-.09-.37-.18-.76-.26l-.22-.05c-.39-.08-.67-.21-.84-.38-.17-.17-.26-.4-.26-.7,0-.36.13-.64.38-.83.26-.2.62-.29,1.09-.29.23,0,.45.02.66.05.21.03.39.09.57.15Z"/>
      <path id="DejaVuSans-74-7" data-name="DejaVuSans-74" class="cls-7" d="M429.33,248.63v1.09s1.29,0,1.29,0v.49s-1.3,0-1.3,0v2.08c0,.31.04.51.12.6s.26.13.52.13h.65s0,.53,0,.53h-.65c-.49,0-.82-.09-1-.27-.18-.18-.28-.51-.28-.99v-2.08s-.46,0-.46,0v-.49s.46,0,.46,0v-1.09s.63,0,.63,0Z"/>
      <path id="DejaVuSans-61-12" data-name="DejaVuSans-61" class="cls-7" d="M433.19,251.63c-.51,0-.86.06-1.06.17s-.29.31-.29.59c0,.22.07.4.22.53.15.13.35.2.6.2.35,0,.63-.12.84-.37s.32-.58.32-.99v-.14s-.63,0-.63,0ZM434.45,251.37v2.18s-.63,0-.63,0v-.58c-.14.23-.32.4-.54.51-.21.11-.48.17-.79.17-.39,0-.7-.11-.93-.33-.23-.22-.35-.52-.35-.88,0-.43.14-.75.43-.97.29-.22.72-.33,1.29-.33h.88s0-.06,0-.06c0-.29-.09-.51-.28-.67s-.46-.24-.8-.24c-.22,0-.43.03-.64.08-.21.05-.41.13-.6.24v-.58c.23-.09.45-.15.67-.2.22-.04.43-.07.63-.07.55,0,.97.14,1.24.43.27.29.41.72.41,1.31Z"/>
      <path id="DejaVuSans-52" class="cls-7" d="M440.42,251.17c.15.05.29.16.43.32s.28.39.42.68l.7,1.4h-.74s-.65-1.31-.65-1.31c-.17-.34-.33-.57-.49-.68s-.37-.17-.65-.17h-.75s0,2.16,0,2.16h-.69s0-5.1,0-5.1h1.56c.58,0,1.02.13,1.31.37.29.24.43.61.43,1.1,0,.32-.08.59-.23.8-.15.21-.37.36-.65.44ZM438.69,249.02v1.81s.87,0,.87,0c.33,0,.58-.08.75-.23s.26-.38.26-.68-.08-.52-.25-.68-.42-.23-.75-.23h-.87Z"/>
      <path id="DejaVuSans-69-4" data-name="DejaVuSans-69" class="cls-7" d="M442.83,249.73h.63s0,3.83,0,3.83h-.63s0-3.83,0-3.83ZM442.84,248.24h.63s0,.8,0,.8h-.63s0-.8,0-.8Z"/>
      <path id="DejaVuSans-63-3" data-name="DejaVuSans-63" class="cls-7" d="M447.53,249.89v.59c-.18-.1-.36-.17-.54-.22s-.36-.07-.54-.07c-.41,0-.73.13-.95.39-.23.26-.34.62-.34,1.09s.11.83.34,1.09c.23.26.54.39.95.39.18,0,.36-.02.54-.07s.36-.12.54-.22v.58c-.18.08-.36.14-.55.18-.19.04-.39.06-.6.06-.58,0-1.03-.18-1.37-.55-.34-.36-.51-.85-.51-1.47s.17-1.11.52-1.47c.34-.36.81-.54,1.41-.54.19,0,.38.02.57.06.18.04.36.1.54.18Z"/>
      <path id="DejaVuSans-61-13" data-name="DejaVuSans-61" class="cls-7" d="M450.37,251.65c-.51,0-.86.06-1.06.17s-.29.31-.29.59c0,.22.07.4.22.53.15.13.35.2.6.2.35,0,.63-.12.84-.37s.32-.58.32-.99v-.14s-.63,0-.63,0ZM451.62,251.39v2.18s-.63,0-.63,0v-.58c-.14.23-.32.4-.54.51-.21.11-.48.17-.79.17-.39,0-.7-.11-.93-.33-.23-.22-.35-.52-.35-.88,0-.43.14-.75.43-.97.29-.22.72-.33,1.29-.33h.88s0-.06,0-.06c0-.29-.09-.51-.28-.67s-.46-.24-.8-.24c-.22,0-.43.03-.64.08-.21.05-.41.13-.6.24v-.58c.23-.09.45-.15.67-.2.22-.04.43-.07.63-.07.55,0,.97.14,1.24.43.27.29.41.72.41,1.31Z"/>
    </g>
  </g>
  <path id="DejaVuSans-53-2" data-name="DejaVuSans-53" class="cls-7" d="M445.48,287.86v.67c-.26-.13-.51-.22-.74-.28-.23-.06-.46-.09-.67-.09-.38,0-.67.07-.87.22-.2.15-.31.35-.31.62,0,.23.07.4.2.51.14.11.39.21.77.28l.42.09c.51.1.89.27,1.14.52s.37.58.37.99c0,.5-.17.87-.5,1.13-.33.26-.82.38-1.46.38-.24,0-.5-.03-.77-.08-.27-.05-.55-.14-.85-.24v-.71c.28.16.55.28.82.36.27.08.53.12.79.12.39,0,.7-.08.91-.23.21-.16.32-.38.32-.66,0-.25-.08-.45-.23-.59s-.41-.25-.76-.32l-.42-.08c-.51-.1-.89-.26-1.12-.48-.23-.22-.34-.52-.34-.91,0-.45.16-.81.48-1.07.32-.26.76-.39,1.31-.39.24,0,.48.02.73.07.25.04.5.11.76.19Z"/>
  <path id="DejaVuSans-61-14" data-name="DejaVuSans-61" class="cls-7" d="M448.58,290.87c-.51,0-.86.06-1.06.17s-.29.31-.29.6c0,.22.07.4.22.53.15.13.35.2.6.2.35,0,.63-.12.84-.37s.32-.58.32-.99v-.14h-.63ZM449.83,290.61v2.18h-.63v-.58c-.14.23-.32.4-.54.51-.21.11-.48.17-.79.17-.39,0-.7-.11-.94-.33-.23-.22-.35-.51-.35-.88,0-.43.14-.75.43-.97.29-.22.72-.33,1.29-.33h.88v-.06c0-.29-.1-.51-.29-.67s-.46-.24-.8-.24c-.22,0-.43.03-.64.08-.21.05-.41.13-.6.24v-.58c.23-.09.45-.16.67-.2.22-.04.43-.07.63-.07.55,0,.97.14,1.24.43.27.29.41.72.41,1.3Z"/>
  <path id="DejaVuSans-69-5" data-name="DejaVuSans-69" class="cls-7" d="M451.12,288.97h.63v3.83h-.63v-3.83ZM451.12,287.48h.63v.8h-.63v-.8Z"/>
  <path id="DejaVuSans-6e-5" data-name="DejaVuSans-6e" class="cls-7" d="M456.25,290.49v2.31h-.63v-2.29c0-.36-.07-.63-.21-.81-.14-.18-.35-.27-.64-.27-.34,0-.61.11-.8.32-.2.22-.29.51-.29.88v2.16h-.63v-3.83h.63v.6c.15-.23.33-.4.53-.52.2-.11.44-.17.71-.17.44,0,.77.14,1,.41.23.27.34.67.34,1.2Z"/>
  <path id="DejaVuSans-74-8" data-name="DejaVuSans-74" class="cls-7" d="M458.13,287.88v1.09h1.3v.49h-1.3v2.08c0,.31.04.51.13.6s.26.13.52.13h.65v.53h-.65c-.49,0-.82-.09-1.01-.27-.18-.18-.28-.51-.28-.99v-2.08h-.46v-.49h.46v-1.09h.63Z"/>
  <path id="DejaVuSans-56-2" data-name="DejaVuSans-56" class="cls-7" d="M463.82,292.8l-1.95-5.1h.72l1.62,4.3,1.62-4.3h.72l-1.94,5.1h-.78Z"/>
  <path id="DejaVuSans-69-6" data-name="DejaVuSans-69" class="cls-7" d="M467.11,288.97h.63v3.83h-.63v-3.83ZM467.11,287.48h.63v.8h-.63v-.8Z"/>
  <path id="DejaVuSans-6e-6" data-name="DejaVuSans-6e" class="cls-7" d="M472.23,290.49v2.31h-.63v-2.29c0-.36-.07-.63-.21-.81-.14-.18-.35-.27-.64-.27-.34,0-.61.11-.8.32-.2.22-.29.51-.29.88v2.16h-.63v-3.83h.63v.6c.15-.23.33-.4.53-.52.2-.11.44-.17.71-.17.44,0,.77.14,1,.41.23.27.34.67.34,1.2Z"/>
  <path id="DejaVuSans-63-4" data-name="DejaVuSans-63" class="cls-7" d="M476.24,289.12v.59c-.18-.1-.36-.17-.53-.22s-.36-.07-.54-.07c-.41,0-.73.13-.95.39-.23.26-.34.62-.34,1.09s.11.83.34,1.09c.23.26.54.39.95.39.18,0,.36-.02.54-.07s.36-.12.53-.22v.58c-.18.08-.36.14-.55.18-.19.04-.39.06-.6.06-.58,0-1.04-.18-1.37-.54-.34-.36-.51-.85-.51-1.47s.17-1.11.51-1.47c.34-.36.81-.54,1.41-.54.19,0,.38.02.57.06.18.04.36.1.54.18Z"/>
  <path id="DejaVuSans-65-9" data-name="DejaVuSans-65" class="cls-7" d="M480.61,290.73v.31h-2.89c.03.43.16.76.39.99.23.23.56.34.98.34.24,0,.48-.03.7-.09s.45-.15.68-.27v.6c-.23.1-.46.17-.69.22s-.48.08-.72.08c-.61,0-1.09-.18-1.45-.53-.36-.36-.53-.84-.53-1.44s.17-1.12.51-1.49c.34-.37.79-.55,1.37-.55.51,0,.92.17,1.22.5.3.33.45.78.45,1.35ZM479.98,290.54c0-.34-.1-.62-.29-.82-.19-.21-.44-.31-.75-.31-.35,0-.63.1-.84.3s-.33.48-.36.84h2.24Z"/>
  <path id="DejaVuSans-6e-7" data-name="DejaVuSans-6e" class="cls-7" d="M484.83,290.49v2.31h-.63v-2.29c0-.36-.07-.63-.21-.81-.14-.18-.35-.27-.64-.27-.34,0-.61.11-.8.32-.2.22-.29.51-.29.88v2.16h-.63v-3.83h.63v.6c.15-.23.33-.4.53-.52.2-.11.44-.17.71-.17.44,0,.77.14,1,.41.23.27.34.67.34,1.2Z"/>
  <path id="DejaVuSans-74-9" data-name="DejaVuSans-74" class="cls-7" d="M486.7,287.88v1.09h1.3v.49h-1.3v2.08c0,.31.04.51.13.6s.26.13.52.13h.65v.53h-.65c-.49,0-.82-.09-1.01-.27-.18-.18-.28-.51-.28-.99v-2.08h-.46v-.49h.46v-1.09h.63Z"/>
  <path id="DejaVuSans-61-15" data-name="DejaVuSans-61" class="cls-7" d="M492.79,290.87c-.51,0-.86.06-1.06.17s-.29.31-.29.6c0,.22.07.4.22.53.15.13.35.2.6.2.35,0,.63-.12.84-.37s.32-.58.32-.99v-.14h-.63ZM494.04,290.61v2.18h-.63v-.58c-.14.23-.32.4-.54.51-.21.11-.48.17-.79.17-.39,0-.7-.11-.94-.33-.23-.22-.35-.51-.35-.88,0-.43.14-.75.43-.97.29-.22.72-.33,1.29-.33h.88v-.06c0-.29-.1-.51-.29-.67s-.46-.24-.8-.24c-.22,0-.43.03-.64.08-.21.05-.41.13-.6.24v-.58c.23-.09.45-.16.67-.2.22-.04.43-.07.63-.07.55,0,.97.14,1.24.43.27.29.41.72.41,1.3Z"/>
  <path id="DejaVuSans-6e-8" data-name="DejaVuSans-6e" class="cls-7" d="M498.52,290.49v2.31h-.63v-2.29c0-.36-.07-.63-.21-.81-.14-.18-.35-.27-.64-.27-.34,0-.61.11-.8.32-.2.22-.29.51-.29.88v2.16h-.63v-3.83h.63v.6c.15-.23.33-.4.53-.52.2-.11.44-.17.71-.17.44,0,.77.14,1,.41.23.27.34.67.34,1.2Z"/>
  <path id="DejaVuSans-64-5" data-name="DejaVuSans-64" class="cls-7" d="M502.29,289.55v-2.07h.63v5.32h-.63v-.57c-.13.23-.3.4-.5.51-.2.11-.44.17-.73.17-.46,0-.84-.18-1.13-.55-.29-.37-.44-.86-.44-1.46s.15-1.09.44-1.46c.29-.37.67-.55,1.13-.55.28,0,.53.06.73.17.2.11.37.28.5.51ZM500.15,290.89c0,.46.1.83.29,1.09.19.26.45.39.78.39s.59-.13.79-.39c.19-.26.29-.63.29-1.09s-.1-.83-.29-1.09c-.19-.26-.45-.39-.79-.39s-.59.13-.78.39-.29.63-.29,1.09Z"/>
  <path id="DejaVuSans-74-10" data-name="DejaVuSans-74" class="cls-7" d="M443.55,296.39v1.09h1.3v.49h-1.3v2.08c0,.31.04.51.13.6s.26.13.52.13h.65v.53h-.65c-.49,0-.82-.09-1.01-.27-.18-.18-.28-.51-.28-.99v-2.08h-.46v-.49h.46v-1.09h.63Z"/>
  <path id="DejaVuSans-68" class="cls-7" d="M448.86,299v2.31h-.63v-2.29c0-.36-.07-.63-.21-.81-.14-.18-.35-.27-.64-.27-.34,0-.61.11-.8.32-.2.22-.29.51-.29.88v2.16h-.63v-5.32h.63v2.09c.15-.23.33-.4.53-.52.2-.11.44-.17.71-.17.44,0,.77.14,1,.41.23.27.34.67.34,1.2Z"/>
  <path id="DejaVuSans-65-10" data-name="DejaVuSans-65" class="cls-7" d="M453.39,299.24v.31h-2.89c.03.43.16.76.39.99.23.23.56.34.98.34.24,0,.48-.03.7-.09s.45-.15.68-.27v.6c-.23.1-.46.17-.69.22s-.48.08-.72.08c-.61,0-1.09-.18-1.45-.53-.36-.36-.53-.84-.53-1.44s.17-1.12.51-1.49c.34-.37.79-.55,1.37-.55.51,0,.92.17,1.22.5.3.33.45.78.45,1.35ZM452.76,299.05c0-.34-.1-.62-.29-.82-.19-.21-.44-.31-.75-.31-.35,0-.63.1-.84.3s-.33.48-.36.84h2.24Z"/>
  <path id="DejaVuSans-47" class="cls-7" d="M460.15,300.58v-1.37h-1.13v-.57h1.81v2.19c-.27.19-.56.33-.88.43-.32.1-.66.15-1.03.15-.8,0-1.42-.23-1.87-.7-.45-.47-.67-1.12-.67-1.95s.22-1.48.67-1.95c.45-.47,1.07-.7,1.87-.7.33,0,.65.04.95.12.3.08.58.2.83.36v.74c-.26-.22-.53-.38-.81-.49s-.59-.16-.91-.16c-.62,0-1.09.17-1.41.52-.31.35-.47.87-.47,1.56s.16,1.21.47,1.56c.31.35.78.52,1.41.52.24,0,.46-.02.65-.06.19-.04.36-.11.52-.2Z"/>
  <path id="DejaVuSans-72-6" data-name="DejaVuSans-72" class="cls-7" d="M464.29,298.07c-.07-.04-.15-.07-.23-.09-.08-.02-.17-.03-.27-.03-.36,0-.63.12-.82.35s-.29.56-.29,1v2.02h-.63v-3.83h.63v.6c.13-.23.3-.41.52-.52.21-.11.47-.17.77-.17.04,0,.09,0,.14,0,.05,0,.11.01.17.03v.65Z"/>
  <path id="DejaVuSans-65-11" data-name="DejaVuSans-65" class="cls-7" d="M468.06,299.24v.31h-2.89c.03.43.16.76.39.99.23.23.56.34.98.34.24,0,.48-.03.7-.09s.45-.15.68-.27v.6c-.23.1-.46.17-.69.22s-.48.08-.72.08c-.61,0-1.09-.18-1.45-.53-.36-.36-.53-.84-.53-1.44s.17-1.12.51-1.49c.34-.37.79-.55,1.37-.55.51,0,.92.17,1.22.5.3.33.45.78.45,1.35ZM467.43,299.05c0-.34-.1-.62-.29-.82-.19-.21-.44-.31-.75-.31-.35,0-.63.1-.84.3s-.33.48-.36.84h2.24Z"/>
  <path id="DejaVuSans-6e-9" data-name="DejaVuSans-6e" class="cls-7" d="M472.28,299v2.31h-.63v-2.29c0-.36-.07-.63-.21-.81-.14-.18-.35-.27-.64-.27-.34,0-.61.11-.8.32-.2.22-.29.51-.29.88v2.16h-.63v-3.83h.63v.6c.15-.23.33-.4.53-.52.2-.11.44-.17.71-.17.44,0,.77.14,1,.41.23.27.34.67.34,1.2Z"/>
  <path id="DejaVuSans-61-16" data-name="DejaVuSans-61" class="cls-7" d="M475.27,299.39c-.51,0-.86.06-1.06.17s-.29.31-.29.6c0,.22.07.4.22.53.15.13.35.2.6.2.35,0,.63-.12.84-.37s.32-.58.32-.99v-.14h-.63ZM476.53,299.13v2.18h-.63v-.58c-.14.23-.32.4-.54.51-.21.11-.48.17-.79.17-.39,0-.7-.11-.94-.33-.23-.22-.35-.51-.35-.88,0-.43.14-.75.43-.97.29-.22.72-.33,1.29-.33h.88v-.06c0-.29-.1-.51-.29-.67s-.46-.24-.8-.24c-.22,0-.43.03-.64.08-.21.05-.41.13-.6.24v-.58c.23-.09.45-.16.67-.2.22-.04.43-.07.63-.07.55,0,.97.14,1.24.43.27.29.41.72.41,1.3Z"/>
  <path id="DejaVuSans-64-6" data-name="DejaVuSans-64" class="cls-7" d="M480.34,298.06v-2.07h.63v5.32h-.63v-.57c-.13.23-.3.4-.5.51-.2.11-.44.17-.73.17-.46,0-.84-.18-1.13-.55-.29-.37-.44-.86-.44-1.46s.15-1.09.44-1.46c.29-.37.67-.55,1.13-.55.28,0,.53.06.73.17.2.11.37.28.5.51ZM478.2,299.4c0,.46.1.83.29,1.09.19.26.45.39.78.39s.59-.13.79-.39c.19-.26.29-.63.29-1.09s-.1-.83-.29-1.09c-.19-.26-.45-.39-.79-.39s-.59.13-.78.39-.29.63-.29,1.09Z"/>
  <path id="DejaVuSans-69-7" data-name="DejaVuSans-69" class="cls-7" d="M482.26,297.48h.63v3.83h-.63v-3.83ZM482.26,295.99h.63v.8h-.63v-.8Z"/>
  <path id="DejaVuSans-6e-10" data-name="DejaVuSans-6e" class="cls-7" d="M487.39,299v2.31h-.63v-2.29c0-.36-.07-.63-.21-.81-.14-.18-.35-.27-.64-.27-.34,0-.61.11-.8.32-.2.22-.29.51-.29.88v2.16h-.63v-3.83h.63v.6c.15-.23.33-.4.53-.52.2-.11.44-.17.71-.17.44,0,.77.14,1,.41.23.27.34.67.34,1.2Z"/>
  <path id="DejaVuSans-65-12" data-name="DejaVuSans-65" class="cls-7" d="M491.92,299.24v.31h-2.89c.03.43.16.76.39.99.23.23.56.34.98.34.24,0,.48-.03.7-.09s.45-.15.68-.27v.6c-.23.1-.46.17-.69.22s-.48.08-.72.08c-.61,0-1.09-.18-1.45-.53-.36-.36-.53-.84-.53-1.44s.17-1.12.51-1.49c.34-.37.79-.55,1.37-.55.51,0,.92.17,1.22.5.3.33.45.78.45,1.35ZM491.29,299.05c0-.34-.1-.62-.29-.82-.19-.21-.44-.31-.75-.31-.35,0-.63.1-.84.3s-.33.48-.36.84h2.24Z"/>
  <path id="DejaVuSans-73-4" data-name="DejaVuSans-73" class="cls-7" d="M495.39,297.59v.6c-.18-.09-.36-.16-.55-.2-.19-.05-.39-.07-.6-.07-.31,0-.55.05-.7.14-.16.1-.23.24-.23.43,0,.15.06.26.17.34s.34.16.67.24l.22.05c.45.1.76.23.95.4s.28.42.28.73c0,.36-.14.64-.42.85-.28.21-.67.31-1.16.31-.2,0-.42-.02-.64-.06-.22-.04-.46-.1-.7-.18v-.65c.23.12.46.21.69.27.23.06.45.09.67.09.3,0,.52-.05.68-.15.16-.1.24-.24.24-.43,0-.17-.06-.3-.17-.39-.11-.09-.37-.18-.76-.26l-.22-.05c-.39-.08-.67-.21-.84-.38-.17-.17-.26-.4-.26-.7,0-.36.13-.64.38-.83.26-.2.62-.29,1.09-.29.23,0,.45.02.66.05.21.03.39.08.57.15Z"/>
  <g id="text_24" data-name="text 24">
    <g>
      <path id="DejaVuSans-50-3" data-name="DejaVuSans-50" class="cls-7" d="M377.82,289.91v1.92h.87c.32,0,.57-.08.74-.25.18-.17.26-.4.26-.71s-.09-.54-.26-.71c-.18-.17-.42-.25-.74-.25h-.87ZM377.13,289.34h1.56c.57,0,1,.13,1.3.39.29.26.44.64.44,1.14s-.15.88-.44,1.14c-.29.26-.72.39-1.3.39h-.87v2.05h-.69v-5.1Z"/>
      <path id="DejaVuSans-65-13" data-name="DejaVuSans-65" class="cls-7" d="M384.35,292.37v.31h-2.89c.03.43.16.76.39.99.23.23.56.34.98.34.24,0,.48-.03.7-.09s.45-.15.68-.27v.6c-.23.1-.46.17-.69.22s-.48.08-.72.08c-.61,0-1.09-.18-1.45-.53-.36-.36-.53-.84-.53-1.44s.17-1.12.51-1.49c.34-.37.79-.55,1.37-.55.51,0,.92.17,1.22.5.3.33.45.78.45,1.35ZM383.72,292.19c0-.34-.1-.62-.29-.82-.19-.21-.44-.31-.75-.31-.35,0-.63.1-.84.3s-.33.48-.36.84h2.24Z"/>
      <path id="DejaVuSans-72-7" data-name="DejaVuSans-72" class="cls-7" d="M387.6,291.2c-.07-.04-.15-.07-.23-.09-.08-.02-.17-.03-.27-.03-.36,0-.63.12-.82.35s-.29.56-.29,1v2.02h-.63v-3.83h.63v.6c.13-.23.3-.41.52-.52.21-.11.47-.17.77-.17.04,0,.09,0,.14,0,.05,0,.11.01.17.03v.65Z"/>
      <path id="DejaVuSans-75-4" data-name="DejaVuSans-75" class="cls-7" d="M388.19,292.93v-2.32h.63v2.29c0,.36.07.63.21.82.14.18.35.27.64.27.34,0,.61-.11.8-.32.2-.22.3-.51.3-.89v-2.17h.63v3.83h-.63v-.59c-.15.23-.33.41-.53.52-.2.11-.44.17-.7.17-.44,0-.77-.14-1-.41-.23-.27-.34-.67-.34-1.2ZM389.77,290.52h0Z"/>
    </g>
  </g>
  <g id="text_25" data-name="text 25">
    <g>
      <path id="DejaVuSans-Bold-41" class="cls-8" d="M220.97,7.52h-3.53l-.56,1.59h-2.27l3.24-8.75h2.69l3.24,8.75h-2.27l-.55-1.59ZM218,5.9h2.4l-1.2-3.48-1.2,3.48Z"/>
      <path id="DejaVuSans-Bold-6d" class="cls-8" d="M230.93,3.64c.27-.41.58-.72.95-.93.36-.21.77-.32,1.2-.32.75,0,1.33.23,1.72.7.39.46.59,1.14.59,2.03v4h-2.11v-3.42c0-.05,0-.1,0-.16,0-.06,0-.13,0-.23,0-.46-.07-.8-.21-1.01-.14-.21-.36-.31-.66-.31-.4,0-.7.16-.92.49-.22.33-.33.8-.34,1.42v3.22h-2.11v-3.42c0-.73-.06-1.19-.19-1.4-.13-.21-.35-.31-.67-.31-.4,0-.71.16-.93.49s-.33.8-.33,1.42v3.23h-2.11V2.56h2.11v.96c.26-.37.55-.65.89-.84s.7-.28,1.1-.28c.45,0,.85.11,1.2.33.35.22.61.52.79.92Z"/>
      <path id="DejaVuSans-Bold-65" class="cls-8" d="M243.91,5.82v.6h-4.9c.05.49.23.86.53,1.11s.73.37,1.28.37c.44,0,.89-.07,1.36-.2.46-.13.94-.33,1.43-.59v1.62c-.5.19-.99.33-1.49.43-.5.1-.99.14-1.49.14-1.19,0-2.11-.3-2.77-.91-.66-.6-.99-1.45-.99-2.54s.32-1.91.97-2.52c.65-.61,1.54-.92,2.67-.92,1.03,0,1.86.31,2.47.93.62.62.93,1.45.93,2.49ZM241.75,5.12c0-.4-.12-.72-.35-.96-.23-.25-.54-.37-.91-.37-.41,0-.74.11-.99.34s-.41.56-.47.99h2.72Z"/>
      <path id="DejaVuSans-Bold-72" class="cls-8" d="M250.37,4.34c-.18-.09-.37-.15-.55-.19-.18-.04-.36-.06-.55-.06-.54,0-.95.17-1.24.52-.29.34-.44.84-.44,1.48v3.02h-2.1V2.56h2.1v1.08c.27-.43.58-.74.93-.94.35-.2.77-.3,1.26-.3.07,0,.15,0,.23,0,.08,0,.2.02.36.04v1.9Z"/>
      <path id="DejaVuSans-Bold-69" class="cls-8" d="M251.41,2.56h2.1v6.56h-2.1V2.56ZM251.41,0h2.1v1.71h-2.1V0Z"/>
      <path id="DejaVuSans-Bold-63" class="cls-8" d="M260.83,2.76v1.71c-.28-.19-.57-.34-.86-.43s-.59-.14-.89-.14c-.58,0-1.04.17-1.37.51s-.49.82-.49,1.43.16,1.09.49,1.43c.33.34.78.51,1.37.51.33,0,.64-.05.94-.15.29-.1.57-.24.82-.43v1.72c-.33.12-.66.21-1,.27-.34.06-.68.09-1.02.09-1.18,0-2.11-.3-2.78-.91-.67-.61-1-1.45-1-2.53s.33-1.93,1-2.53c.67-.61,1.59-.91,2.78-.91.34,0,.68.03,1.02.09s.67.15,1,.27Z"/>
      <path id="DejaVuSans-Bold-61" class="cls-8" d="M265.58,6.16c-.44,0-.77.07-.99.22-.22.15-.33.37-.33.66,0,.26.09.47.27.62.18.15.43.22.74.22.39,0,.73-.14,1-.42.27-.28.4-.64.4-1.06v-.24h-1.09ZM268.79,5.37v3.74h-2.11v-.97c-.28.4-.6.69-.95.87-.35.18-.78.27-1.28.27-.68,0-1.23-.2-1.66-.59-.42-.4-.64-.91-.64-1.54,0-.77.26-1.33.79-1.69.53-.36,1.36-.54,2.49-.54h1.24v-.16c0-.33-.13-.58-.39-.73-.26-.16-.67-.23-1.22-.23-.45,0-.87.04-1.25.13-.39.09-.75.22-1.08.4v-1.6c.45-.11.9-.19,1.35-.25.45-.06.91-.08,1.36-.08,1.18,0,2.04.23,2.56.7.53.47.79,1.22.79,2.28Z"/>
    </g>
  </g>
  <g>
    <path class="cls-7" d="M418.23,258.44c-.18,5.05-.36,10.1-.54,15.16"/>
    <g>
      <path class="cls-2" d="M418.23,258.44c-.16,4.55-.33,9.1-.49,13.65"/>
      <path d="M417.68,273.6c-.24-.72-.66-1.62-1.11-2.18l1.17.47,1.2-.39c-.5.53-.98,1.39-1.26,2.09Z"/>
    </g>
  </g>
</svg>