<?xml version="1.0" encoding="UTF-8"?>
<svg id="Layer_1" data-name="Layer 1" xmlns="http://www.w3.org/2000/svg" viewBox="0 0 576 360">
  <defs>
    <style>
      .cls-1 {
        fill: #fff;
      }

      .cls-2, .cls-3 {
        fill: none;
      }

      .cls-4 {
        stroke: #a6d854;
      }

      .cls-4, .cls-5 {
        stroke-linejoin: round;
      }

      .cls-4, .cls-6 {
        fill: #a6d854;
      }

      .cls-3 {
        stroke-linecap: square;
      }

      .cls-3, .cls-5 {
        stroke: #000;
        stroke-width: .8px;
      }
    </style>
  </defs>
  <g id="patch_1" data-name="patch 1">
    <path class="cls-1" d="M0,360h576V0H0v360Z"/>
  </g>
  <g id="patch_2" data-name="patch 2">
    <path class="cls-1" d="M44.66,318.04h500.37V26.88H44.66v291.16Z"/>
  </g>
  <g id="PathCollection_1" data-name="PathCollection 1">
    <rect class="cls-2" x="44.66" y="26.88" width="500.37" height="291.16"/>
    <g>
      <path id="m9be1afccab" class="cls-4" d="M522.29,44.59c1.19,0,2.32-.47,3.16-1.31.84-.84,1.31-1.98,1.31-3.16s-.47-2.32-1.31-3.16c-.84-.84-1.98-1.31-3.16-1.31s-2.32.47-3.16,1.31c-.84.84-1.31,1.98-1.31,3.16s.47,2.32,1.31,3.16c.84.84,1.98,1.31,3.16,1.31Z"/>
      <path id="m9be1afccab-2" data-name="m9be1afccab" class="cls-4" d="M67.4,226.81c1.19,0,2.32-.47,3.16-1.31.84-.84,1.31-1.98,1.31-3.16s-.47-2.32-1.31-3.16c-.84-.84-1.98-1.31-3.16-1.31s-2.32.47-3.16,1.31c-.84.84-1.31,1.98-1.31,3.16s.47,2.32,1.31,3.16c.84.84,1.98,1.31,3.16,1.31Z"/>
      <path id="m9be1afccab-3" data-name="m9be1afccab" class="cls-4" d="M297.93,309.28c1.19,0,2.32-.47,3.16-1.31.84-.84,1.31-1.98,1.31-3.16s-.47-2.32-1.31-3.16c-.84-.84-1.98-1.31-3.16-1.31s-2.32.47-3.16,1.31c-.84.84-1.31,1.98-1.31,3.16s.47,2.32,1.31,3.16c.84.84,1.98,1.31,3.16,1.31Z"/>
    </g>
  </g>
  <g id="matplotlib.axis_1" data-name="matplotlib.axis 1">
    <g id="xtick_1" data-name="xtick 1">
      <g id="line2d_1" data-name="line2d 1">
        <path id="m40bb3a9586" class="cls-5" d="M478.84,318.04v3.5"/>
      </g>
      <g id="text_1" data-name="text 1">
        <g>
          <path id="DejaVuSans-30" d="M469.75,326c-.51,0-.89.25-1.15.75-.26.5-.38,1.25-.38,2.25s.13,1.75.38,2.25c.26.5.64.75,1.15.75s.89-.25,1.15-.75c.26-.5.38-1.25.38-2.25s-.13-1.75-.38-2.25c-.26-.5-.64-.75-1.15-.75ZM469.75,325.22c.82,0,1.44.32,1.87.97.43.65.65,1.58.65,2.81s-.22,2.16-.65,2.81c-.43.65-1.06.97-1.87.97s-1.44-.32-1.87-.97c-.43-.65-.65-1.58-.65-2.81s.22-2.17.65-2.81c.43-.65,1.06-.97,1.87-.97Z"/>
          <path id="DejaVuSans-2e" d="M474,331.4h1.03v1.24h-1.03v-1.24Z"/>
          <path id="DejaVuSans-35" d="M477.19,325.35h3.87v.83h-2.97v1.79c.14-.05.29-.09.43-.11.14-.02.29-.04.43-.04.81,0,1.46.22,1.93.67.48.45.71,1.05.71,1.81s-.24,1.39-.73,1.83c-.49.43-1.18.65-2.07.65-.31,0-.62-.03-.94-.08-.32-.05-.64-.13-.98-.23v-.99c.29.16.6.28.91.36s.64.12.99.12c.56,0,1.01-.15,1.34-.44.33-.3.49-.7.49-1.21s-.16-.91-.49-1.2c-.33-.3-.77-.45-1.34-.45-.26,0-.53.03-.79.09-.26.06-.53.15-.8.27v-3.66Z"/>
          <path id="DejaVuSans-4d" d="M483.45,325.35h1.47l1.86,4.96,1.87-4.96h1.47v7.29h-.96v-6.4l-1.88,5h-.99l-1.88-5v6.4h-.96v-7.29Z"/>
        </g>
      </g>
    </g>
    <g id="xtick_2" data-name="xtick 2">
      <g id="line2d_2" data-name="line2d 2">
        <path id="m40bb3a9586-2" data-name="m40bb3a9586" class="cls-5" d="M380.78,318.04v3.5"/>
      </g>
      <g id="text_2" data-name="text 2">
        <g>
          <path id="DejaVuSans-31" d="M369.76,331.81h1.61v-5.56l-1.75.35v-.9l1.74-.35h.99v6.46h1.61v.83h-4.2v-.83Z"/>
          <path id="DejaVuSans-2e-2" data-name="DejaVuSans-2e" d="M375.95,331.4h1.03v1.24h-1.03v-1.24Z"/>
          <path id="DejaVuSans-30-2" data-name="DejaVuSans-30" d="M381.24,326c-.51,0-.89.25-1.15.75-.26.5-.38,1.25-.38,2.25s.13,1.75.38,2.25c.26.5.64.75,1.15.75s.89-.25,1.15-.75c.26-.5.38-1.25.38-2.25s-.13-1.75-.38-2.25c-.26-.5-.64-.75-1.15-.75ZM381.24,325.22c.82,0,1.44.32,1.87.97.43.65.65,1.58.65,2.81s-.22,2.16-.65,2.81c-.43.65-1.06.97-1.87.97s-1.44-.32-1.87-.97c-.43-.65-.65-1.58-.65-2.81s.22-2.17.65-2.81c.43-.65,1.06-.97,1.87-.97Z"/>
          <path id="DejaVuSans-4d-2" data-name="DejaVuSans-4d" d="M385.4,325.35h1.47l1.86,4.96,1.87-4.96h1.47v7.29h-.96v-6.4l-1.88,5h-.99l-1.88-5v6.4h-.96v-7.29Z"/>
        </g>
      </g>
    </g>
    <g id="xtick_3" data-name="xtick 3">
      <g id="line2d_3" data-name="line2d 3">
        <path id="m40bb3a9586-3" data-name="m40bb3a9586" class="cls-5" d="M282.73,318.04v3.5"/>
      </g>
      <g id="text_3" data-name="text 3">
        <g>
          <path id="DejaVuSans-31-2" data-name="DejaVuSans-31" d="M271.7,331.81h1.61v-5.56l-1.75.35v-.9l1.74-.35h.99v6.46h1.61v.83h-4.2v-.83Z"/>
          <path id="DejaVuSans-2e-3" data-name="DejaVuSans-2e" d="M277.89,331.4h1.03v1.24h-1.03v-1.24Z"/>
          <path id="DejaVuSans-35-2" data-name="DejaVuSans-35" d="M281.08,325.35h3.87v.83h-2.97v1.79c.14-.05.29-.09.43-.11.14-.02.29-.04.43-.04.81,0,1.46.22,1.93.67.48.45.71,1.05.71,1.81s-.24,1.39-.73,1.83c-.49.43-1.18.65-2.07.65-.31,0-.62-.03-.94-.08-.32-.05-.64-.13-.98-.23v-.99c.29.16.6.28.91.36s.64.12.99.12c.56,0,1.01-.15,1.34-.44.33-.3.49-.7.49-1.21s-.16-.91-.49-1.2c-.33-.3-.77-.45-1.34-.45-.26,0-.53.03-.79.09-.26.06-.53.15-.8.27v-3.66Z"/>
          <path id="DejaVuSans-4d-3" data-name="DejaVuSans-4d" d="M287.35,325.35h1.47l1.86,4.96,1.87-4.96h1.47v7.29h-.96v-6.4l-1.88,5h-.99l-1.88-5v6.4h-.96v-7.29Z"/>
        </g>
      </g>
    </g>
    <g id="xtick_4" data-name="xtick 4">
      <g id="line2d_4" data-name="line2d 4">
        <path id="m40bb3a9586-4" data-name="m40bb3a9586" class="cls-5" d="M184.68,318.04v3.5"/>
      </g>
      <g id="text_4" data-name="text 4">
        <g>
          <path id="DejaVuSans-32" d="M174.33,331.81h3.44v.83h-4.63v-.83c.37-.39.88-.91,1.53-1.56.65-.65,1.05-1.07,1.22-1.26.32-.35.54-.65.66-.9.13-.25.19-.49.19-.73,0-.39-.14-.7-.41-.95-.27-.24-.63-.37-1.06-.37-.31,0-.64.05-.98.16-.34.11-.71.27-1.1.49v-1c.4-.16.77-.28,1.11-.36.35-.08.66-.12.95-.12.76,0,1.36.19,1.81.57.45.38.67.88.67,1.51,0,.3-.06.58-.17.85-.11.27-.32.58-.61.95-.08.09-.34.37-.78.82-.44.45-1.05,1.08-1.85,1.89Z"/>
          <path id="DejaVuSans-2e-4" data-name="DejaVuSans-2e" d="M179.84,331.4h1.03v1.24h-1.03v-1.24Z"/>
          <path id="DejaVuSans-30-3" data-name="DejaVuSans-30" d="M185.13,326c-.51,0-.89.25-1.15.75-.26.5-.38,1.25-.38,2.25s.13,1.75.38,2.25c.26.5.64.75,1.15.75s.89-.25,1.15-.75c.26-.5.38-1.25.38-2.25s-.13-1.75-.38-2.25c-.26-.5-.64-.75-1.15-.75ZM185.13,325.22c.82,0,1.44.32,1.87.97.43.65.65,1.58.65,2.81s-.22,2.16-.65,2.81c-.43.65-1.06.97-1.87.97s-1.44-.32-1.87-.97c-.43-.65-.65-1.58-.65-2.81s.22-2.17.65-2.81c.43-.65,1.06-.97,1.87-.97Z"/>
          <path id="DejaVuSans-4d-4" data-name="DejaVuSans-4d" d="M189.3,325.35h1.47l1.86,4.96,1.87-4.96h1.47v7.29h-.96v-6.4l-1.88,5h-.99l-1.88-5v6.4h-.96v-7.29Z"/>
        </g>
      </g>
    </g>
    <g id="xtick_5" data-name="xtick 5">
      <g id="line2d_5" data-name="line2d 5">
        <path id="m40bb3a9586-5" data-name="m40bb3a9586" class="cls-5" d="M86.62,318.04v3.5"/>
      </g>
      <g id="text_5" data-name="text 5">
        <g>
          <path id="DejaVuSans-32-2" data-name="DejaVuSans-32" d="M76.28,331.81h3.44v.83h-4.63v-.83c.37-.39.88-.91,1.53-1.56.65-.65,1.05-1.07,1.22-1.26.32-.35.54-.65.66-.9.13-.25.19-.49.19-.73,0-.39-.14-.7-.41-.95-.27-.24-.63-.37-1.06-.37-.31,0-.64.05-.98.16-.34.11-.71.27-1.1.49v-1c.4-.16.77-.28,1.11-.36.35-.08.66-.12.95-.12.76,0,1.36.19,1.81.57.45.38.67.88.67,1.51,0,.3-.06.58-.17.85-.11.27-.32.58-.61.95-.08.09-.34.37-.78.82-.44.45-1.05,1.08-1.85,1.89Z"/>
          <path id="DejaVuSans-2e-5" data-name="DejaVuSans-2e" d="M81.79,331.4h1.03v1.24h-1.03v-1.24Z"/>
          <path id="DejaVuSans-35-3" data-name="DejaVuSans-35" d="M84.98,325.35h3.87v.83h-2.97v1.79c.14-.05.29-.09.43-.11.14-.02.29-.04.43-.04.81,0,1.46.22,1.93.67.48.45.71,1.05.71,1.81s-.24,1.39-.73,1.83c-.49.43-1.18.65-2.07.65-.31,0-.62-.03-.94-.08-.32-.05-.64-.13-.98-.23v-.99c.29.16.6.28.91.36s.64.12.99.12c.56,0,1.01-.15,1.34-.44.33-.3.49-.7.49-1.21s-.16-.91-.49-1.2c-.33-.3-.77-.45-1.34-.45-.26,0-.53.03-.79.09-.26.06-.53.15-.8.27v-3.66Z"/>
          <path id="DejaVuSans-4d-5" data-name="DejaVuSans-4d" d="M91.24,325.35h1.47l1.86,4.96,1.87-4.96h1.47v7.29h-.96v-6.4l-1.88,5h-.99l-1.88-5v6.4h-.96v-7.29Z"/>
        </g>
      </g>
    </g>
    <g id="text_6" data-name="text 6">
      <g>
        <path id="DejaVuSans-54" d="M248.88,339.03h6.17v.83h-2.59v6.46h-.99v-6.46h-2.59v-.83Z"/>
        <path id="DejaVuSans-6f" d="M256.38,341.48c-.48,0-.86.19-1.14.56s-.42.89-.42,1.55.14,1.17.42,1.55c.28.38.66.56,1.15.56s.86-.19,1.14-.57c.28-.38.42-.89.42-1.54s-.14-1.16-.42-1.54c-.28-.38-.66-.57-1.14-.57ZM256.38,340.72c.78,0,1.39.25,1.84.76.45.51.67,1.21.67,2.11s-.22,1.6-.67,2.11c-.45.51-1.06.76-1.84.76s-1.4-.25-1.84-.76c-.44-.51-.67-1.21-.67-2.11s.22-1.6.67-2.11c.44-.51,1.06-.76,1.84-.76Z"/>
        <path id="DejaVuSans-74" d="M261.27,339.29v1.55h1.85v.7h-1.85v2.97c0,.45.06.73.18.86s.37.19.75.19h.92v.75h-.92c-.69,0-1.17-.13-1.44-.39-.26-.26-.4-.73-.4-1.41v-2.97h-.66v-.7h.66v-1.55h.9Z"/>
        <path id="DejaVuSans-61" d="M266.79,343.57c-.73,0-1.23.08-1.51.25s-.42.45-.42.85c0,.32.11.57.32.76.21.19.5.28.86.28.5,0,.9-.18,1.2-.53s.45-.82.45-1.41v-.2h-.89ZM268.58,343.2v3.12h-.9v-.83c-.21.33-.46.58-.77.73-.31.16-.68.24-1.12.24-.56,0-1-.16-1.34-.47-.33-.31-.5-.74-.5-1.26,0-.61.21-1.08.62-1.39.41-.31,1.03-.47,1.84-.47h1.26v-.09c0-.41-.14-.73-.41-.96s-.65-.34-1.15-.34c-.31,0-.62.04-.91.11-.3.08-.58.19-.85.34v-.83c.33-.13.65-.22.96-.28.31-.06.61-.1.9-.1.79,0,1.38.21,1.77.62.39.41.59,1.03.59,1.86Z"/>
        <path id="DejaVuSans-6c" d="M270.43,338.72h.9v7.6h-.9v-7.6Z"/>
        <path id="DejaVuSans-41" d="M278.86,340l-1.34,3.63h2.68l-1.34-3.63ZM278.31,339.03h1.12l2.78,7.29h-1.03l-.66-1.87h-3.29l-.66,1.87h-1.04l2.78-7.29Z"/>
        <path id="DejaVuSans-72" d="M286.4,341.69c-.1-.06-.21-.1-.33-.13-.12-.03-.25-.04-.39-.04-.51,0-.9.17-1.17.5s-.41.8-.41,1.42v2.88h-.9v-5.47h.9v.85c.19-.33.44-.58.74-.74.3-.16.67-.24,1.1-.24.06,0,.13,0,.2.01.08,0,.16.02.25.04v.92Z"/>
        <path id="DejaVuSans-65" d="M291.79,343.36v.44h-4.13c.04.62.23,1.09.56,1.41.33.32.8.49,1.39.49.34,0,.68-.04,1-.13s.65-.21.97-.38v.85c-.32.14-.65.24-.99.31s-.68.11-1.03.11c-.87,0-1.56-.25-2.07-.76-.51-.51-.76-1.2-.76-2.06s.24-1.6.73-2.13c.48-.53,1.14-.79,1.96-.79.74,0,1.32.24,1.75.71.43.47.64,1.12.64,1.93ZM290.89,343.09c0-.49-.14-.88-.41-1.18-.27-.29-.62-.44-1.07-.44-.5,0-.9.14-1.2.43s-.47.68-.52,1.2h3.2Z"/>
        <path id="DejaVuSans-61-2" data-name="DejaVuSans-61" d="M295.75,343.57c-.73,0-1.23.08-1.51.25s-.42.45-.42.85c0,.32.11.57.32.76.21.19.5.28.86.28.5,0,.9-.18,1.2-.53s.45-.82.45-1.41v-.2h-.89ZM297.54,343.2v3.12h-.9v-.83c-.21.33-.46.58-.77.73-.31.16-.68.24-1.12.24-.56,0-1-.16-1.34-.47-.33-.31-.5-.74-.5-1.26,0-.61.21-1.08.62-1.39.41-.31,1.03-.47,1.84-.47h1.26v-.09c0-.41-.14-.73-.41-.96s-.65-.34-1.15-.34c-.31,0-.62.04-.91.11-.3.08-.58.19-.85.34v-.83c.33-.13.65-.22.96-.28.31-.06.61-.1.9-.1.79,0,1.38.21,1.77.62.39.41.59,1.03.59,1.86Z"/>
        <path id="DejaVuSans-28" d="M304.73,338.73c-.44.75-.76,1.49-.97,2.22-.21.73-.32,1.47-.32,2.23s.11,1.5.32,2.23.54,1.48.97,2.23h-.78c-.49-.77-.85-1.52-1.1-2.26-.24-.74-.36-1.47-.36-2.2s.12-1.46.36-2.19c.24-.74.61-1.49,1.1-2.26h.78Z"/>
        <path id="DejaVuSans-4d-6" data-name="DejaVuSans-4d" d="M306.51,339.03h1.47l1.86,4.96,1.87-4.96h1.47v7.29h-.96v-6.4l-1.88,5h-.99l-1.88-5v6.4h-.96v-7.29Z"/>
        <path id="DejaVuSans-6b" d="M318.25,338.72h.9v4.49l2.68-2.36h1.15l-2.9,2.56,3.02,2.91h-1.17l-2.78-2.67v2.67h-.9v-7.6Z"/>
        <path id="DejaVuSans-6d" d="M328.33,341.9c.23-.4.49-.7.81-.89s.68-.29,1.1-.29c.57,0,1.01.2,1.32.6.31.4.46.96.46,1.7v3.3h-.9v-3.27c0-.52-.09-.91-.28-1.17-.19-.25-.47-.38-.85-.38-.47,0-.83.15-1.1.46-.27.31-.4.73-.4,1.26v3.09h-.9v-3.27c0-.53-.09-.92-.28-1.17s-.47-.38-.86-.38c-.46,0-.82.16-1.1.47-.27.31-.4.73-.4,1.26v3.09h-.9v-5.47h.9v.85c.21-.34.45-.58.74-.74s.63-.24,1.02-.24.74.1,1.01.3c.28.2.48.49.62.88Z"/>
        <path id="DejaVuSans-b2" d="M334.18,342.5h2.07v.56h-2.92v-.54c.11-.1.27-.24.47-.43,1.12-.99,1.68-1.64,1.68-1.95,0-.21-.08-.39-.25-.52-.17-.13-.39-.2-.67-.2-.17,0-.35.03-.55.09-.2.06-.41.14-.65.25v-.6c.25-.09.48-.16.7-.2.22-.05.42-.07.6-.07.47,0,.85.11,1.13.32.28.21.43.5.43.85,0,.45-.54,1.14-1.62,2.07-.18.16-.32.28-.42.37Z"/>
        <path id="DejaVuSans-29" d="M337.68,338.73h.78c.49.77.85,1.52,1.1,2.26.24.74.36,1.47.36,2.19s-.12,1.46-.36,2.2c-.24.74-.61,1.49-1.1,2.26h-.78c.43-.75.76-1.49.97-2.23.21-.74.32-1.48.32-2.23s-.11-1.49-.32-2.23c-.21-.73-.54-1.47-.97-2.22Z"/>
      </g>
    </g>
  </g>
  <g id="matplotlib.axis_2" data-name="matplotlib.axis 2">
    <g id="ytick_1" data-name="ytick 1">
      <g id="line2d_6" data-name="line2d 6">
        <path id="m5c122ee74a" class="cls-5" d="M44.66,275.1h-3.5"/>
      </g>
      <g id="text_7" data-name="text 7">
        <g>
          <path id="DejaVuSans-31-3" data-name="DejaVuSans-31" d="M26.18,278.07h1.61v-5.56l-1.75.35v-.9l1.74-.35h.99v6.46h1.61v.83h-4.2v-.83Z"/>
          <path id="DejaVuSans-36" d="M34.6,274.86c-.44,0-.79.15-1.05.45-.26.3-.39.72-.39,1.24s.13.94.39,1.24c.26.3.61.46,1.05.46s.79-.15,1.05-.46c.26-.31.39-.72.39-1.24s-.13-.94-.39-1.24c-.26-.3-.61-.45-1.05-.45ZM36.56,271.77v.9c-.25-.12-.5-.21-.75-.27-.25-.06-.5-.09-.75-.09-.65,0-1.15.22-1.49.66-.34.44-.54,1.1-.59,1.99.19-.28.43-.5.72-.65.29-.15.61-.23.96-.23.73,0,1.31.22,1.74.67.43.44.64,1.05.64,1.81s-.22,1.35-.66,1.8c-.44.45-1.03.68-1.77.68-.84,0-1.49-.32-1.93-.97-.45-.65-.67-1.58-.67-2.81,0-1.15.27-2.07.82-2.76.55-.69,1.28-1.03,2.2-1.03.25,0,.5.02.75.07s.52.12.79.22Z"/>
        </g>
      </g>
    </g>
    <g id="ytick_2" data-name="ytick 2">
      <g id="line2d_7" data-name="line2d 7">
        <path id="m5c122ee74a-2" data-name="m5c122ee74a" class="cls-5" d="M44.66,230.76h-3.5"/>
      </g>
      <g id="text_8" data-name="text 8">
        <g>
          <path id="DejaVuSans-31-4" data-name="DejaVuSans-31" d="M26.18,233.73h1.61v-5.56l-1.75.35v-.9l1.74-.35h.99v6.46h1.61v.83h-4.2v-.83Z"/>
          <path id="DejaVuSans-38" d="M34.48,231.1c-.47,0-.84.13-1.11.38-.27.25-.4.6-.4,1.03s.13.78.4,1.04c.27.25.64.38,1.11.38s.84-.13,1.11-.38c.27-.25.41-.6.41-1.03s-.13-.78-.4-1.03c-.27-.25-.64-.38-1.11-.38ZM33.49,230.68c-.42-.1-.75-.3-.99-.59-.24-.29-.35-.64-.35-1.06,0-.58.21-1.04.62-1.38.42-.34.98-.51,1.71-.51s1.3.17,1.71.51.62.8.62,1.38c0,.42-.12.77-.35,1.06-.24.29-.56.49-.98.59.48.11.84.33,1.11.65.27.32.4.72.4,1.18,0,.71-.22,1.25-.65,1.63-.43.38-1.05.57-1.85.57s-1.42-.19-1.85-.57c-.43-.38-.65-.92-.65-1.63,0-.46.13-.86.4-1.18.27-.32.64-.54,1.11-.65ZM33.13,229.12c0,.38.12.67.35.88.24.21.57.32.99.32s.76-.11.99-.32c.24-.21.36-.51.36-.88s-.12-.67-.36-.88c-.24-.21-.57-.32-.99-.32s-.76.11-.99.32c-.24.21-.35.51-.35.88Z"/>
        </g>
      </g>
    </g>
    <g id="ytick_3" data-name="ytick 3">
      <g id="line2d_8" data-name="line2d 8">
        <path id="m5c122ee74a-3" data-name="m5c122ee74a" class="cls-5" d="M44.66,186.43h-3.5"/>
      </g>
      <g id="text_9" data-name="text 9">
        <g>
          <path id="DejaVuSans-32-3" data-name="DejaVuSans-32" d="M26.85,189.4h3.44v.83h-4.63v-.83c.37-.39.88-.91,1.53-1.56.65-.65,1.05-1.07,1.22-1.26.32-.35.54-.65.66-.9.13-.25.19-.49.19-.73,0-.39-.14-.7-.41-.95-.27-.24-.63-.37-1.06-.37-.31,0-.64.05-.98.16-.34.11-.71.27-1.1.49v-1c.4-.16.77-.28,1.11-.36.35-.08.66-.12.95-.12.76,0,1.36.19,1.81.57.45.38.67.88.67,1.51,0,.3-.06.58-.17.85-.11.27-.32.58-.61.95-.08.09-.34.37-.78.82-.44.45-1.05,1.08-1.85,1.89Z"/>
          <path id="DejaVuSans-30-4" data-name="DejaVuSans-30" d="M34.48,183.58c-.51,0-.89.25-1.15.75-.26.5-.38,1.25-.38,2.25s.13,1.75.38,2.25c.26.5.64.75,1.15.75s.89-.25,1.15-.75c.26-.5.38-1.25.38-2.25s-.13-1.75-.38-2.25c-.26-.5-.64-.75-1.15-.75ZM34.48,182.8c.82,0,1.44.32,1.87.97.43.65.65,1.58.65,2.81s-.22,2.16-.65,2.81c-.43.65-1.06.97-1.87.97s-1.44-.32-1.87-.97c-.43-.65-.65-1.58-.65-2.81s.22-2.17.65-2.81c.43-.65,1.06-.97,1.87-.97Z"/>
        </g>
      </g>
    </g>
    <g id="ytick_4" data-name="ytick 4">
      <g id="line2d_9" data-name="line2d 9">
        <path id="m5c122ee74a-4" data-name="m5c122ee74a" class="cls-5" d="M44.66,142.09h-3.5"/>
      </g>
      <g id="text_10" data-name="text 10">
        <g>
          <path id="DejaVuSans-32-4" data-name="DejaVuSans-32" d="M26.85,145.06h3.44v.83h-4.63v-.83c.37-.39.88-.91,1.53-1.56.65-.65,1.05-1.07,1.22-1.26.32-.35.54-.65.66-.9.13-.25.19-.49.19-.73,0-.39-.14-.7-.41-.95-.27-.24-.63-.37-1.06-.37-.31,0-.64.05-.98.16-.34.11-.71.27-1.1.49v-1c.4-.16.77-.28,1.11-.36.35-.08.66-.12.95-.12.76,0,1.36.19,1.81.57.45.38.67.88.67,1.51,0,.3-.06.58-.17.85-.11.27-.32.58-.61.95-.08.09-.34.37-.78.82-.44.45-1.05,1.08-1.85,1.89Z"/>
          <path id="DejaVuSans-32-5" data-name="DejaVuSans-32" d="M33.22,145.06h3.44v.83h-4.63v-.83c.37-.39.88-.91,1.53-1.56.65-.65,1.05-1.07,1.22-1.26.32-.35.54-.65.66-.9.13-.25.19-.49.19-.73,0-.39-.14-.7-.41-.95-.27-.24-.63-.37-1.06-.37-.31,0-.64.05-.98.16-.34.11-.71.27-1.1.49v-1c.4-.16.77-.28,1.11-.36.35-.08.66-.12.95-.12.76,0,1.36.19,1.81.57.45.38.67.88.67,1.51,0,.3-.06.58-.17.85-.11.27-.32.58-.61.95-.08.09-.34.37-.78.82-.44.45-1.05,1.08-1.85,1.89Z"/>
        </g>
      </g>
    </g>
    <g id="ytick_5" data-name="ytick 5">
      <g id="line2d_10" data-name="line2d 10">
        <path id="m5c122ee74a-5" data-name="m5c122ee74a" class="cls-5" d="M44.66,97.75h-3.5"/>
      </g>
      <g id="text_11" data-name="text 11">
        <g>
          <path id="DejaVuSans-32-6" data-name="DejaVuSans-32" d="M26.85,100.72h3.44v.83h-4.63v-.83c.37-.39.88-.91,1.53-1.56.65-.65,1.05-1.07,1.22-1.26.32-.35.54-.65.66-.9.13-.25.19-.49.19-.73,0-.39-.14-.7-.41-.95-.27-.24-.63-.37-1.06-.37-.31,0-.64.05-.98.16-.34.11-.71.27-1.1.49v-1c.4-.16.77-.28,1.11-.36.35-.08.66-.12.95-.12.76,0,1.36.19,1.81.57.45.38.67.88.67,1.51,0,.3-.06.58-.17.85-.11.27-.32.58-.61.95-.08.09-.34.37-.78.82-.44.45-1.05,1.08-1.85,1.89Z"/>
          <path id="DejaVuSans-34" d="M35.08,95.12l-2.49,3.89h2.49v-3.89ZM34.82,94.26h1.24v4.75h1.04v.82h-1.04v1.72h-.98v-1.72h-3.29v-.95l3.03-4.62Z"/>
        </g>
      </g>
    </g>
    <g id="ytick_6" data-name="ytick 6">
      <g id="line2d_11" data-name="line2d 11">
        <path id="m5c122ee74a-6" data-name="m5c122ee74a" class="cls-5" d="M44.66,53.42h-3.5"/>
      </g>
      <g id="text_12" data-name="text 12">
        <g>
          <path id="DejaVuSans-32-7" data-name="DejaVuSans-32" d="M26.85,56.39h3.44v.83h-4.63v-.83c.37-.39.88-.91,1.53-1.56.65-.65,1.05-1.07,1.22-1.26.32-.35.54-.65.66-.9.13-.25.19-.49.19-.73,0-.39-.14-.7-.41-.95-.27-.24-.63-.37-1.06-.37-.31,0-.64.05-.98.16-.34.11-.71.27-1.1.49v-1c.4-.16.77-.28,1.11-.36.35-.08.66-.12.95-.12.76,0,1.36.19,1.81.57.45.38.67.88.67,1.51,0,.3-.06.58-.17.85-.11.27-.32.58-.61.95-.08.09-.34.37-.78.82-.44.45-1.05,1.08-1.85,1.89Z"/>
          <path id="DejaVuSans-36-2" data-name="DejaVuSans-36" d="M34.6,53.18c-.44,0-.79.15-1.05.45-.26.3-.39.72-.39,1.24s.13.94.39,1.24c.26.3.61.46,1.05.46s.79-.15,1.05-.46c.26-.31.39-.72.39-1.24s-.13-.94-.39-1.24c-.26-.3-.61-.45-1.05-.45ZM36.56,50.09v.9c-.25-.12-.5-.21-.75-.27-.25-.06-.5-.09-.75-.09-.65,0-1.15.22-1.49.66-.34.44-.54,1.1-.59,1.99.19-.28.43-.5.72-.65.29-.15.61-.23.96-.23.73,0,1.31.22,1.74.67.43.44.64,1.05.64,1.81s-.22,1.35-.66,1.8c-.44.45-1.03.68-1.77.68-.84,0-1.49-.32-1.93-.97-.45-.65-.67-1.58-.67-2.81,0-1.15.27-2.07.82-2.76.55-.69,1.28-1.03,2.2-1.03.25,0,.5.02.75.07s.52.12.79.22Z"/>
        </g>
      </g>
    </g>
    <g id="text_13" data-name="text 13">
      <g>
        <path id="DejaVuSans-25" d="M15.65,195.46c0,.28.12.51.36.67.24.16.58.24,1.01.24s.76-.08,1-.24c.24-.16.36-.38.36-.67s-.12-.5-.36-.66c-.24-.16-.58-.24-1-.24s-.76.08-1,.24c-.24.16-.36.38-.36.66ZM15.03,195.46c0-.51.18-.92.54-1.23.36-.3.84-.45,1.45-.45s1.09.15,1.45.46c.36.3.53.71.53,1.22s-.18.93-.53,1.24c-.36.3-.84.45-1.45.45s-1.1-.15-1.45-.46-.53-.72-.53-1.23ZM12.05,200.5c0,.28.12.5.36.66.24.16.57.24,1,.24s.76-.08,1.01-.24c.24-.16.36-.38.36-.66s-.12-.51-.36-.67c-.24-.16-.58-.24-1.01-.24s-.75.08-1,.24c-.24.16-.37.38-.37.66ZM11.43,196.09v-.78l7.56,4.56v.78l-7.56-4.56ZM11.43,200.5c0-.51.18-.92.53-1.23.36-.31.84-.46,1.45-.46s1.1.15,1.45.46c.36.3.53.72.53,1.23s-.18.93-.53,1.23c-.36.3-.84.45-1.45.45s-1.09-.15-1.45-.45c-.36-.3-.54-.71-.54-1.23Z"/>
        <path id="DejaVuSans-50" d="M12.38,188.08h2.74v-1.24c0-.46-.12-.81-.36-1.06-.24-.25-.58-.38-1.02-.38s-.77.13-1.01.38c-.24.25-.36.6-.36,1.06v1.24ZM11.56,189.06v-2.23c0-.82.18-1.44.55-1.85.37-.42.91-.63,1.62-.63s1.26.21,1.63.63c.37.42.55,1.04.55,1.85v1.24h2.93v.99h-7.29Z"/>
        <path id="DejaVuSans-72-2" data-name="DejaVuSans-72" d="M14.23,180.08c-.06.1-.1.21-.13.33-.03.12-.04.25-.04.39,0,.51.17.9.5,1.17s.8.41,1.42.41h2.88v.9h-5.47v-.9h.85c-.33-.19-.58-.44-.74-.74-.16-.3-.24-.67-.24-1.1,0-.06,0-.13.01-.2,0-.08.02-.16.04-.25h.92Z"/>
        <path id="DejaVuSans-6f-2" data-name="DejaVuSans-6f" d="M14.02,177.24c0,.48.19.86.56,1.14s.89.42,1.55.42,1.17-.14,1.55-.42c.38-.28.56-.66.56-1.15s-.19-.86-.57-1.14c-.38-.28-.89-.42-1.54-.42s-1.16.14-1.54.42c-.38.28-.57.66-.57,1.14ZM13.26,177.24c0-.78.25-1.39.76-1.84.51-.45,1.21-.67,2.11-.67s1.6.22,2.11.67c.51.45.76,1.06.76,1.84s-.25,1.4-.76,1.84c-.51.44-1.21.67-2.11.67s-1.6-.22-2.11-.67c-.51-.44-.76-1.06-.76-1.84Z"/>
        <path id="DejaVuSans-74-2" data-name="DejaVuSans-74" d="M11.83,172.35h1.55v-1.85h.7v1.85h2.97c.45,0,.73-.06.86-.18s.19-.37.19-.75v-.92h.75v.92c0,.69-.13,1.17-.39,1.44-.26.26-.73.4-1.41.4h-2.97v.66h-.7v-.66h-1.55v-.9Z"/>
        <path id="DejaVuSans-65-2" data-name="DejaVuSans-65" d="M15.9,164.64h.44v4.13c.62-.04,1.09-.23,1.41-.56.32-.33.49-.8.49-1.39,0-.34-.04-.68-.13-1s-.21-.65-.38-.97h.85c.14.32.24.65.31.99s.11.68.11,1.03c0,.87-.25,1.56-.76,2.07-.51.51-1.2.76-2.06.76s-1.6-.24-2.13-.73c-.53-.48-.79-1.14-.79-1.96,0-.74.24-1.32.71-1.75.47-.43,1.12-.64,1.93-.64ZM15.63,165.54c-.49,0-.88.14-1.18.41-.29.27-.44.62-.44,1.07,0,.5.14.9.43,1.2s.68.47,1.2.52v-3.2Z"/>
        <path id="DejaVuSans-63" d="M13.6,159.23h.84c-.14.25-.25.51-.32.76s-.1.51-.1.77c0,.58.18,1.04.55,1.36.37.32.89.48,1.55.48s1.19-.16,1.56-.48c.37-.32.55-.78.55-1.36,0-.26-.03-.52-.1-.77s-.18-.51-.32-.76h.83c.12.25.2.51.26.78.06.27.09.55.09.86,0,.82-.26,1.48-.78,1.96-.52.48-1.22.73-2.1.73s-1.59-.24-2.1-.73c-.51-.49-.77-1.16-.77-2.02,0-.28.03-.55.09-.81.06-.26.14-.52.25-.77Z"/>
        <path id="DejaVuSans-74-3" data-name="DejaVuSans-74" d="M11.83,156.78h1.55v-1.85h.7v1.85h2.97c.45,0,.73-.06.86-.18s.19-.37.19-.75v-.92h.75v.92c0,.69-.13,1.17-.39,1.44-.26.26-.73.4-1.41.4h-2.97v.66h-.7v-.66h-1.55v-.9Z"/>
        <path id="DejaVuSans-65-3" data-name="DejaVuSans-65" d="M15.9,149.07h.44v4.13c.62-.04,1.09-.23,1.41-.56.32-.33.49-.8.49-1.39,0-.34-.04-.68-.13-1s-.21-.65-.38-.97h.85c.14.32.24.65.31.99s.11.68.11,1.03c0,.87-.25,1.56-.76,2.07-.51.51-1.2.76-2.06.76s-1.6-.24-2.13-.73c-.53-.48-.79-1.14-.79-1.96,0-.74.24-1.32.71-1.75.47-.43,1.12-.64,1.93-.64ZM15.63,149.97c-.49,0-.88.14-1.18.41-.29.27-.44.62-.44,1.07,0,.5.14.9.43,1.2s.68.47,1.2.52v-3.2Z"/>
        <path id="DejaVuSans-64" d="M14.22,144h-2.96v-.9h7.6v.9h-.82c.33.19.57.43.73.72.16.29.24.63.24,1.04,0,.66-.26,1.2-.79,1.61-.53.41-1.22.62-2.08.62s-1.55-.21-2.08-.62c-.53-.42-.79-.95-.79-1.61,0-.4.08-.75.24-1.04.16-.29.4-.53.72-.72ZM16.13,147.06c.66,0,1.18-.14,1.55-.41.38-.27.56-.65.56-1.12s-.19-.85-.56-1.12c-.38-.27-.89-.41-1.55-.41s-1.18.14-1.55.41c-.38.27-.56.65-.56,1.12s.19.85.56,1.12.89.41,1.55.41Z"/>
      </g>
    </g>
  </g>
  <g id="patch_3" data-name="patch 3">
    <path class="cls-3" d="M44.66,318.04V26.88"/>
  </g>
  <g id="patch_5" data-name="patch 5">
    <path class="cls-3" d="M44.66,318.04h500.37"/>
  </g>
  <g id="text_14" data-name="text 14">
    <g>
      <path id="DejaVuSans-43" d="M531.8,30.4v.73c-.23-.22-.48-.38-.74-.48-.26-.11-.54-.16-.84-.16-.58,0-1.03.18-1.34.53s-.46.87-.46,1.55.15,1.19.46,1.54.76.53,1.34.53c.3,0,.58-.05.84-.16s.51-.27.74-.49v.72c-.24.16-.5.29-.77.37-.27.08-.55.12-.86.12-.77,0-1.38-.24-1.83-.71-.44-.47-.67-1.12-.67-1.94s.22-1.47.67-1.94c.44-.47,1.05-.71,1.83-.71.3,0,.59.04.86.12.27.08.52.2.76.36Z"/>
      <path id="DejaVuSans-61-3" data-name="DejaVuSans-61" d="M534.57,33.19c-.51,0-.86.06-1.06.17s-.29.31-.29.6c0,.22.07.4.22.53.15.13.35.2.6.2.35,0,.63-.12.84-.37s.32-.58.32-.99v-.14h-.63ZM535.83,32.93v2.18h-.63v-.58c-.14.23-.32.4-.54.51-.21.11-.48.17-.79.17-.39,0-.7-.11-.94-.33-.23-.22-.35-.51-.35-.88,0-.43.14-.75.43-.97.29-.22.72-.33,1.29-.33h.88v-.06c0-.29-.1-.51-.29-.67s-.46-.24-.8-.24c-.22,0-.43.03-.64.08-.21.05-.41.13-.6.24v-.58c.23-.09.45-.16.67-.2.22-.04.43-.07.63-.07.55,0,.97.14,1.24.43.27.29.41.72.41,1.3Z"/>
      <path id="DejaVuSans-6d-2" data-name="DejaVuSans-6d" d="M540.1,32.02c.16-.28.35-.49.56-.63s.48-.2.77-.2c.4,0,.71.14.92.42.22.28.32.68.32,1.19v2.31h-.63v-2.29c0-.37-.07-.64-.2-.82-.13-.18-.33-.27-.59-.27-.33,0-.58.11-.77.32-.19.22-.28.51-.28.88v2.16h-.63v-2.29c0-.37-.06-.64-.19-.82s-.33-.26-.6-.26c-.32,0-.58.11-.77.33-.19.22-.28.51-.28.88v2.16h-.63v-3.83h.63v.6c.14-.23.32-.41.52-.52s.44-.17.71-.17.52.07.71.21c.19.14.34.35.43.61Z"/>
      <path id="DejaVuSans-62" d="M546.69,33.2c0-.46-.1-.83-.29-1.09s-.45-.39-.78-.39-.6.13-.79.39-.29.63-.29,1.09.1.83.29,1.09c.19.26.45.39.79.39s.59-.13.78-.39c.19-.26.29-.63.29-1.09ZM544.55,31.87c.13-.23.3-.4.5-.51.2-.11.44-.17.72-.17.47,0,.84.18,1.13.55.29.37.44.85.44,1.46s-.15,1.09-.44,1.46c-.29.37-.67.55-1.13.55-.28,0-.52-.06-.72-.17-.2-.11-.37-.28-.5-.51v.57h-.63v-5.32h.63v2.07Z"/>
      <path id="DejaVuSans-6f-3" data-name="DejaVuSans-6f" d="M549.87,31.73c-.34,0-.6.13-.8.39s-.29.62-.29,1.08.1.82.29,1.08c.2.26.46.39.8.39s.6-.13.8-.4c.2-.26.29-.62.29-1.08s-.1-.81-.29-1.08c-.2-.27-.46-.4-.8-.4ZM549.87,31.19c.55,0,.98.18,1.29.53.31.36.47.85.47,1.48s-.16,1.12-.47,1.48c-.31.36-.74.53-1.29.53s-.98-.18-1.29-.53c-.31-.36-.47-.85-.47-1.48s.16-1.12.47-1.48c.31-.36.74-.53,1.29-.53Z"/>
      <path id="DejaVuSans-64-2" data-name="DejaVuSans-64" d="M555.19,31.87v-2.07h.63v5.32h-.63v-.57c-.13.23-.3.4-.5.51-.2.11-.44.17-.73.17-.46,0-.84-.18-1.13-.55-.29-.37-.44-.86-.44-1.46s.15-1.09.44-1.46c.29-.37.67-.55,1.13-.55.28,0,.53.06.73.17.2.11.37.28.5.51ZM553.04,33.2c0,.46.1.83.29,1.09.19.26.45.39.78.39s.59-.13.79-.39c.19-.26.29-.63.29-1.09s-.1-.83-.29-1.09c-.19-.26-.45-.39-.79-.39s-.59.13-.78.39-.29.63-.29,1.09Z"/>
      <path id="DejaVuSans-69" d="M557.11,31.29h.63v3.83h-.63v-3.83ZM557.11,29.8h.63v.8h-.63v-.8Z"/>
      <path id="DejaVuSans-61-4" data-name="DejaVuSans-61" d="M560.8,33.19c-.51,0-.86.06-1.06.17s-.29.31-.29.6c0,.22.07.4.22.53.15.13.35.2.6.2.35,0,.63-.12.84-.37s.32-.58.32-.99v-.14h-.63ZM562.05,32.93v2.18h-.63v-.58c-.14.23-.32.4-.54.51-.21.11-.48.17-.79.17-.39,0-.7-.11-.94-.33-.23-.22-.35-.51-.35-.88,0-.43.14-.75.43-.97.29-.22.72-.33,1.29-.33h.88v-.06c0-.29-.1-.51-.29-.67s-.46-.24-.8-.24c-.22,0-.43.03-.64.08-.21.05-.41.13-.6.24v-.58c.23-.09.45-.16.67-.2.22-.04.43-.07.63-.07.55,0,.97.14,1.24.43.27.29.41.72.41,1.3Z"/>
    </g>
  </g>
  <g id="text_15" data-name="text 15">
    <g>
      <path id="DejaVuSans-53" d="M76.15,212.4v.67c-.26-.13-.51-.22-.74-.28-.23-.06-.46-.09-.67-.09-.38,0-.67.07-.87.22-.2.15-.31.35-.31.62,0,.23.07.4.2.51.14.11.39.21.77.28l.42.09c.51.1.89.27,1.14.52s.37.58.37.99c0,.5-.17.87-.5,1.13-.33.26-.82.38-1.46.38-.24,0-.5-.03-.77-.08-.27-.05-.55-.14-.85-.24v-.71c.28.16.55.28.82.36.27.08.53.12.79.12.39,0,.7-.08.91-.23.21-.16.32-.38.32-.66,0-.25-.08-.45-.23-.59s-.41-.25-.76-.32l-.42-.08c-.51-.1-.89-.26-1.12-.48-.23-.22-.34-.52-.34-.91,0-.45.16-.81.48-1.07.32-.26.76-.39,1.31-.39.24,0,.48.02.73.07.25.04.5.11.76.19Z"/>
      <path id="DejaVuSans-61-5" data-name="DejaVuSans-61" d="M79.25,215.42c-.51,0-.86.06-1.06.17s-.29.31-.29.6c0,.22.07.4.22.53.15.13.35.2.6.2.35,0,.63-.12.84-.37s.32-.58.32-.99v-.14h-.63ZM80.5,215.15v2.18h-.63v-.58c-.14.23-.32.4-.54.51-.21.11-.48.17-.79.17-.39,0-.7-.11-.94-.33-.23-.22-.35-.51-.35-.88,0-.43.14-.75.43-.97.29-.22.72-.33,1.29-.33h.88v-.06c0-.29-.1-.51-.29-.67s-.46-.24-.8-.24c-.22,0-.43.03-.64.08-.21.05-.41.13-.6.24v-.58c.23-.09.45-.16.67-.2.22-.04.43-.07.63-.07.55,0,.97.14,1.24.43.27.29.41.72.41,1.3Z"/>
      <path id="DejaVuSans-75" d="M81.73,215.83v-2.32h.63v2.29c0,.36.07.63.21.82.14.18.35.27.64.27.34,0,.61-.11.8-.32.2-.22.3-.51.3-.89v-2.17h.63v3.83h-.63v-.59c-.15.23-.33.41-.53.52-.2.11-.44.17-.7.17-.44,0-.77-.14-1-.41-.23-.27-.34-.67-.34-1.2ZM83.31,213.42h0Z"/>
      <path id="DejaVuSans-64-3" data-name="DejaVuSans-64" d="M88.75,214.09v-2.07h.63v5.32h-.63v-.57c-.13.23-.3.4-.5.51-.2.11-.44.17-.73.17-.46,0-.84-.18-1.13-.55-.29-.37-.44-.86-.44-1.46s.15-1.09.44-1.46c.29-.37.67-.55,1.13-.55.28,0,.53.06.73.17.2.11.37.28.5.51ZM86.61,215.43c0,.46.1.83.29,1.09.19.26.45.39.78.39s.59-.13.79-.39c.19-.26.29-.63.29-1.09s-.1-.83-.29-1.09c-.19-.26-.45-.39-.79-.39s-.59.13-.78.39-.29.63-.29,1.09Z"/>
      <path id="DejaVuSans-69-2" data-name="DejaVuSans-69" d="M90.68,213.51h.63v3.83h-.63v-3.83ZM90.68,212.02h.63v.8h-.63v-.8Z"/>
      <path id="DejaVuSans-41-2" data-name="DejaVuSans-41" d="M96.58,212.92l-.94,2.54h1.88l-.94-2.54ZM96.19,212.24h.78l1.94,5.1h-.72l-.46-1.31h-2.3l-.46,1.31h-.73l1.95-5.1Z"/>
      <path id="DejaVuSans-72-3" data-name="DejaVuSans-72" d="M101.85,214.1c-.07-.04-.15-.07-.23-.09-.08-.02-.17-.03-.27-.03-.36,0-.63.12-.82.35s-.29.56-.29,1v2.02h-.63v-3.83h.63v.6c.13-.23.3-.41.52-.52.21-.11.47-.17.77-.17.04,0,.09,0,.14,0,.05,0,.11.01.17.03v.65Z"/>
      <path id="DejaVuSans-61-6" data-name="DejaVuSans-61" d="M104.25,215.42c-.51,0-.86.06-1.06.17s-.29.31-.29.6c0,.22.07.4.22.53.15.13.35.2.6.2.35,0,.63-.12.84-.37s.32-.58.32-.99v-.14h-.63ZM105.51,215.15v2.18h-.63v-.58c-.14.23-.32.4-.54.51-.21.11-.48.17-.79.17-.39,0-.7-.11-.94-.33-.23-.22-.35-.51-.35-.88,0-.43.14-.75.43-.97.29-.22.72-.33,1.29-.33h.88v-.06c0-.29-.1-.51-.29-.67s-.46-.24-.8-.24c-.22,0-.43.03-.64.08-.21.05-.41.13-.6.24v-.58c.23-.09.45-.16.67-.2.22-.04.43-.07.63-.07.55,0,.97.14,1.24.43.27.29.41.72.41,1.3Z"/>
      <path id="DejaVuSans-62-2" data-name="DejaVuSans-62" d="M109.55,215.43c0-.46-.1-.83-.29-1.09s-.45-.39-.78-.39-.6.13-.79.39-.29.63-.29,1.09.1.83.29,1.09c.19.26.45.39.79.39s.59-.13.78-.39c.19-.26.29-.63.29-1.09ZM107.41,214.09c.13-.23.3-.4.5-.51.2-.11.44-.17.72-.17.47,0,.84.18,1.13.55.29.37.44.85.44,1.46s-.15,1.09-.44,1.46c-.29.37-.67.55-1.13.55-.28,0-.52-.06-.72-.17-.2-.11-.37-.28-.5-.51v.57h-.63v-5.32h.63v2.07Z"/>
      <path id="DejaVuSans-69-3" data-name="DejaVuSans-69" d="M111.25,213.51h.63v3.83h-.63v-3.83ZM111.25,212.02h.63v.8h-.63v-.8Z"/>
      <path id="DejaVuSans-61-7" data-name="DejaVuSans-61" d="M114.93,215.42c-.51,0-.86.06-1.06.17s-.29.31-.29.6c0,.22.07.4.22.53.15.13.35.2.6.2.35,0,.63-.12.84-.37s.32-.58.32-.99v-.14h-.63ZM116.19,215.15v2.18h-.63v-.58c-.14.23-.32.4-.54.51-.21.11-.48.17-.79.17-.39,0-.7-.11-.94-.33-.23-.22-.35-.51-.35-.88,0-.43.14-.75.43-.97.29-.22.72-.33,1.29-.33h.88v-.06c0-.29-.1-.51-.29-.67s-.46-.24-.8-.24c-.22,0-.43.03-.64.08-.21.05-.41.13-.6.24v-.58c.23-.09.45-.16.67-.2.22-.04.43-.07.63-.07.55,0,.97.14,1.24.43.27.29.41.72.41,1.3Z"/>
    </g>
  </g>
  <g id="text_16" data-name="text 16">
    <g>
      <path id="DejaVuSans-4f" d="M305.69,295.17c-.5,0-.9.19-1.2.56-.29.37-.44.88-.44,1.53s.15,1.15.44,1.52c.3.37.69.56,1.2.56s.9-.19,1.19-.56c.29-.37.44-.88.44-1.52s-.15-1.15-.44-1.53c-.29-.37-.69-.56-1.19-.56ZM305.69,294.61c.72,0,1.29.24,1.72.72.43.48.64,1.12.64,1.93s-.21,1.45-.64,1.93c-.43.48-1,.72-1.72.72s-1.29-.24-1.72-.72c-.43-.48-.64-1.12-.64-1.93s.21-1.45.64-1.93c.43-.48,1-.72,1.72-.72Z"/>
      <path id="DejaVuSans-6d-3" data-name="DejaVuSans-6d" d="M312.08,296.71c.16-.28.35-.49.56-.63s.48-.2.77-.2c.4,0,.71.14.92.42.22.28.32.68.32,1.19v2.31h-.63v-2.29c0-.37-.07-.64-.2-.82-.13-.18-.33-.27-.59-.27-.33,0-.58.11-.77.32-.19.22-.28.51-.28.88v2.16h-.63v-2.29c0-.37-.06-.64-.19-.82s-.33-.26-.6-.26c-.32,0-.58.11-.77.33-.19.22-.28.51-.28.88v2.16h-.63v-3.83h.63v.6c.14-.23.32-.41.52-.52s.44-.17.71-.17.52.07.71.21c.19.14.34.35.43.61Z"/>
      <path id="DejaVuSans-61-8" data-name="DejaVuSans-61" d="M317.66,297.88c-.51,0-.86.06-1.06.17s-.29.31-.29.6c0,.22.07.4.22.53.15.13.35.2.6.2.35,0,.63-.12.84-.37s.32-.58.32-.99v-.14h-.63ZM318.91,297.62v2.18h-.63v-.58c-.14.23-.32.4-.54.51-.21.11-.48.17-.79.17-.39,0-.7-.11-.94-.33-.23-.22-.35-.51-.35-.88,0-.43.14-.75.43-.97.29-.22.72-.33,1.29-.33h.88v-.06c0-.29-.1-.51-.29-.67s-.46-.24-.8-.24c-.22,0-.43.03-.64.08-.21.05-.41.13-.6.24v-.58c.23-.09.45-.16.67-.2.22-.04.43-.07.63-.07.55,0,.97.14,1.24.43.27.29.41.72.41,1.3Z"/>
      <path id="DejaVuSans-6e" d="M323.39,297.49v2.31h-.63v-2.29c0-.36-.07-.63-.21-.81-.14-.18-.35-.27-.64-.27-.34,0-.61.11-.8.32-.2.22-.29.51-.29.88v2.16h-.63v-3.83h.63v.6c.15-.23.33-.4.53-.52.2-.11.44-.17.71-.17.44,0,.77.14,1,.41.23.27.34.67.34,1.2Z"/>
    </g>
  </g>
  <g id="text_17" data-name="text 17">
    <g>
      <path id="DejaVuSans-Bold-41" class="cls-6" d="M286.94,19.29h-3.53l-.56,1.59h-2.27l3.24-8.75h2.69l3.24,8.75h-2.27l-.55-1.59ZM283.97,17.66h2.4l-1.2-3.48-1.2,3.48Z"/>
      <path id="DejaVuSans-Bold-73" class="cls-6" d="M295.95,14.52v1.59c-.45-.19-.88-.33-1.3-.42-.42-.09-.81-.14-1.18-.14-.4,0-.69.05-.89.15-.19.1-.29.25-.29.46,0,.17.07.3.22.39.15.09.41.16.79.2l.37.05c1.07.14,1.8.36,2.17.67.37.31.56.8.56,1.47s-.26,1.22-.77,1.58c-.52.35-1.28.53-2.31.53-.43,0-.88-.03-1.35-.1-.46-.07-.94-.17-1.43-.31v-1.59c.42.2.85.35,1.29.46.44.1.89.15,1.34.15.41,0,.72-.06.93-.17.21-.11.31-.28.31-.51,0-.19-.07-.33-.21-.42s-.43-.16-.85-.21l-.37-.05c-.93-.12-1.59-.33-1.96-.65s-.56-.8-.56-1.44c0-.7.24-1.21.71-1.54.48-.34,1.21-.5,2.19-.5.39,0,.79.03,1.22.09.43.06.89.15,1.39.27Z"/>
      <path id="DejaVuSans-Bold-69" class="cls-6" d="M297.96,14.32h2.1v6.56h-2.1v-6.56ZM297.96,11.76h2.1v1.71h-2.1v-1.71Z"/>
      <path id="DejaVuSans-Bold-61" class="cls-6" d="M305.02,17.93c-.44,0-.77.07-.99.22-.22.15-.33.37-.33.66,0,.26.09.47.27.62.18.15.43.22.74.22.39,0,.73-.14,1-.42.27-.28.4-.64.4-1.06v-.24h-1.09ZM308.22,17.14v3.74h-2.11v-.97c-.28.4-.6.69-.95.87-.35.18-.78.27-1.28.27-.68,0-1.23-.2-1.66-.59-.42-.4-.64-.91-.64-1.54,0-.77.26-1.33.79-1.69.53-.36,1.36-.54,2.49-.54h1.24v-.16c0-.33-.13-.58-.39-.73-.26-.16-.67-.23-1.22-.23-.45,0-.87.04-1.25.13-.39.09-.75.22-1.08.4v-1.6c.45-.11.9-.19,1.35-.25.45-.06.91-.08,1.36-.08,1.18,0,2.04.23,2.56.7.53.47.79,1.22.79,2.28Z"/>
    </g>
  </g>
</svg>