<?xml version="1.0" encoding="UTF-8"?>
<svg id="Layer_1" data-name="Layer 1" xmlns="http://www.w3.org/2000/svg" viewBox="0 0 576 360">
  <defs>
    <style>
      .cls-1 {
        fill: #fff;
      }

      .cls-2, .cls-3 {
        fill: none;
      }

      .cls-4 {
        stroke: #66c2a5;
      }

      .cls-4, .cls-5 {
        fill: #66c2a5;
      }

      .cls-4, .cls-6 {
        stroke-linejoin: round;
      }

      .cls-3 {
        stroke-linecap: square;
      }

      .cls-3, .cls-6 {
        stroke: #000;
        stroke-width: .8px;
      }
    </style>
  </defs>
  <g id="patch_1" data-name="patch 1">
    <path class="cls-1" d="M0,360h576V0H0v360Z"/>
  </g>
  <g id="patch_2" data-name="patch 2">
    <path class="cls-1" d="M44.57,318.04h494.75V26.88H44.57v291.16Z"/>
  </g>
  <g id="PathCollection_1" data-name="PathCollection 1">
    <rect class="cls-2" x="44.57" y="26.88" width="494.75" height="291.16"/>
    <g>
      <path id="m6a94db7e4c" class="cls-4" d="M516.84,44.59c1.19,0,2.32-.47,3.16-1.31.84-.84,1.31-1.98,1.31-3.16s-.47-2.32-1.31-3.16c-.84-.84-1.98-1.31-3.16-1.31s-2.32.47-3.16,1.31c-.84.84-1.31,1.98-1.31,3.16s.47,2.32,1.31,3.16c.84.84,1.98,1.31,3.16,1.31Z"/>
      <path id="m6a94db7e4c-2" data-name="m6a94db7e4c" class="cls-4" d="M435.89,54.73c1.19,0,2.32-.47,3.16-1.31.84-.84,1.31-1.98,1.31-3.16s-.47-2.32-1.31-3.16c-.84-.84-1.98-1.31-3.16-1.31s-2.32.47-3.16,1.31c-.84.84-1.31,1.98-1.31,3.16s.47,2.32,1.31,3.16c.84.84,1.98,1.31,3.16,1.31Z"/>
      <path id="m6a94db7e4c-3" data-name="m6a94db7e4c" class="cls-4" d="M499.31,165.77c1.19,0,2.32-.47,3.16-1.31.84-.84,1.31-1.98,1.31-3.16s-.47-2.32-1.31-3.16c-.84-.84-1.98-1.31-3.16-1.31s-2.32.47-3.16,1.31c-.84.84-1.31,1.98-1.31,3.16s.47,2.32,1.31,3.16c.84.84,1.98,1.31,3.16,1.31Z"/>
      <path id="m6a94db7e4c-4" data-name="m6a94db7e4c" class="cls-4" d="M453.29,182c1.19,0,2.32-.47,3.16-1.31.84-.84,1.31-1.98,1.31-3.16s-.47-2.32-1.31-3.16c-.84-.84-1.98-1.31-3.16-1.31s-2.32.47-3.16,1.31c-.84.84-1.31,1.98-1.31,3.16s.47,2.32,1.31,3.16c.84.84,1.98,1.31,3.16,1.31Z"/>
      <path id="m6a94db7e4c-5" data-name="m6a94db7e4c" class="cls-4" d="M488.12,224.34c1.19,0,2.32-.47,3.16-1.31.84-.84,1.31-1.98,1.31-3.16s-.47-2.32-1.31-3.16c-.84-.84-1.98-1.31-3.16-1.31s-2.32.47-3.16,1.31c-.84.84-1.31,1.98-1.31,3.16s.47,2.32,1.31,3.16c.84.84,1.98,1.31,3.16,1.31Z"/>
      <path id="m6a94db7e4c-6" data-name="m6a94db7e4c" class="cls-4" d="M430.36,253.58c1.19,0,2.32-.47,3.16-1.31.84-.84,1.31-1.98,1.31-3.16s-.47-2.32-1.31-3.16c-.84-.84-1.98-1.31-3.16-1.31s-2.32.47-3.16,1.31c-.84.84-1.31,1.98-1.31,3.16s.47,2.32,1.31,3.16c.84.84,1.98,1.31,3.16,1.31Z"/>
      <path id="m6a94db7e4c-7" data-name="m6a94db7e4c" class="cls-4" d="M506.35,264.11c1.19,0,2.32-.47,3.16-1.31.84-.84,1.31-1.98,1.31-3.16s-.47-2.32-1.31-3.16c-.84-.84-1.98-1.31-3.16-1.31s-2.32.47-3.16,1.31c-.84.84-1.31,1.98-1.31,3.16s.47,2.32,1.31,3.16c.84.84,1.98,1.31,3.16,1.31Z"/>
      <path id="m6a94db7e4c-8" data-name="m6a94db7e4c" class="cls-4" d="M498.76,267.9c1.19,0,2.32-.47,3.16-1.31.84-.84,1.31-1.98,1.31-3.16s-.47-2.32-1.31-3.16c-.84-.84-1.98-1.31-3.16-1.31s-2.32.47-3.16,1.31c-.84.84-1.31,1.98-1.31,3.16s.47,2.32,1.31,3.16c.84.84,1.98,1.31,3.16,1.31Z"/>
      <path id="m6a94db7e4c-9" data-name="m6a94db7e4c" class="cls-4" d="M515.39,278.56c1.19,0,2.32-.47,3.16-1.31.84-.84,1.31-1.98,1.31-3.16s-.47-2.32-1.31-3.16c-.84-.84-1.98-1.31-3.16-1.31s-2.32.47-3.16,1.31c-.84.84-1.31,1.98-1.31,3.16s.47,2.32,1.31,3.16c.84.84,1.98,1.31,3.16,1.31Z"/>
      <path id="m6a94db7e4c-10" data-name="m6a94db7e4c" class="cls-4" d="M513.8,283.13c1.19,0,2.32-.47,3.16-1.31.84-.84,1.31-1.98,1.31-3.16s-.47-2.32-1.31-3.16c-.84-.84-1.98-1.31-3.16-1.31s-2.32.47-3.16,1.31c-.84.84-1.31,1.98-1.31,3.16s.47,2.32,1.31,3.16c.84.84,1.98,1.31,3.16,1.31Z"/>
      <path id="m6a94db7e4c-11" data-name="m6a94db7e4c" class="cls-4" d="M467.03,283.34c1.19,0,2.32-.47,3.16-1.31.84-.84,1.31-1.98,1.31-3.16s-.47-2.32-1.31-3.16c-.84-.84-1.98-1.31-3.16-1.31s-2.32.47-3.16,1.31c-.84.84-1.31,1.98-1.31,3.16s.47,2.32,1.31,3.16c.84.84,1.98,1.31,3.16,1.31Z"/>
      <path id="m6a94db7e4c-12" data-name="m6a94db7e4c" class="cls-4" d="M383.68,290.83c1.19,0,2.32-.47,3.16-1.31.84-.84,1.31-1.98,1.31-3.16s-.47-2.32-1.31-3.16c-.84-.84-1.98-1.31-3.16-1.31s-2.32.47-3.16,1.31c-.84.84-1.31,1.98-1.31,3.16s.47,2.32,1.31,3.16c.84.84,1.98,1.31,3.16,1.31Z"/>
      <path id="m6a94db7e4c-13" data-name="m6a94db7e4c" class="cls-4" d="M490.5,294.09c1.19,0,2.32-.47,3.16-1.31.84-.84,1.31-1.98,1.31-3.16s-.47-2.32-1.31-3.16c-.84-.84-1.98-1.31-3.16-1.31s-2.32.47-3.16,1.31c-.84.84-1.31,1.98-1.31,3.16s.47,2.32,1.31,3.16c.84.84,1.98,1.31,3.16,1.31Z"/>
      <path id="m6a94db7e4c-14" data-name="m6a94db7e4c" class="cls-4" d="M515.78,299.84c1.19,0,2.32-.47,3.16-1.31.84-.84,1.31-1.98,1.31-3.16s-.47-2.32-1.31-3.16c-.84-.84-1.98-1.31-3.16-1.31s-2.32.47-3.16,1.31c-.84.84-1.31,1.98-1.31,3.16s.47,2.32,1.31,3.16c.84.84,1.98,1.31,3.16,1.31Z"/>
      <path id="m6a94db7e4c-15" data-name="m6a94db7e4c" class="cls-4" d="M67.06,309.28c1.19,0,2.32-.47,3.16-1.31.84-.84,1.31-1.98,1.31-3.16s-.47-2.32-1.31-3.16c-.84-.84-1.98-1.31-3.16-1.31s-2.32.47-3.16,1.31c-.84.84-1.31,1.98-1.31,3.16s.47,2.32,1.31,3.16c.84.84,1.98,1.31,3.16,1.31Z"/>
    </g>
  </g>
  <g id="matplotlib.axis_1" data-name="matplotlib.axis 1">
    <g id="xtick_1" data-name="xtick 1">
      <g id="line2d_1" data-name="line2d 1">
        <path id="m138d6d9903" class="cls-6" d="M520.56,318.04v3.5"/>
      </g>
      <g id="text_1" data-name="text 1">
        <g>
          <path id="DejaVuSans-30" d="M511.47,326c-.51,0-.89.25-1.15.75-.26.5-.38,1.25-.38,2.25s.13,1.75.38,2.25c.26.5.64.75,1.15.75s.89-.25,1.15-.75c.26-.5.38-1.25.38-2.25s-.13-1.75-.38-2.25c-.26-.5-.64-.75-1.15-.75ZM511.47,325.22c.82,0,1.44.32,1.87.97.43.65.65,1.58.65,2.81s-.22,2.16-.65,2.81c-.43.65-1.06.97-1.87.97s-1.44-.32-1.87-.97c-.43-.65-.65-1.58-.65-2.81s.22-2.17.65-2.81c.43-.65,1.06-.97,1.87-.97Z"/>
          <path id="DejaVuSans-2e" d="M515.72,331.4h1.03v1.24h-1.03v-1.24Z"/>
          <path id="DejaVuSans-30-2" data-name="DejaVuSans-30" d="M521.01,326c-.51,0-.89.25-1.15.75-.26.5-.38,1.25-.38,2.25s.13,1.75.38,2.25c.26.5.64.75,1.15.75s.89-.25,1.15-.75c.26-.5.38-1.25.38-2.25s-.13-1.75-.38-2.25c-.26-.5-.64-.75-1.15-.75ZM521.01,325.22c.82,0,1.44.32,1.87.97.43.65.65,1.58.65,2.81s-.22,2.16-.65,2.81c-.43.65-1.06.97-1.87.97s-1.44-.32-1.87-.97c-.43-.65-.65-1.58-.65-2.81s.22-2.17.65-2.81c.43-.65,1.06-.97,1.87-.97Z"/>
          <path id="DejaVuSans-4d" d="M525.18,325.35h1.47l1.86,4.96,1.87-4.96h1.47v7.29h-.96v-6.4l-1.88,5h-.99l-1.88-5v6.4h-.96v-7.29Z"/>
        </g>
      </g>
    </g>
    <g id="xtick_2" data-name="xtick 2">
      <g id="line2d_2" data-name="line2d 2">
        <path id="m138d6d9903-2" data-name="m138d6d9903" class="cls-6" d="M430.63,318.04v3.5"/>
      </g>
      <g id="text_2" data-name="text 2">
        <g>
          <path id="DejaVuSans-30-3" data-name="DejaVuSans-30" d="M421.55,326c-.51,0-.89.25-1.15.75-.26.5-.38,1.25-.38,2.25s.13,1.75.38,2.25c.26.5.64.75,1.15.75s.89-.25,1.15-.75c.26-.5.38-1.25.38-2.25s-.13-1.75-.38-2.25c-.26-.5-.64-.75-1.15-.75ZM421.55,325.22c.82,0,1.44.32,1.87.97.43.65.65,1.58.65,2.81s-.22,2.16-.65,2.81c-.43.65-1.06.97-1.87.97s-1.44-.32-1.87-.97c-.43-.65-.65-1.58-.65-2.81s.22-2.17.65-2.81c.43-.65,1.06-.97,1.87-.97Z"/>
          <path id="DejaVuSans-2e-2" data-name="DejaVuSans-2e" d="M425.8,331.4h1.03v1.24h-1.03v-1.24Z"/>
          <path id="DejaVuSans-35" d="M428.99,325.35h3.87v.83h-2.97v1.79c.14-.05.29-.09.43-.11.14-.02.29-.04.43-.04.81,0,1.46.22,1.93.67.48.45.71,1.05.71,1.81s-.24,1.39-.73,1.83c-.49.43-1.18.65-2.07.65-.31,0-.62-.03-.94-.08-.32-.05-.64-.13-.98-.23v-.99c.29.16.6.28.91.36s.64.12.99.12c.56,0,1.01-.15,1.34-.44.33-.3.49-.7.49-1.21s-.16-.91-.49-1.2c-.33-.3-.77-.45-1.34-.45-.26,0-.53.03-.79.09-.26.06-.53.15-.8.27v-3.66Z"/>
          <path id="DejaVuSans-4d-2" data-name="DejaVuSans-4d" d="M435.25,325.35h1.47l1.86,4.96,1.87-4.96h1.47v7.29h-.96v-6.4l-1.88,5h-.99l-1.88-5v6.4h-.96v-7.29Z"/>
        </g>
      </g>
    </g>
    <g id="xtick_3" data-name="xtick 3">
      <g id="line2d_3" data-name="line2d 3">
        <path id="m138d6d9903-3" data-name="m138d6d9903" class="cls-6" d="M340.71,318.04v3.5"/>
      </g>
      <g id="text_3" data-name="text 3">
        <g>
          <path id="DejaVuSans-31" d="M329.68,331.81h1.61v-5.56l-1.75.35v-.9l1.74-.35h.99v6.46h1.61v.83h-4.2v-.83Z"/>
          <path id="DejaVuSans-2e-3" data-name="DejaVuSans-2e" d="M335.87,331.4h1.03v1.24h-1.03v-1.24Z"/>
          <path id="DejaVuSans-30-4" data-name="DejaVuSans-30" d="M341.16,326c-.51,0-.89.25-1.15.75-.26.5-.38,1.25-.38,2.25s.13,1.75.38,2.25c.26.5.64.75,1.15.75s.89-.25,1.15-.75c.26-.5.38-1.25.38-2.25s-.13-1.75-.38-2.25c-.26-.5-.64-.75-1.15-.75ZM341.16,325.22c.82,0,1.44.32,1.87.97.43.65.65,1.58.65,2.81s-.22,2.16-.65,2.81c-.43.65-1.06.97-1.87.97s-1.44-.32-1.87-.97c-.43-.65-.65-1.58-.65-2.81s.22-2.17.65-2.81c.43-.65,1.06-.97,1.87-.97Z"/>
          <path id="DejaVuSans-4d-3" data-name="DejaVuSans-4d" d="M345.33,325.35h1.47l1.86,4.96,1.87-4.96h1.47v7.29h-.96v-6.4l-1.88,5h-.99l-1.88-5v6.4h-.96v-7.29Z"/>
        </g>
      </g>
    </g>
    <g id="xtick_4" data-name="xtick 4">
      <g id="line2d_4" data-name="line2d 4">
        <path id="m138d6d9903-4" data-name="m138d6d9903" class="cls-6" d="M250.78,318.04v3.5"/>
      </g>
      <g id="text_4" data-name="text 4">
        <g>
          <path id="DejaVuSans-31-2" data-name="DejaVuSans-31" d="M239.76,331.81h1.61v-5.56l-1.75.35v-.9l1.74-.35h.99v6.46h1.61v.83h-4.2v-.83Z"/>
          <path id="DejaVuSans-2e-4" data-name="DejaVuSans-2e" d="M245.95,331.4h1.03v1.24h-1.03v-1.24Z"/>
          <path id="DejaVuSans-35-2" data-name="DejaVuSans-35" d="M249.14,325.35h3.87v.83h-2.97v1.79c.14-.05.29-.09.43-.11.14-.02.29-.04.43-.04.81,0,1.46.22,1.93.67.48.45.71,1.05.71,1.81s-.24,1.39-.73,1.83c-.49.43-1.18.65-2.07.65-.31,0-.62-.03-.94-.08-.32-.05-.64-.13-.98-.23v-.99c.29.16.6.28.91.36s.64.12.99.12c.56,0,1.01-.15,1.34-.44.33-.3.49-.7.49-1.21s-.16-.91-.49-1.2c-.33-.3-.77-.45-1.34-.45-.26,0-.53.03-.79.09-.26.06-.53.15-.8.27v-3.66Z"/>
          <path id="DejaVuSans-4d-4" data-name="DejaVuSans-4d" d="M255.4,325.35h1.47l1.86,4.96,1.87-4.96h1.47v7.29h-.96v-6.4l-1.88,5h-.99l-1.88-5v6.4h-.96v-7.29Z"/>
        </g>
      </g>
    </g>
    <g id="xtick_5" data-name="xtick 5">
      <g id="line2d_5" data-name="line2d 5">
        <path id="m138d6d9903-5" data-name="m138d6d9903" class="cls-6" d="M160.86,318.04v3.5"/>
      </g>
      <g id="text_5" data-name="text 5">
        <g>
          <path id="DejaVuSans-32" d="M150.51,331.81h3.44v.83h-4.63v-.83c.37-.39.88-.91,1.53-1.56.65-.65,1.05-1.07,1.22-1.26.32-.35.54-.65.66-.9.13-.25.19-.49.19-.73,0-.39-.14-.7-.41-.95-.27-.24-.63-.37-1.06-.37-.31,0-.64.05-.98.16-.34.11-.71.27-1.1.49v-1c.4-.16.77-.28,1.11-.36.35-.08.66-.12.95-.12.76,0,1.36.19,1.81.57.45.38.67.88.67,1.51,0,.3-.06.58-.17.85-.11.27-.32.58-.61.95-.08.09-.34.37-.78.82-.44.45-1.05,1.08-1.85,1.89Z"/>
          <path id="DejaVuSans-2e-5" data-name="DejaVuSans-2e" d="M156.02,331.4h1.03v1.24h-1.03v-1.24Z"/>
          <path id="DejaVuSans-30-5" data-name="DejaVuSans-30" d="M161.31,326c-.51,0-.89.25-1.15.75-.26.5-.38,1.25-.38,2.25s.13,1.75.38,2.25c.26.5.64.75,1.15.75s.89-.25,1.15-.75c.26-.5.38-1.25.38-2.25s-.13-1.75-.38-2.25c-.26-.5-.64-.75-1.15-.75ZM161.31,325.22c.82,0,1.44.32,1.87.97.43.65.65,1.58.65,2.81s-.22,2.16-.65,2.81c-.43.65-1.06.97-1.87.97s-1.44-.32-1.87-.97c-.43-.65-.65-1.58-.65-2.81s.22-2.17.65-2.81c.43-.65,1.06-.97,1.87-.97Z"/>
          <path id="DejaVuSans-4d-5" data-name="DejaVuSans-4d" d="M165.48,325.35h1.47l1.86,4.96,1.87-4.96h1.47v7.29h-.96v-6.4l-1.88,5h-.99l-1.88-5v6.4h-.96v-7.29Z"/>
        </g>
      </g>
    </g>
    <g id="xtick_6" data-name="xtick 6">
      <g id="line2d_6" data-name="line2d 6">
        <path id="m138d6d9903-6" data-name="m138d6d9903" class="cls-6" d="M70.93,318.04v3.5"/>
      </g>
      <g id="text_6" data-name="text 6">
        <g>
          <path id="DejaVuSans-32-2" data-name="DejaVuSans-32" d="M60.59,331.81h3.44v.83h-4.63v-.83c.37-.39.88-.91,1.53-1.56.65-.65,1.05-1.07,1.22-1.26.32-.35.54-.65.66-.9.13-.25.19-.49.19-.73,0-.39-.14-.7-.41-.95-.27-.24-.63-.37-1.06-.37-.31,0-.64.05-.98.16-.34.11-.71.27-1.1.49v-1c.4-.16.77-.28,1.11-.36.35-.08.66-.12.95-.12.76,0,1.36.19,1.81.57.45.38.67.88.67,1.51,0,.3-.06.58-.17.85-.11.27-.32.58-.61.95-.08.09-.34.37-.78.82-.44.45-1.05,1.08-1.85,1.89Z"/>
          <path id="DejaVuSans-2e-6" data-name="DejaVuSans-2e" d="M66.1,331.4h1.03v1.24h-1.03v-1.24Z"/>
          <path id="DejaVuSans-35-3" data-name="DejaVuSans-35" d="M69.29,325.35h3.87v.83h-2.97v1.79c.14-.05.29-.09.43-.11.14-.02.29-.04.43-.04.81,0,1.46.22,1.93.67.48.45.71,1.05.71,1.81s-.24,1.39-.73,1.83c-.49.43-1.18.65-2.07.65-.31,0-.62-.03-.94-.08-.32-.05-.64-.13-.98-.23v-.99c.29.16.6.28.91.36s.64.12.99.12c.56,0,1.01-.15,1.34-.44.33-.3.49-.7.49-1.21s-.16-.91-.49-1.2c-.33-.3-.77-.45-1.34-.45-.26,0-.53.03-.79.09-.26.06-.53.15-.8.27v-3.66Z"/>
          <path id="DejaVuSans-4d-6" data-name="DejaVuSans-4d" d="M75.55,325.35h1.47l1.86,4.96,1.87-4.96h1.47v7.29h-.96v-6.4l-1.88,5h-.99l-1.88-5v6.4h-.96v-7.29Z"/>
        </g>
      </g>
    </g>
    <g id="text_7" data-name="text 7">
      <g>
        <path id="DejaVuSans-54" d="M245.98,339.03h6.17v.83h-2.59v6.46h-.99v-6.46h-2.59v-.83Z"/>
        <path id="DejaVuSans-6f" d="M253.48,341.48c-.48,0-.86.19-1.14.56s-.42.89-.42,1.55.14,1.17.42,1.55c.28.38.66.56,1.15.56s.86-.19,1.14-.57c.28-.38.42-.89.42-1.54s-.14-1.16-.42-1.54c-.28-.38-.66-.57-1.14-.57ZM253.48,340.72c.78,0,1.39.25,1.84.76.45.51.67,1.21.67,2.11s-.22,1.6-.67,2.11c-.45.51-1.06.76-1.84.76s-1.4-.25-1.84-.76c-.44-.51-.67-1.21-.67-2.11s.22-1.6.67-2.11c.44-.51,1.06-.76,1.84-.76Z"/>
        <path id="DejaVuSans-74" d="M258.37,339.29v1.55h1.85v.7h-1.85v2.97c0,.45.06.73.18.86s.37.19.75.19h.92v.75h-.92c-.69,0-1.17-.13-1.44-.39-.26-.26-.4-.73-.4-1.41v-2.97h-.66v-.7h.66v-1.55h.9Z"/>
        <path id="DejaVuSans-61" d="M263.89,343.57c-.73,0-1.23.08-1.51.25s-.42.45-.42.85c0,.32.11.57.32.76.21.19.5.28.86.28.5,0,.9-.18,1.2-.53s.45-.82.45-1.41v-.2h-.89ZM265.68,343.2v3.12h-.9v-.83c-.21.33-.46.58-.77.73-.31.16-.68.24-1.12.24-.56,0-1-.16-1.34-.47-.33-.31-.5-.74-.5-1.26,0-.61.21-1.08.62-1.39.41-.31,1.03-.47,1.84-.47h1.26v-.09c0-.41-.14-.73-.41-.96s-.65-.34-1.15-.34c-.31,0-.62.04-.91.11-.3.08-.58.19-.85.34v-.83c.33-.13.65-.22.96-.28.31-.06.61-.1.9-.1.79,0,1.38.21,1.77.62.39.41.59,1.03.59,1.86Z"/>
        <path id="DejaVuSans-6c" d="M267.53,338.72h.9v7.6h-.9v-7.6Z"/>
        <path id="DejaVuSans-41" d="M275.96,340l-1.34,3.63h2.68l-1.34-3.63ZM275.41,339.03h1.12l2.78,7.29h-1.03l-.66-1.87h-3.29l-.66,1.87h-1.04l2.78-7.29Z"/>
        <path id="DejaVuSans-72" d="M283.5,341.69c-.1-.06-.21-.1-.33-.13-.12-.03-.25-.04-.39-.04-.51,0-.9.17-1.17.5s-.41.8-.41,1.42v2.88h-.9v-5.47h.9v.85c.19-.33.44-.58.74-.74.3-.16.67-.24,1.1-.24.06,0,.13,0,.2.01.08,0,.16.02.25.04v.92Z"/>
        <path id="DejaVuSans-65" d="M288.89,343.36v.44h-4.13c.04.62.23,1.09.56,1.41.33.32.8.49,1.39.49.34,0,.68-.04,1-.13s.65-.21.97-.38v.85c-.32.14-.65.24-.99.31s-.68.11-1.03.11c-.87,0-1.56-.25-2.07-.76-.51-.51-.76-1.2-.76-2.06s.24-1.6.73-2.13c.48-.53,1.14-.79,1.96-.79.74,0,1.32.24,1.75.71.43.47.64,1.12.64,1.93ZM288,343.09c0-.49-.14-.88-.41-1.18-.27-.29-.62-.44-1.07-.44-.5,0-.9.14-1.2.43s-.47.68-.52,1.2h3.2Z"/>
        <path id="DejaVuSans-61-2" data-name="DejaVuSans-61" d="M292.85,343.57c-.73,0-1.23.08-1.51.25s-.42.45-.42.85c0,.32.11.57.32.76.21.19.5.28.86.28.5,0,.9-.18,1.2-.53s.45-.82.45-1.41v-.2h-.89ZM294.65,343.2v3.12h-.9v-.83c-.21.33-.46.58-.77.73-.31.16-.68.24-1.12.24-.56,0-1-.16-1.34-.47-.33-.31-.5-.74-.5-1.26,0-.61.21-1.08.62-1.39.41-.31,1.03-.47,1.84-.47h1.26v-.09c0-.41-.14-.73-.41-.96s-.65-.34-1.15-.34c-.31,0-.62.04-.91.11-.3.08-.58.19-.85.34v-.83c.33-.13.65-.22.96-.28.31-.06.61-.1.9-.1.79,0,1.38.21,1.77.62.39.41.59,1.03.59,1.86Z"/>
        <path id="DejaVuSans-28" d="M301.83,338.73c-.44.75-.76,1.49-.97,2.22-.21.73-.32,1.47-.32,2.23s.11,1.5.32,2.23.54,1.48.97,2.23h-.78c-.49-.77-.85-1.52-1.1-2.26-.24-.74-.36-1.47-.36-2.2s.12-1.46.36-2.19c.24-.74.61-1.49,1.1-2.26h.78Z"/>
        <path id="DejaVuSans-4d-7" data-name="DejaVuSans-4d" d="M303.61,339.03h1.47l1.86,4.96,1.87-4.96h1.47v7.29h-.96v-6.4l-1.88,5h-.99l-1.88-5v6.4h-.96v-7.29Z"/>
        <path id="DejaVuSans-6b" d="M315.35,338.72h.9v4.49l2.68-2.36h1.15l-2.9,2.56,3.02,2.91h-1.17l-2.78-2.67v2.67h-.9v-7.6Z"/>
        <path id="DejaVuSans-6d" d="M325.43,341.9c.23-.4.49-.7.81-.89s.68-.29,1.1-.29c.57,0,1.01.2,1.32.6.31.4.46.96.46,1.7v3.3h-.9v-3.27c0-.52-.09-.91-.28-1.17-.19-.25-.47-.38-.85-.38-.47,0-.83.15-1.1.46-.27.31-.4.73-.4,1.26v3.09h-.9v-3.27c0-.53-.09-.92-.28-1.17s-.47-.38-.86-.38c-.46,0-.82.16-1.1.47-.27.31-.4.73-.4,1.26v3.09h-.9v-5.47h.9v.85c.21-.34.45-.58.74-.74s.63-.24,1.02-.24.74.1,1.01.3c.28.2.48.49.62.88Z"/>
        <path id="DejaVuSans-b2" d="M331.28,342.5h2.07v.56h-2.92v-.54c.11-.1.27-.24.47-.43,1.12-.99,1.68-1.64,1.68-1.95,0-.21-.08-.39-.25-.52-.17-.13-.39-.2-.67-.2-.17,0-.35.03-.55.09-.2.06-.41.14-.65.25v-.6c.25-.09.48-.16.7-.2.22-.05.42-.07.6-.07.47,0,.85.11,1.13.32.28.21.43.5.43.85,0,.45-.54,1.14-1.62,2.07-.18.16-.32.28-.42.37Z"/>
        <path id="DejaVuSans-29" d="M334.78,338.73h.78c.49.77.85,1.52,1.1,2.26.24.74.36,1.47.36,2.19s-.12,1.46-.36,2.2c-.24.74-.61,1.49-1.1,2.26h-.78c.43-.75.76-1.49.97-2.23.21-.74.32-1.48.32-2.23s-.11-1.49-.32-2.23c-.21-.73-.54-1.47-.97-2.22Z"/>
      </g>
    </g>
  </g>
  <g id="matplotlib.axis_2" data-name="matplotlib.axis 2">
    <g id="ytick_1" data-name="ytick 1">
      <g id="line2d_7" data-name="line2d 7">
        <path id="ma53e6b013d" class="cls-6" d="M44.57,278.13h-3.5"/>
      </g>
      <g id="text_8" data-name="text 8">
        <g>
          <path id="DejaVuSans-32-3" data-name="DejaVuSans-32" d="M26.76,281.1h3.44v.83h-4.63v-.83c.37-.39.88-.91,1.53-1.56.65-.65,1.05-1.07,1.22-1.26.32-.35.54-.65.66-.9.13-.25.19-.49.19-.73,0-.39-.14-.7-.41-.95-.27-.24-.63-.37-1.06-.37-.31,0-.64.05-.98.16-.34.11-.71.27-1.1.49v-1c.4-.16.77-.28,1.11-.36.35-.08.66-.12.95-.12.76,0,1.36.19,1.81.57.45.38.67.88.67,1.51,0,.3-.06.58-.17.85-.11.27-.32.58-.61.95-.08.09-.34.37-.78.82-.44.45-1.05,1.08-1.85,1.89Z"/>
          <path id="DejaVuSans-30-6" data-name="DejaVuSans-30" d="M34.39,275.29c-.51,0-.89.25-1.15.75-.26.5-.38,1.25-.38,2.25s.13,1.75.38,2.25c.26.5.64.75,1.15.75s.89-.25,1.15-.75c.26-.5.38-1.25.38-2.25s-.13-1.75-.38-2.25c-.26-.5-.64-.75-1.15-.75ZM34.39,274.51c.82,0,1.44.32,1.87.97.43.65.65,1.58.65,2.81s-.22,2.16-.65,2.81c-.43.65-1.06.97-1.87.97s-1.44-.32-1.87-.97c-.43-.65-.65-1.58-.65-2.81s.22-2.17.65-2.81c.43-.65,1.06-.97,1.87-.97Z"/>
        </g>
      </g>
    </g>
    <g id="ytick_2" data-name="ytick 2">
      <g id="line2d_8" data-name="line2d 8">
        <path id="ma53e6b013d-2" data-name="ma53e6b013d" class="cls-6" d="M44.57,234.62h-3.5"/>
      </g>
      <g id="text_9" data-name="text 9">
        <g>
          <path id="DejaVuSans-33" d="M28.9,234.49c.47.1.84.31,1.1.63.27.32.4.71.4,1.18,0,.72-.25,1.28-.74,1.67-.49.39-1.2.59-2.11.59-.31,0-.62-.03-.94-.09-.32-.06-.66-.15-1-.27v-.95c.27.16.57.28.9.36.33.08.67.12,1.02.12.62,0,1.09-.12,1.41-.37s.49-.6.49-1.06c0-.43-.15-.77-.45-1.01-.3-.24-.72-.36-1.26-.36h-.85v-.81h.89c.48,0,.86-.1,1.11-.29s.39-.47.39-.84-.13-.66-.4-.86c-.26-.2-.64-.3-1.14-.3-.27,0-.56.03-.87.09-.31.06-.65.15-1.02.27v-.88c.38-.1.73-.18,1.05-.23s.64-.08.93-.08c.75,0,1.34.17,1.78.51.44.34.65.8.65,1.38,0,.4-.12.75-.35,1.02s-.56.47-.99.58Z"/>
          <path id="DejaVuSans-30-7" data-name="DejaVuSans-30" d="M34.39,231.78c-.51,0-.89.25-1.15.75-.26.5-.38,1.25-.38,2.25s.13,1.75.38,2.25c.26.5.64.75,1.15.75s.89-.25,1.15-.75c.26-.5.38-1.25.38-2.25s-.13-1.75-.38-2.25c-.26-.5-.64-.75-1.15-.75ZM34.39,231c.82,0,1.44.32,1.87.97.43.65.65,1.58.65,2.81s-.22,2.16-.65,2.81c-.43.65-1.06.97-1.87.97s-1.44-.32-1.87-.97c-.43-.65-.65-1.58-.65-2.81s.22-2.17.65-2.81c.43-.65,1.06-.97,1.87-.97Z"/>
        </g>
      </g>
    </g>
    <g id="ytick_3" data-name="ytick 3">
      <g id="line2d_9" data-name="line2d 9">
        <path id="ma53e6b013d-3" data-name="ma53e6b013d" class="cls-6" d="M44.57,191.11h-3.5"/>
      </g>
      <g id="text_10" data-name="text 10">
        <g>
          <path id="DejaVuSans-34" d="M28.62,188.47l-2.49,3.89h2.49v-3.89ZM28.37,187.61h1.24v4.75h1.04v.82h-1.04v1.72h-.98v-1.72h-3.29v-.95l3.03-4.62Z"/>
          <path id="DejaVuSans-30-8" data-name="DejaVuSans-30" d="M34.39,188.26c-.51,0-.89.25-1.15.75-.26.5-.38,1.25-.38,2.25s.13,1.75.38,2.25c.26.5.64.75,1.15.75s.89-.25,1.15-.75c.26-.5.38-1.25.38-2.25s-.13-1.75-.38-2.25c-.26-.5-.64-.75-1.15-.75ZM34.39,187.48c.82,0,1.44.32,1.87.97.43.65.65,1.58.65,2.81s-.22,2.16-.65,2.81c-.43.65-1.06.97-1.87.97s-1.44-.32-1.87-.97c-.43-.65-.65-1.58-.65-2.81s.22-2.17.65-2.81c.43-.65,1.06-.97,1.87-.97Z"/>
        </g>
      </g>
    </g>
    <g id="ytick_4" data-name="ytick 4">
      <g id="line2d_10" data-name="line2d 10">
        <path id="ma53e6b013d-4" data-name="ma53e6b013d" class="cls-6" d="M44.57,147.59h-3.5"/>
      </g>
      <g id="text_11" data-name="text 11">
        <g>
          <path id="DejaVuSans-35-4" data-name="DejaVuSans-35" d="M25.92,144.1h3.87v.83h-2.97v1.79c.14-.05.29-.09.43-.11.14-.02.29-.04.43-.04.81,0,1.46.22,1.93.67.48.45.71,1.05.71,1.81s-.24,1.39-.73,1.83c-.49.43-1.18.65-2.07.65-.31,0-.62-.03-.94-.08-.32-.05-.64-.13-.98-.23v-.99c.29.16.6.28.91.36s.64.12.99.12c.56,0,1.01-.15,1.34-.44.33-.3.49-.7.49-1.21s-.16-.91-.49-1.2c-.33-.3-.77-.45-1.34-.45-.26,0-.53.03-.79.09-.26.06-.53.15-.8.27v-3.66Z"/>
          <path id="DejaVuSans-30-9" data-name="DejaVuSans-30" d="M34.39,144.75c-.51,0-.89.25-1.15.75-.26.5-.38,1.25-.38,2.25s.13,1.75.38,2.25c.26.5.64.75,1.15.75s.89-.25,1.15-.75c.26-.5.38-1.25.38-2.25s-.13-1.75-.38-2.25c-.26-.5-.64-.75-1.15-.75ZM34.39,143.97c.82,0,1.44.32,1.87.97.43.65.65,1.58.65,2.81s-.22,2.16-.65,2.81c-.43.65-1.06.97-1.87.97s-1.44-.32-1.87-.97c-.43-.65-.65-1.58-.65-2.81s.22-2.17.65-2.81c.43-.65,1.06-.97,1.87-.97Z"/>
        </g>
      </g>
    </g>
    <g id="ytick_5" data-name="ytick 5">
      <g id="line2d_11" data-name="line2d 11">
        <path id="ma53e6b013d-5" data-name="ma53e6b013d" class="cls-6" d="M44.57,104.08h-3.5"/>
      </g>
      <g id="text_12" data-name="text 12">
        <g>
          <path id="DejaVuSans-36" d="M28.15,103.84c-.44,0-.79.15-1.05.45-.26.3-.39.72-.39,1.24s.13.94.39,1.24c.26.3.61.46,1.05.46s.79-.15,1.05-.46c.26-.31.39-.72.39-1.24s-.13-.94-.39-1.24c-.26-.3-.61-.45-1.05-.45ZM30.1,100.75v.9c-.25-.12-.5-.21-.75-.27-.25-.06-.5-.09-.75-.09-.65,0-1.15.22-1.49.66-.34.44-.54,1.1-.59,1.99.19-.28.43-.5.72-.65.29-.15.61-.23.96-.23.73,0,1.31.22,1.74.67.43.44.64,1.05.64,1.81s-.22,1.35-.66,1.8c-.44.45-1.03.68-1.77.68-.84,0-1.49-.32-1.93-.97-.45-.65-.67-1.58-.67-2.81,0-1.15.27-2.07.82-2.76.55-.69,1.28-1.03,2.2-1.03.25,0,.5.02.75.07s.52.12.79.22Z"/>
          <path id="DejaVuSans-30-10" data-name="DejaVuSans-30" d="M34.39,101.24c-.51,0-.89.25-1.15.75-.26.5-.38,1.25-.38,2.25s.13,1.75.38,2.25c.26.5.64.75,1.15.75s.89-.25,1.15-.75c.26-.5.38-1.25.38-2.25s-.13-1.75-.38-2.25c-.26-.5-.64-.75-1.15-.75ZM34.39,100.46c.82,0,1.44.32,1.87.97.43.65.65,1.58.65,2.81s-.22,2.16-.65,2.81c-.43.65-1.06.97-1.87.97s-1.44-.32-1.87-.97c-.43-.65-.65-1.58-.65-2.81s.22-2.17.65-2.81c.43-.65,1.06-.97,1.87-.97Z"/>
        </g>
      </g>
    </g>
    <g id="ytick_6" data-name="ytick 6">
      <g id="line2d_12" data-name="line2d 12">
        <path id="ma53e6b013d-6" data-name="ma53e6b013d" class="cls-6" d="M44.57,60.57h-3.5"/>
      </g>
      <g id="text_13" data-name="text 13">
        <g>
          <path id="DejaVuSans-37" d="M25.67,57.07h4.69v.42l-2.65,6.87h-1.03l2.49-6.46h-3.5v-.83Z"/>
          <path id="DejaVuSans-30-11" data-name="DejaVuSans-30" d="M34.39,57.72c-.51,0-.89.25-1.15.75-.26.5-.38,1.25-.38,2.25s.13,1.75.38,2.25c.26.5.64.75,1.15.75s.89-.25,1.15-.75c.26-.5.38-1.25.38-2.25s-.13-1.75-.38-2.25c-.26-.5-.64-.75-1.15-.75ZM34.39,56.94c.82,0,1.44.32,1.87.97.43.65.65,1.58.65,2.81s-.22,2.16-.65,2.81c-.43.65-1.06.97-1.87.97s-1.44-.32-1.87-.97c-.43-.65-.65-1.58-.65-2.81s.22-2.17.65-2.81c.43-.65,1.06-.97,1.87-.97Z"/>
        </g>
      </g>
    </g>
    <g id="text_14" data-name="text 14">
      <g>
        <path id="DejaVuSans-25" d="M15.56,195.46c0,.28.12.51.36.67.24.16.58.24,1.01.24s.76-.08,1-.24c.24-.16.36-.38.36-.67s-.12-.5-.36-.66c-.24-.16-.58-.24-1-.24s-.76.08-1,.24c-.24.16-.36.38-.36.66ZM14.94,195.46c0-.51.18-.92.54-1.23.36-.3.84-.45,1.45-.45s1.09.15,1.45.46c.36.3.53.71.53,1.22s-.18.93-.53,1.24c-.36.3-.84.45-1.45.45s-1.1-.15-1.45-.46-.53-.72-.53-1.23ZM11.96,200.5c0,.28.12.5.36.66.24.16.57.24,1,.24s.76-.08,1.01-.24c.24-.16.36-.38.36-.66s-.12-.51-.36-.67c-.24-.16-.58-.24-1.01-.24s-.75.08-1,.24c-.24.16-.37.38-.37.66ZM11.34,196.09v-.78l7.56,4.56v.78l-7.56-4.56ZM11.34,200.5c0-.51.18-.92.53-1.23.36-.31.84-.46,1.45-.46s1.1.15,1.45.46c.36.3.53.72.53,1.23s-.18.93-.53,1.23c-.36.3-.84.45-1.45.45s-1.09-.15-1.45-.45c-.36-.3-.54-.71-.54-1.23Z"/>
        <path id="DejaVuSans-50" d="M12.29,188.08h2.74v-1.24c0-.46-.12-.81-.36-1.06-.24-.25-.58-.38-1.02-.38s-.77.13-1.01.38c-.24.25-.36.6-.36,1.06v1.24ZM11.47,189.06v-2.23c0-.82.18-1.44.55-1.85.37-.42.91-.63,1.62-.63s1.26.21,1.63.63c.37.42.55,1.04.55,1.85v1.24h2.93v.99h-7.29Z"/>
        <path id="DejaVuSans-72-2" data-name="DejaVuSans-72" d="M14.14,180.08c-.06.1-.1.21-.13.33-.03.12-.04.25-.04.39,0,.51.17.9.5,1.17s.8.41,1.42.41h2.88v.9h-5.47v-.9h.85c-.33-.19-.58-.44-.74-.74-.16-.3-.24-.67-.24-1.1,0-.06,0-.13.01-.2,0-.08.02-.16.04-.25h.92Z"/>
        <path id="DejaVuSans-6f-2" data-name="DejaVuSans-6f" d="M13.93,177.24c0,.48.19.86.56,1.14s.89.42,1.55.42,1.17-.14,1.55-.42c.38-.28.56-.66.56-1.15s-.19-.86-.57-1.14c-.38-.28-.89-.42-1.54-.42s-1.16.14-1.54.42c-.38.28-.57.66-.57,1.14ZM13.17,177.24c0-.78.25-1.39.76-1.84.51-.45,1.21-.67,2.11-.67s1.6.22,2.11.67c.51.45.76,1.06.76,1.84s-.25,1.4-.76,1.84c-.51.44-1.21.67-2.11.67s-1.6-.22-2.11-.67c-.51-.44-.76-1.06-.76-1.84Z"/>
        <path id="DejaVuSans-74-2" data-name="DejaVuSans-74" d="M11.74,172.35h1.55v-1.85h.7v1.85h2.97c.45,0,.73-.06.86-.18s.19-.37.19-.75v-.92h.75v.92c0,.69-.13,1.17-.39,1.44-.26.26-.73.4-1.41.4h-2.97v.66h-.7v-.66h-1.55v-.9Z"/>
        <path id="DejaVuSans-65-2" data-name="DejaVuSans-65" d="M15.81,164.64h.44v4.13c.62-.04,1.09-.23,1.41-.56.32-.33.49-.8.49-1.39,0-.34-.04-.68-.13-1s-.21-.65-.38-.97h.85c.14.32.24.65.31.99s.11.68.11,1.03c0,.87-.25,1.56-.76,2.07-.51.51-1.2.76-2.06.76s-1.6-.24-2.13-.73c-.53-.48-.79-1.14-.79-1.96,0-.74.24-1.32.71-1.75.47-.43,1.12-.64,1.93-.64ZM15.54,165.54c-.49,0-.88.14-1.18.41-.29.27-.44.62-.44,1.07,0,.5.14.9.43,1.2s.68.47,1.2.52v-3.2Z"/>
        <path id="DejaVuSans-63" d="M13.51,159.23h.84c-.14.25-.25.51-.32.76s-.1.51-.1.77c0,.58.18,1.04.55,1.36.37.32.89.48,1.55.48s1.19-.16,1.56-.48c.37-.32.55-.78.55-1.36,0-.26-.03-.52-.1-.77s-.18-.51-.32-.76h.83c.12.25.2.51.26.78.06.27.09.55.09.86,0,.82-.26,1.48-.78,1.96-.52.48-1.22.73-2.1.73s-1.59-.24-2.1-.73c-.51-.49-.77-1.16-.77-2.02,0-.28.03-.55.09-.81.06-.26.14-.52.25-.77Z"/>
        <path id="DejaVuSans-74-3" data-name="DejaVuSans-74" d="M11.74,156.78h1.55v-1.85h.7v1.85h2.97c.45,0,.73-.06.86-.18s.19-.37.19-.75v-.92h.75v.92c0,.69-.13,1.17-.39,1.44-.26.26-.73.4-1.41.4h-2.97v.66h-.7v-.66h-1.55v-.9Z"/>
        <path id="DejaVuSans-65-3" data-name="DejaVuSans-65" d="M15.81,149.07h.44v4.13c.62-.04,1.09-.23,1.41-.56.32-.33.49-.8.49-1.39,0-.34-.04-.68-.13-1s-.21-.65-.38-.97h.85c.14.32.24.65.31.99s.11.68.11,1.03c0,.87-.25,1.56-.76,2.07-.51.51-1.2.76-2.06.76s-1.6-.24-2.13-.73c-.53-.48-.79-1.14-.79-1.96,0-.74.24-1.32.71-1.75.47-.43,1.12-.64,1.93-.64ZM15.54,149.97c-.49,0-.88.14-1.18.41-.29.27-.44.62-.44,1.07,0,.5.14.9.43,1.2s.68.47,1.2.52v-3.2Z"/>
        <path id="DejaVuSans-64" d="M14.13,144h-2.96v-.9h7.6v.9h-.82c.33.19.57.43.73.72.16.29.24.63.24,1.04,0,.66-.26,1.2-.79,1.61-.53.41-1.22.62-2.08.62s-1.55-.21-2.08-.62c-.53-.42-.79-.95-.79-1.61,0-.4.08-.75.24-1.04.16-.29.4-.53.72-.72ZM16.04,147.06c.66,0,1.18-.14,1.55-.41.38-.27.56-.65.56-1.12s-.19-.85-.56-1.12c-.38-.27-.89-.41-1.55-.41s-1.18.14-1.55.41c-.38.27-.56.65-.56,1.12s.19.85.56,1.12.89.41,1.55.41Z"/>
      </g>
    </g>
  </g>
  <g id="patch_3" data-name="patch 3">
    <path class="cls-3" d="M44.57,318.04V26.88"/>
  </g>
  <g id="patch_5" data-name="patch 5">
    <path class="cls-3" d="M44.57,318.04h494.75"/>
  </g>
  <g id="text_15" data-name="text 15">
    <g>
      <path id="DejaVuSans-53" d="M525.58,30.18v.67c-.26-.13-.51-.22-.74-.28-.23-.06-.46-.09-.67-.09-.38,0-.67.07-.87.22-.2.15-.31.35-.31.62,0,.23.07.4.2.51.14.11.39.21.77.28l.42.09c.51.1.89.27,1.14.52s.37.58.37.99c0,.5-.17.87-.5,1.13-.33.26-.82.38-1.46.38-.24,0-.5-.03-.77-.08-.27-.05-.55-.14-.85-.24v-.71c.28.16.55.28.82.36.27.08.53.12.79.12.39,0,.7-.08.91-.23.21-.16.32-.38.32-.66,0-.25-.08-.45-.23-.59s-.41-.25-.76-.32l-.42-.08c-.51-.1-.89-.26-1.12-.48-.23-.22-.34-.52-.34-.91,0-.45.16-.81.48-1.07.32-.26.76-.39,1.31-.39.24,0,.48.02.73.07.25.04.5.11.76.19Z"/>
      <path id="DejaVuSans-6c-2" data-name="DejaVuSans-6c" d="M526.94,29.8h.63v5.32h-.63v-5.32Z"/>
      <path id="DejaVuSans-6f-3" data-name="DejaVuSans-6f" d="M530.37,31.73c-.34,0-.6.13-.8.39s-.29.62-.29,1.08.1.82.29,1.08c.2.26.46.39.8.39s.6-.13.8-.4c.2-.26.29-.62.29-1.08s-.1-.81-.29-1.08c-.2-.27-.46-.4-.8-.4ZM530.37,31.19c.55,0,.98.18,1.29.53.31.36.47.85.47,1.48s-.16,1.12-.47,1.48c-.31.36-.74.53-1.29.53s-.98-.18-1.29-.53c-.31-.36-.47-.85-.47-1.48s.16-1.12.47-1.48c.31-.36.74-.53,1.29-.53Z"/>
      <path id="DejaVuSans-76" d="M532.72,31.29h.67l1.2,3.21,1.2-3.21h.67l-1.44,3.83h-.85l-1.44-3.83Z"/>
      <path id="DejaVuSans-65-4" data-name="DejaVuSans-65" d="M540.58,33.04v.31h-2.89c.03.43.16.76.39.99.23.23.56.34.98.34.24,0,.48-.03.7-.09s.45-.15.68-.27v.6c-.23.1-.46.17-.69.22s-.48.08-.72.08c-.61,0-1.09-.18-1.45-.53-.36-.36-.53-.84-.53-1.44s.17-1.12.51-1.49c.34-.37.79-.55,1.37-.55.51,0,.92.17,1.22.5.3.33.45.78.45,1.35ZM539.95,32.86c0-.34-.1-.62-.29-.82-.19-.21-.44-.31-.75-.31-.35,0-.63.1-.84.3s-.33.48-.36.84h2.24Z"/>
      <path id="DejaVuSans-6e" d="M544.8,32.8v2.31h-.63v-2.29c0-.36-.07-.63-.21-.81-.14-.18-.35-.27-.64-.27-.34,0-.61.11-.8.32-.2.22-.29.51-.29.88v2.16h-.63v-3.83h.63v.6c.15-.23.33-.4.53-.52.2-.11.44-.17.71-.17.44,0,.77.14,1,.41.23.27.34.67.34,1.2Z"/>
      <path id="DejaVuSans-69" d="M546.05,31.29h.63v3.83h-.63v-3.83ZM546.05,29.8h.63v.8h-.63v-.8Z"/>
      <path id="DejaVuSans-61-3" data-name="DejaVuSans-61" d="M549.74,33.19c-.51,0-.86.06-1.06.17s-.29.31-.29.6c0,.22.07.4.22.53.15.13.35.2.6.2.35,0,.63-.12.84-.37s.32-.58.32-.99v-.14h-.63ZM550.99,32.93v2.18h-.63v-.58c-.14.23-.32.4-.54.51-.21.11-.48.17-.79.17-.39,0-.7-.11-.94-.33-.23-.22-.35-.51-.35-.88,0-.43.14-.75.43-.97.29-.22.72-.33,1.29-.33h.88v-.06c0-.29-.1-.51-.29-.67s-.46-.24-.8-.24c-.22,0-.43.03-.64.08-.21.05-.41.13-.6.24v-.58c.23-.09.45-.16.67-.2.22-.04.43-.07.63-.07.55,0,.97.14,1.24.43.27.29.41.72.41,1.3Z"/>
    </g>
  </g>
  <g id="text_16" data-name="text 16">
    <g>
      <path id="DejaVuSans-47" d="M445.06,44.52v-1.37h-1.13v-.57h1.81v2.19c-.27.19-.56.33-.88.43-.32.1-.66.15-1.03.15-.8,0-1.42-.23-1.87-.7-.45-.47-.67-1.12-.67-1.95s.22-1.48.67-1.95c.45-.47,1.07-.7,1.87-.7.33,0,.65.04.95.12.3.08.58.2.83.36v.74c-.26-.22-.53-.38-.81-.49s-.59-.16-.91-.16c-.62,0-1.09.17-1.41.52-.31.35-.47.87-.47,1.56s.16,1.21.47,1.56c.31.35.78.52,1.41.52.24,0,.46-.02.65-.06.19-.04.36-.11.52-.2Z"/>
      <path id="DejaVuSans-65-5" data-name="DejaVuSans-65" d="M450.25,43.18v.31h-2.89c.03.43.16.76.39.99.23.23.56.34.98.34.24,0,.48-.03.7-.09s.45-.15.68-.27v.6c-.23.1-.46.17-.69.22s-.48.08-.72.08c-.61,0-1.09-.18-1.45-.53-.36-.36-.53-.84-.53-1.44s.17-1.12.51-1.49c.34-.37.79-.55,1.37-.55.51,0,.92.17,1.22.5.3.33.45.78.45,1.35ZM449.62,43c0-.34-.1-.62-.29-.82-.19-.21-.44-.31-.75-.31-.35,0-.63.1-.84.3s-.33.48-.36.84h2.24Z"/>
      <path id="DejaVuSans-72-3" data-name="DejaVuSans-72" d="M453.5,42.01c-.07-.04-.15-.07-.23-.09-.08-.02-.17-.03-.27-.03-.36,0-.63.12-.82.35s-.29.56-.29,1v2.02h-.63v-3.83h.63v.6c.13-.23.3-.41.52-.52.21-.11.47-.17.77-.17.04,0,.09,0,.14,0,.05,0,.11.01.17.03v.65Z"/>
      <path id="DejaVuSans-6d-2" data-name="DejaVuSans-6d" d="M457.02,42.16c.16-.28.35-.49.56-.63s.48-.2.77-.2c.4,0,.71.14.92.42.22.28.32.68.32,1.19v2.31h-.63v-2.29c0-.37-.07-.64-.2-.82-.13-.18-.33-.27-.59-.27-.33,0-.58.11-.77.32-.19.22-.28.51-.28.88v2.16h-.63v-2.29c0-.37-.06-.64-.19-.82s-.33-.26-.6-.26c-.32,0-.58.11-.77.33-.19.22-.28.51-.28.88v2.16h-.63v-3.83h.63v.6c.14-.23.32-.41.52-.52s.44-.17.71-.17.52.07.71.21c.19.14.34.35.43.61Z"/>
      <path id="DejaVuSans-61-4" data-name="DejaVuSans-61" d="M462.59,43.33c-.51,0-.86.06-1.06.17s-.29.31-.29.6c0,.22.07.4.22.53.15.13.35.2.6.2.35,0,.63-.12.84-.37s.32-.58.32-.99v-.14h-.63ZM463.85,43.07v2.18h-.63v-.58c-.14.23-.32.4-.54.51-.21.11-.48.17-.79.17-.39,0-.7-.11-.94-.33-.23-.22-.35-.51-.35-.88,0-.43.14-.75.43-.97.29-.22.72-.33,1.29-.33h.88v-.06c0-.29-.1-.51-.29-.67s-.46-.24-.8-.24c-.22,0-.43.03-.64.08-.21.05-.41.13-.6.24v-.58c.23-.09.45-.16.67-.2.22-.04.43-.07.63-.07.55,0,.97.14,1.24.43.27.29.41.72.41,1.3Z"/>
      <path id="DejaVuSans-6e-2" data-name="DejaVuSans-6e" d="M468.33,42.94v2.31h-.63v-2.29c0-.36-.07-.63-.21-.81-.14-.18-.35-.27-.64-.27-.34,0-.61.11-.8.32-.2.22-.29.51-.29.88v2.16h-.63v-3.83h.63v.6c.15-.23.33-.4.53-.52.2-.11.44-.17.71-.17.44,0,.77.14,1,.41.23.27.34.67.34,1.2Z"/>
      <path id="DejaVuSans-79" d="M471.17,45.61c-.18.46-.35.75-.52.89-.17.14-.39.21-.68.21h-.5v-.53h.37c.17,0,.31-.04.4-.12.1-.08.2-.28.32-.58l.11-.29-1.55-3.77h.67l1.2,2.99,1.2-2.99h.67l-1.68,4.18Z"/>
    </g>
  </g>
  <g id="text_17" data-name="text 17">
    <g>
      <path id="DejaVuSans-45" d="M505,151.2h3.23v.58h-2.54v1.51h2.43v.58h-2.43v1.85h2.6v.58h-3.29v-5.1Z"/>
      <path id="DejaVuSans-73" d="M511.84,152.58v.6c-.18-.09-.36-.16-.55-.2-.19-.05-.39-.07-.6-.07-.31,0-.55.05-.7.14-.16.1-.23.24-.23.43,0,.15.06.26.17.34s.34.16.67.24l.22.05c.45.1.76.23.95.4s.28.42.28.73c0,.36-.14.64-.42.85-.28.21-.67.31-1.16.31-.2,0-.42-.02-.64-.06-.22-.04-.46-.1-.7-.18v-.65c.23.12.46.21.69.27.23.06.45.09.67.09.3,0,.52-.05.68-.15.16-.1.24-.24.24-.43,0-.17-.06-.3-.17-.39-.11-.09-.37-.18-.76-.26l-.22-.05c-.39-.08-.67-.21-.84-.38-.17-.17-.26-.4-.26-.7,0-.36.13-.64.38-.83.26-.2.62-.29,1.09-.29.23,0,.45.02.66.05.21.03.39.08.57.15Z"/>
      <path id="DejaVuSans-74-4" data-name="DejaVuSans-74" d="M513.67,151.38v1.09h1.3v.49h-1.3v2.08c0,.31.04.51.13.6s.26.13.52.13h.65v.53h-.65c-.49,0-.82-.09-1.01-.27-.18-.18-.28-.51-.28-.99v-2.08h-.46v-.49h.46v-1.09h.63Z"/>
      <path id="DejaVuSans-6f-4" data-name="DejaVuSans-6f" d="M517.27,152.91c-.34,0-.6.13-.8.39s-.29.62-.29,1.08.1.82.29,1.08c.2.26.46.39.8.39s.6-.13.8-.4c.2-.26.29-.62.29-1.08s-.1-.81-.29-1.08c-.2-.27-.46-.4-.8-.4ZM517.27,152.38c.55,0,.98.18,1.29.53.31.36.47.85.47,1.48s-.16,1.12-.47,1.48c-.31.36-.74.53-1.29.53s-.98-.18-1.29-.53c-.31-.36-.47-.85-.47-1.48s.16-1.12.47-1.48c.31-.36.74-.53,1.29-.53Z"/>
      <path id="DejaVuSans-6e-3" data-name="DejaVuSans-6e" d="M523.25,153.99v2.31h-.63v-2.29c0-.36-.07-.63-.21-.81-.14-.18-.35-.27-.64-.27-.34,0-.61.11-.8.32-.2.22-.29.51-.29.88v2.16h-.63v-3.83h.63v.6c.15-.23.33-.4.53-.52.2-.11.44-.17.71-.17.44,0,.77.14,1,.41.23.27.34.67.34,1.2Z"/>
      <path id="DejaVuSans-69-2" data-name="DejaVuSans-69" d="M524.51,152.47h.63v3.83h-.63v-3.83ZM524.51,150.98h.63v.8h-.63v-.8Z"/>
      <path id="DejaVuSans-61-5" data-name="DejaVuSans-61" d="M528.19,154.37c-.51,0-.86.06-1.06.17s-.29.31-.29.6c0,.22.07.4.22.53.15.13.35.2.6.2.35,0,.63-.12.84-.37s.32-.58.32-.99v-.14h-.63ZM529.45,154.11v2.18h-.63v-.58c-.14.23-.32.4-.54.51-.21.11-.48.17-.79.17-.39,0-.7-.11-.94-.33-.23-.22-.35-.51-.35-.88,0-.43.14-.75.43-.97.29-.22.72-.33,1.29-.33h.88v-.06c0-.29-.1-.51-.29-.67s-.46-.24-.8-.24c-.22,0-.43.03-.64.08-.21.05-.41.13-.6.24v-.58c.23-.09.45-.16.67-.2.22-.04.43-.07.63-.07.55,0,.97.14,1.24.43.27.29.41.72.41,1.3Z"/>
    </g>
  </g>
  <g id="text_18" data-name="text 18">
    <g>
      <path id="DejaVuSans-50-2" data-name="DejaVuSans-50" d="M459.67,167.99v1.92h.87c.32,0,.57-.08.74-.25.18-.17.26-.4.26-.71s-.09-.54-.26-.71c-.18-.17-.42-.25-.74-.25h-.87ZM458.98,167.43h1.56c.57,0,1,.13,1.3.39.29.26.44.64.44,1.14s-.15.88-.44,1.14c-.29.26-.72.39-1.3.39h-.87v2.05h-.69v-5.1Z"/>
      <path id="DejaVuSans-6f-5" data-name="DejaVuSans-6f" d="M464.4,169.14c-.34,0-.6.13-.8.39s-.29.62-.29,1.08.1.82.29,1.08c.2.26.46.39.8.39s.6-.13.8-.4c.2-.26.29-.62.29-1.08s-.1-.81-.29-1.08c-.2-.27-.46-.4-.8-.4ZM464.4,168.61c.55,0,.98.18,1.29.53.31.36.47.85.47,1.48s-.16,1.12-.47,1.48c-.31.36-.74.53-1.29.53s-.98-.18-1.29-.53c-.31-.36-.47-.85-.47-1.48s.16-1.12.47-1.48c.31-.36.74-.53,1.29-.53Z"/>
      <path id="DejaVuSans-6c-3" data-name="DejaVuSans-6c" d="M467.2,167.21h.63v5.32h-.63v-5.32Z"/>
      <path id="DejaVuSans-61-6" data-name="DejaVuSans-61" d="M470.89,170.61c-.51,0-.86.06-1.06.17s-.29.31-.29.6c0,.22.07.4.22.53.15.13.35.2.6.2.35,0,.63-.12.84-.37s.32-.58.32-.99v-.14h-.63ZM472.14,170.35v2.18h-.63v-.58c-.14.23-.32.4-.54.51-.21.11-.48.17-.79.17-.39,0-.7-.11-.94-.33-.23-.22-.35-.51-.35-.88,0-.43.14-.75.43-.97.29-.22.72-.33,1.29-.33h.88v-.06c0-.29-.1-.51-.29-.67s-.46-.24-.8-.24c-.22,0-.43.03-.64.08-.21.05-.41.13-.6.24v-.58c.23-.09.45-.16.67-.2.22-.04.43-.07.63-.07.55,0,.97.14,1.24.43.27.29.41.72.41,1.3Z"/>
      <path id="DejaVuSans-6e-4" data-name="DejaVuSans-6e" d="M476.62,170.22v2.31h-.63v-2.29c0-.36-.07-.63-.21-.81-.14-.18-.35-.27-.64-.27-.34,0-.61.11-.8.32-.2.22-.29.51-.29.88v2.16h-.63v-3.83h.63v.6c.15-.23.33-.4.53-.52.2-.11.44-.17.71-.17.44,0,.77.14,1,.41.23.27.34.67.34,1.2Z"/>
      <path id="DejaVuSans-64-2" data-name="DejaVuSans-64" d="M480.39,169.28v-2.07h.63v5.32h-.63v-.57c-.13.23-.3.4-.5.51-.2.11-.44.17-.73.17-.46,0-.84-.18-1.13-.55-.29-.37-.44-.86-.44-1.46s.15-1.09.44-1.46c.29-.37.67-.55,1.13-.55.28,0,.53.06.73.17.2.11.37.28.5.51ZM478.25,170.62c0,.46.1.83.29,1.09.19.26.45.39.78.39s.59-.13.79-.39c.19-.26.29-.63.29-1.09s-.1-.83-.29-1.09c-.19-.26-.45-.39-.79-.39s-.59.13-.78.39-.29.63-.29,1.09Z"/>
    </g>
  </g>
  <g id="text_19" data-name="text 19">
    <g>
      <path id="DejaVuSans-42" d="M494.5,212.43v1.87h1.11c.37,0,.65-.08.82-.23.18-.15.27-.39.27-.71s-.09-.55-.27-.71c-.18-.15-.45-.23-.82-.23h-1.11ZM494.5,210.33v1.54h1.02c.34,0,.59-.06.75-.19.17-.13.25-.32.25-.58s-.08-.45-.25-.58c-.16-.13-.42-.19-.75-.19h-1.02ZM493.81,209.76h1.76c.53,0,.93.11,1.22.33.29.22.43.53.43.93,0,.31-.07.56-.22.75s-.36.3-.64.34c.34.07.6.23.79.46.19.23.28.52.28.87,0,.46-.15.81-.46,1.06-.31.25-.75.37-1.32.37h-1.83v-5.1Z"/>
      <path id="DejaVuSans-75" d="M498.52,213.36v-2.32h.63v2.29c0,.36.07.63.21.82.14.18.35.27.64.27.34,0,.61-.11.8-.32.2-.22.3-.51.3-.89v-2.17h.63v3.83h-.63v-.59c-.15.23-.33.41-.53.52-.2.11-.44.17-.7.17-.44,0-.77-.14-1-.41-.23-.27-.34-.67-.34-1.2ZM500.1,210.95h0Z"/>
      <path id="DejaVuSans-6c-4" data-name="DejaVuSans-6c" d="M503.02,209.55h.63v5.32h-.63v-5.32Z"/>
      <path id="DejaVuSans-67" d="M507.48,212.91c0-.46-.09-.81-.28-1.06-.19-.25-.45-.38-.79-.38s-.6.13-.79.38c-.19.25-.28.6-.28,1.06s.09.81.28,1.06c.19.25.45.38.79.38s.6-.13.79-.38c.19-.25.28-.6.28-1.06ZM508.11,214.39c0,.65-.14,1.14-.43,1.45-.29.32-.73.48-1.33.48-.22,0-.43-.02-.63-.05s-.39-.08-.57-.15v-.61c.18.1.37.17.55.22.18.05.36.07.55.07.41,0,.72-.11.93-.32.2-.22.31-.54.31-.98v-.31c-.13.23-.3.39-.5.51s-.45.17-.73.17c-.47,0-.85-.18-1.13-.54-.29-.36-.43-.83-.43-1.42s.14-1.07.43-1.42c.29-.36.67-.54,1.13-.54.28,0,.53.06.73.17s.37.28.5.51v-.58h.63v3.35Z"/>
      <path id="DejaVuSans-61-7" data-name="DejaVuSans-61" d="M511.15,212.94c-.51,0-.86.06-1.06.17s-.29.31-.29.6c0,.22.07.4.22.53.15.13.35.2.6.2.35,0,.63-.12.84-.37s.32-.58.32-.99v-.14h-.63ZM512.4,212.68v2.18h-.63v-.58c-.14.23-.32.4-.54.51-.21.11-.48.17-.79.17-.39,0-.7-.11-.94-.33-.23-.22-.35-.51-.35-.88,0-.43.14-.75.43-.97.29-.22.72-.33,1.29-.33h.88v-.06c0-.29-.1-.51-.29-.67s-.46-.24-.8-.24c-.22,0-.43.03-.64.08-.21.05-.41.13-.6.24v-.58c.23-.09.45-.16.67-.2.22-.04.43-.07.63-.07.55,0,.97.14,1.24.43.27.29.41.72.41,1.3Z"/>
      <path id="DejaVuSans-72-4" data-name="DejaVuSans-72" d="M515.91,211.63c-.07-.04-.15-.07-.23-.09-.08-.02-.17-.03-.27-.03-.36,0-.63.12-.82.35s-.29.56-.29,1v2.02h-.63v-3.83h.63v.6c.13-.23.3-.41.52-.52.21-.11.47-.17.77-.17.04,0,.09,0,.14,0,.05,0,.11.01.17.03v.65Z"/>
      <path id="DejaVuSans-69-3" data-name="DejaVuSans-69" d="M516.57,211.04h.63v3.83h-.63v-3.83ZM516.57,209.55h.63v.8h-.63v-.8Z"/>
      <path id="DejaVuSans-61-8" data-name="DejaVuSans-61" d="M520.26,212.94c-.51,0-.86.06-1.06.17s-.29.31-.29.6c0,.22.07.4.22.53.15.13.35.2.6.2.35,0,.63-.12.84-.37s.32-.58.32-.99v-.14h-.63ZM521.51,212.68v2.18h-.63v-.58c-.14.23-.32.4-.54.51-.21.11-.48.17-.79.17-.39,0-.7-.11-.94-.33-.23-.22-.35-.51-.35-.88,0-.43.14-.75.43-.97.29-.22.72-.33,1.29-.33h.88v-.06c0-.29-.1-.51-.29-.67s-.46-.24-.8-.24c-.22,0-.43.03-.64.08-.21.05-.41.13-.6.24v-.58c.23-.09.45-.16.67-.2.22-.04.43-.07.63-.07.55,0,.97.14,1.24.43.27.29.41.72.41,1.3Z"/>
    </g>
  </g>
  <g id="text_20" data-name="text 20">
    <g>
      <path id="DejaVuSans-46" d="M436.05,239.01h2.93v.58h-2.24v1.5h2.02v.58h-2.02v2.44h-.69v-5.1Z"/>
      <path id="DejaVuSans-69-4" data-name="DejaVuSans-69" d="M439.54,240.28h.63v3.83h-.63v-3.83ZM439.54,238.79h.63v.8h-.63v-.8Z"/>
      <path id="DejaVuSans-6e-5" data-name="DejaVuSans-6e" d="M444.66,241.8v2.31h-.63v-2.29c0-.36-.07-.63-.21-.81-.14-.18-.35-.27-.64-.27-.34,0-.61.11-.8.32-.2.22-.29.51-.29.88v2.16h-.63v-3.83h.63v.6c.15-.23.33-.4.53-.52.2-.11.44-.17.71-.17.44,0,.77.14,1,.41.23.27.34.67.34,1.2Z"/>
      <path id="DejaVuSans-6c-5" data-name="DejaVuSans-6c" d="M445.92,238.79h.63v5.32h-.63v-5.32Z"/>
      <path id="DejaVuSans-61-9" data-name="DejaVuSans-61" d="M449.6,242.18c-.51,0-.86.06-1.06.17s-.29.31-.29.6c0,.22.07.4.22.53.15.13.35.2.6.2.35,0,.63-.12.84-.37s.32-.58.32-.99v-.14h-.63ZM450.86,241.92v2.18h-.63v-.58c-.14.23-.32.4-.54.51-.21.11-.48.17-.79.17-.39,0-.7-.11-.94-.33-.23-.22-.35-.51-.35-.88,0-.43.14-.75.43-.97.29-.22.72-.33,1.29-.33h.88v-.06c0-.29-.1-.51-.29-.67s-.46-.24-.8-.24c-.22,0-.43.03-.64.08-.21.05-.41.13-.6.24v-.58c.23-.09.45-.16.67-.2.22-.04.43-.07.63-.07.55,0,.97.14,1.24.43.27.29.41.72.41,1.3Z"/>
      <path id="DejaVuSans-6e-6" data-name="DejaVuSans-6e" d="M455.34,241.8v2.31h-.63v-2.29c0-.36-.07-.63-.21-.81-.14-.18-.35-.27-.64-.27-.34,0-.61.11-.8.32-.2.22-.29.51-.29.88v2.16h-.63v-3.83h.63v.6c.15-.23.33-.4.53-.52.2-.11.44-.17.71-.17.44,0,.77.14,1,.41.23.27.34.67.34,1.2Z"/>
      <path id="DejaVuSans-64-3" data-name="DejaVuSans-64" d="M459.11,240.86v-2.07h.63v5.32h-.63v-.57c-.13.23-.3.4-.5.51-.2.11-.44.17-.73.17-.46,0-.84-.18-1.13-.55-.29-.37-.44-.86-.44-1.46s.15-1.09.44-1.46c.29-.37.67-.55,1.13-.55.28,0,.53.06.73.17.2.11.37.28.5.51ZM456.97,242.2c0,.46.1.83.29,1.09.19.26.45.39.78.39s.59-.13.79-.39c.19-.26.29-.63.29-1.09s-.1-.83-.29-1.09c-.19-.26-.45-.39-.79-.39s-.59.13-.78.39-.29.63-.29,1.09Z"/>
    </g>
  </g>
  <g id="text_21" data-name="text 21">
    <g>
      <path id="DejaVuSans-4c" d="M512.84,251.09h.69v4.52h2.49v.58h-3.18v-5.1Z"/>
      <path id="DejaVuSans-69-5" data-name="DejaVuSans-69" d="M516.71,252.36h.63v3.83h-.63v-3.83ZM516.71,250.87h.63v.8h-.63v-.8Z"/>
      <path id="DejaVuSans-74-5" data-name="DejaVuSans-74" d="M519.28,251.28v1.09h1.3v.49h-1.3v2.08c0,.31.04.51.13.6s.26.13.52.13h.65v.53h-.65c-.49,0-.82-.09-1.01-.27-.18-.18-.28-.51-.28-.99v-2.08h-.46v-.49h.46v-1.09h.63Z"/>
      <path id="DejaVuSans-68" d="M524.58,253.88v2.31h-.63v-2.29c0-.36-.07-.63-.21-.81-.14-.18-.35-.27-.64-.27-.34,0-.61.11-.8.32-.2.22-.29.51-.29.88v2.16h-.63v-5.32h.63v2.09c.15-.23.33-.4.53-.52.2-.11.44-.17.71-.17.44,0,.77.14,1,.41.23.27.34.67.34,1.2Z"/>
      <path id="DejaVuSans-75-2" data-name="DejaVuSans-75" d="M525.77,254.68v-2.32h.63v2.29c0,.36.07.63.21.82.14.18.35.27.64.27.34,0,.61-.11.8-.32.2-.22.3-.51.3-.89v-2.17h.63v3.83h-.63v-.59c-.15.23-.33.41-.53.52-.2.11-.44.17-.7.17-.44,0-.77-.14-1-.41-.23-.27-.34-.67-.34-1.2ZM527.36,252.27h0Z"/>
      <path id="DejaVuSans-61-10" data-name="DejaVuSans-61" d="M532.01,254.27c-.51,0-.86.06-1.06.17s-.29.31-.29.6c0,.22.07.4.22.53.15.13.35.2.6.2.35,0,.63-.12.84-.37s.32-.58.32-.99v-.14h-.63ZM533.27,254.01v2.18h-.63v-.58c-.14.23-.32.4-.54.51-.21.11-.48.17-.79.17-.39,0-.7-.11-.94-.33-.23-.22-.35-.51-.35-.88,0-.43.14-.75.43-.97.29-.22.72-.33,1.29-.33h.88v-.06c0-.29-.1-.51-.29-.67s-.46-.24-.8-.24c-.22,0-.43.03-.64.08-.21.05-.41.13-.6.24v-.58c.23-.09.45-.16.67-.2.22-.04.43-.07.63-.07.55,0,.97.14,1.24.43.27.29.41.72.41,1.3Z"/>
      <path id="DejaVuSans-6e-7" data-name="DejaVuSans-6e" d="M537.75,253.88v2.31h-.63v-2.29c0-.36-.07-.63-.21-.81-.14-.18-.35-.27-.64-.27-.34,0-.61.11-.8.32-.2.22-.29.51-.29.88v2.16h-.63v-3.83h.63v.6c.15-.23.33-.4.53-.52.2-.11.44-.17.71-.17.44,0,.77.14,1,.41.23.27.34.67.34,1.2Z"/>
      <path id="DejaVuSans-69-6" data-name="DejaVuSans-69" d="M539,252.36h.63v3.83h-.63v-3.83ZM539,250.87h.63v.8h-.63v-.8Z"/>
      <path id="DejaVuSans-61-11" data-name="DejaVuSans-61" d="M542.69,254.27c-.51,0-.86.06-1.06.17s-.29.31-.29.6c0,.22.07.4.22.53.15.13.35.2.6.2.35,0,.63-.12.84-.37s.32-.58.32-.99v-.14h-.63ZM543.94,254.01v2.18h-.63v-.58c-.14.23-.32.4-.54.51-.21.11-.48.17-.79.17-.39,0-.7-.11-.94-.33-.23-.22-.35-.51-.35-.88,0-.43.14-.75.43-.97.29-.22.72-.33,1.29-.33h.88v-.06c0-.29-.1-.51-.29-.67s-.46-.24-.8-.24c-.22,0-.43.03-.64.08-.21.05-.41.13-.6.24v-.58c.23-.09.45-.16.67-.2.22-.04.43-.07.63-.07.55,0,.97.14,1.24.43.27.29.41.72.41,1.3Z"/>
    </g>
  </g>
  <g id="text_22" data-name="text 22">
    <g>
      <path id="DejaVuSans-4c-2" data-name="DejaVuSans-4c" d="M471.03,262.07h.69v4.52h2.49v.58h-3.18v-5.1Z"/>
      <path id="DejaVuSans-61-12" data-name="DejaVuSans-61" d="M476.64,265.25c-.51,0-.86.06-1.06.17s-.29.31-.29.6c0,.22.07.4.22.53.15.13.35.2.6.2.35,0,.63-.12.84-.37s.32-.58.32-.99v-.14h-.63ZM477.89,264.99v2.18h-.63v-.58c-.14.23-.32.4-.54.51-.21.11-.48.17-.79.17-.39,0-.7-.11-.94-.33-.23-.22-.35-.51-.35-.88,0-.43.14-.75.43-.97.29-.22.72-.33,1.29-.33h.88v-.06c0-.29-.1-.51-.29-.67s-.46-.24-.8-.24c-.22,0-.43.03-.64.08-.21.05-.41.13-.6.24v-.58c.23-.09.45-.16.67-.2.22-.04.43-.07.63-.07.55,0,.97.14,1.24.43.27.29.41.72.41,1.3Z"/>
      <path id="DejaVuSans-74-6" data-name="DejaVuSans-74" d="M479.81,262.26v1.09h1.3v.49h-1.3v2.08c0,.31.04.51.13.6s.26.13.52.13h.65v.53h-.65c-.49,0-.82-.09-1.01-.27-.18-.18-.28-.51-.28-.99v-2.08h-.46v-.49h.46v-1.09h.63Z"/>
      <path id="DejaVuSans-76-2" data-name="DejaVuSans-76" d="M481.48,263.35h.67l1.2,3.21,1.2-3.21h.67l-1.44,3.83h-.85l-1.44-3.83Z"/>
      <path id="DejaVuSans-69-7" data-name="DejaVuSans-69" d="M486.08,263.35h.63v3.83h-.63v-3.83ZM486.08,261.85h.63v.8h-.63v-.8Z"/>
      <path id="DejaVuSans-61-13" data-name="DejaVuSans-61" d="M489.76,265.25c-.51,0-.86.06-1.06.17s-.29.31-.29.6c0,.22.07.4.22.53.15.13.35.2.6.2.35,0,.63-.12.84-.37s.32-.58.32-.99v-.14h-.63ZM491.02,264.99v2.18h-.63v-.58c-.14.23-.32.4-.54.51-.21.11-.48.17-.79.17-.39,0-.7-.11-.94-.33-.23-.22-.35-.51-.35-.88,0-.43.14-.75.43-.97.29-.22.72-.33,1.29-.33h.88v-.06c0-.29-.1-.51-.29-.67s-.46-.24-.8-.24c-.22,0-.43.03-.64.08-.21.05-.41.13-.6.24v-.58c.23-.09.45-.16.67-.2.22-.04.43-.07.63-.07.55,0,.97.14,1.24.43.27.29.41.72.41,1.3Z"/>
    </g>
  </g>
  <g id="text_23" data-name="text 23">
    <g>
      <path id="DejaVuSans-41-2" data-name="DejaVuSans-41" d="M526.91,272.27l-.94,2.54h1.88l-.94-2.54ZM526.52,271.59h.78l1.94,5.1h-.72l-.46-1.31h-2.3l-.46,1.31h-.73l1.95-5.1Z"/>
      <path id="DejaVuSans-6c-6" data-name="DejaVuSans-6c" d="M529.97,271.38h.63v5.32h-.63v-5.32Z"/>
      <path id="DejaVuSans-62" d="M534.66,274.78c0-.46-.1-.83-.29-1.09s-.45-.39-.78-.39-.6.13-.79.39-.29.63-.29,1.09.1.83.29,1.09c.19.26.45.39.79.39s.59-.13.78-.39c.19-.26.29-.63.29-1.09ZM532.52,273.45c.13-.23.3-.4.5-.51.2-.11.44-.17.72-.17.47,0,.84.18,1.13.55.29.37.44.85.44,1.46s-.15,1.09-.44,1.46c-.29.37-.67.55-1.13.55-.28,0-.52-.06-.72-.17-.2-.11-.37-.28-.5-.51v.57h-.63v-5.32h.63v2.07Z"/>
      <path id="DejaVuSans-61-14" data-name="DejaVuSans-61" d="M538.1,274.77c-.51,0-.86.06-1.06.17s-.29.31-.29.6c0,.22.07.4.22.53.15.13.35.2.6.2.35,0,.63-.12.84-.37s.32-.58.32-.99v-.14h-.63ZM539.35,274.51v2.18h-.63v-.58c-.14.23-.32.4-.54.51-.21.11-.48.17-.79.17-.39,0-.7-.11-.94-.33-.23-.22-.35-.51-.35-.88,0-.43.14-.75.43-.97.29-.22.72-.33,1.29-.33h.88v-.06c0-.29-.1-.51-.29-.67s-.46-.24-.8-.24c-.22,0-.43.03-.64.08-.21.05-.41.13-.6.24v-.58c.23-.09.45-.16.67-.2.22-.04.43-.07.63-.07.55,0,.97.14,1.24.43.27.29.41.72.41,1.3Z"/>
      <path id="DejaVuSans-6e-8" data-name="DejaVuSans-6e" d="M543.83,274.38v2.31h-.63v-2.29c0-.36-.07-.63-.21-.81-.14-.18-.35-.27-.64-.27-.34,0-.61.11-.8.32-.2.22-.29.51-.29.88v2.16h-.63v-3.83h.63v.6c.15-.23.33-.4.53-.52.2-.11.44-.17.71-.17.44,0,.77.14,1,.41.23.27.34.67.34,1.2Z"/>
      <path id="DejaVuSans-69-8" data-name="DejaVuSans-69" d="M545.08,272.87h.63v3.83h-.63v-3.83ZM545.08,271.38h.63v.8h-.63v-.8Z"/>
      <path id="DejaVuSans-61-15" data-name="DejaVuSans-61" d="M548.77,274.77c-.51,0-.86.06-1.06.17s-.29.31-.29.6c0,.22.07.4.22.53.15.13.35.2.6.2.35,0,.63-.12.84-.37s.32-.58.32-.99v-.14h-.63ZM550.02,274.51v2.18h-.63v-.58c-.14.23-.32.4-.54.51-.21.11-.48.17-.79.17-.39,0-.7-.11-.94-.33-.23-.22-.35-.51-.35-.88,0-.43.14-.75.43-.97.29-.22.72-.33,1.29-.33h.88v-.06c0-.29-.1-.51-.29-.67s-.46-.24-.8-.24c-.22,0-.43.03-.64.08-.21.05-.41.13-.6.24v-.58c.23-.09.45-.16.67-.2.22-.04.43-.07.63-.07.55,0,.97.14,1.24.43.27.29.41.72.41,1.3Z"/>
    </g>
  </g>
  <g id="text_24" data-name="text 24">
    <g>
      <path id="DejaVuSans-42-2" data-name="DejaVuSans-42" d="M520.99,282.84v1.87h1.11c.37,0,.65-.08.82-.23.18-.15.27-.39.27-.71s-.09-.55-.27-.71c-.18-.15-.45-.23-.82-.23h-1.11ZM520.99,280.74v1.54h1.02c.34,0,.59-.06.75-.19.17-.13.25-.32.25-.58s-.08-.45-.25-.58c-.16-.13-.42-.19-.75-.19h-1.02ZM520.3,280.17h1.76c.53,0,.93.11,1.22.33.29.22.43.53.43.93,0,.31-.07.56-.22.75s-.36.3-.64.34c.34.07.6.23.79.46.19.23.28.52.28.87,0,.46-.15.81-.46,1.06-.31.25-.75.37-1.32.37h-1.83v-5.1Z"/>
      <path id="DejaVuSans-65-6" data-name="DejaVuSans-65" d="M528.35,283.2v.31h-2.89c.03.43.16.76.39.99.23.23.56.34.98.34.24,0,.48-.03.7-.09s.45-.15.68-.27v.6c-.23.1-.46.17-.69.22s-.48.08-.72.08c-.61,0-1.09-.18-1.45-.53-.36-.36-.53-.84-.53-1.44s.17-1.12.51-1.49c.34-.37.79-.55,1.37-.55.51,0,.92.17,1.22.5.3.33.45.78.45,1.35ZM527.72,283.02c0-.34-.1-.62-.29-.82-.19-.21-.44-.31-.75-.31-.35,0-.63.1-.84.3s-.33.48-.36.84h2.24Z"/>
      <path id="DejaVuSans-6c-7" data-name="DejaVuSans-6c" d="M529.38,279.96h.63v5.32h-.63v-5.32Z"/>
      <path id="DejaVuSans-67-2" data-name="DejaVuSans-67" d="M533.85,283.32c0-.46-.09-.81-.28-1.06-.19-.25-.45-.38-.79-.38s-.6.13-.79.38c-.19.25-.28.6-.28,1.06s.09.81.28,1.06c.19.25.45.38.79.38s.6-.13.79-.38c.19-.25.28-.6.28-1.06ZM534.48,284.8c0,.65-.14,1.14-.43,1.45-.29.32-.73.48-1.33.48-.22,0-.43-.02-.63-.05s-.39-.08-.57-.15v-.61c.18.1.37.17.55.22.18.05.36.07.55.07.41,0,.72-.11.93-.32.2-.22.31-.54.31-.98v-.31c-.13.23-.3.39-.5.51s-.45.17-.73.17c-.47,0-.85-.18-1.13-.54-.29-.36-.43-.83-.43-1.42s.14-1.07.43-1.42c.29-.36.67-.54,1.13-.54.28,0,.53.06.73.17s.37.28.5.51v-.58h.63v3.35Z"/>
      <path id="DejaVuSans-69-9" data-name="DejaVuSans-69" d="M535.77,281.45h.63v3.83h-.63v-3.83ZM535.77,279.96h.63v.8h-.63v-.8Z"/>
      <path id="DejaVuSans-75-3" data-name="DejaVuSans-75" d="M537.65,283.76v-2.32h.63v2.29c0,.36.07.63.21.82.14.18.35.27.64.27.34,0,.61-.11.8-.32.2-.22.3-.51.3-.89v-2.17h.63v3.83h-.63v-.59c-.15.23-.33.41-.53.52-.2.11-.44.17-.7.17-.44,0-.77-.14-1-.41-.23-.27-.34-.67-.34-1.2ZM539.24,281.36h0Z"/>
      <path id="DejaVuSans-6d-3" data-name="DejaVuSans-6d" d="M545.13,282.18c.16-.28.35-.49.56-.63s.48-.2.77-.2c.4,0,.71.14.92.42.22.28.32.68.32,1.19v2.31h-.63v-2.29c0-.37-.07-.64-.2-.82-.13-.18-.33-.27-.59-.27-.33,0-.58.11-.77.32-.19.22-.28.51-.28.88v2.16h-.63v-2.29c0-.37-.06-.64-.19-.82s-.33-.26-.6-.26c-.32,0-.58.11-.77.33-.19.22-.28.51-.28.88v2.16h-.63v-3.83h.63v.6c.14-.23.32-.41.52-.52s.44-.17.71-.17.52.07.71.21c.19.14.34.35.43.61Z"/>
    </g>
  </g>
  <g id="text_25" data-name="text 25">
    <g>
      <path id="DejaVuSans-52" d="M435.4,286.66c.15.05.29.16.43.32s.28.39.42.68l.7,1.39h-.74l-.65-1.31c-.17-.34-.33-.57-.49-.68s-.37-.17-.65-.17h-.75v2.16h-.69v-5.1h1.56c.58,0,1.02.12,1.31.37.29.24.43.61.43,1.1,0,.32-.07.59-.22.8-.15.21-.37.36-.65.44ZM433.67,284.52v1.81h.87c.33,0,.58-.08.75-.23s.25-.38.25-.68-.08-.52-.25-.67-.42-.23-.75-.23h-.87Z"/>
      <path id="DejaVuSans-6f-6" data-name="DejaVuSans-6f" d="M438.98,285.67c-.34,0-.6.13-.8.39s-.29.62-.29,1.08.1.82.29,1.08c.2.26.46.39.8.39s.6-.13.8-.4c.2-.26.29-.62.29-1.08s-.1-.81-.29-1.08c-.2-.27-.46-.4-.8-.4ZM438.98,285.13c.55,0,.98.18,1.29.53.31.36.47.85.47,1.48s-.16,1.12-.47,1.48c-.31.36-.74.53-1.29.53s-.98-.18-1.29-.53c-.31-.36-.47-.85-.47-1.48s.16-1.12.47-1.48c.31-.36.74-.53,1.29-.53Z"/>
      <path id="DejaVuSans-6d-4" data-name="DejaVuSans-6d" d="M444.76,285.96c.16-.28.35-.49.56-.63s.48-.2.77-.2c.4,0,.71.14.92.42.22.28.32.68.32,1.19v2.31h-.63v-2.29c0-.37-.07-.64-.2-.82-.13-.18-.33-.27-.59-.27-.33,0-.58.11-.77.32-.19.22-.28.51-.28.88v2.16h-.63v-2.29c0-.37-.06-.64-.19-.82s-.33-.26-.6-.26c-.32,0-.58.11-.77.33-.19.22-.28.51-.28.88v2.16h-.63v-3.83h.63v.6c.14-.23.32-.41.52-.52s.44-.17.71-.17.52.07.71.21c.19.14.34.35.43.61Z"/>
      <path id="DejaVuSans-61-16" data-name="DejaVuSans-61" d="M450.34,287.13c-.51,0-.86.06-1.06.17s-.29.31-.29.6c0,.22.07.4.22.53.15.13.35.2.6.2.35,0,.63-.12.84-.37s.32-.58.32-.99v-.14h-.63ZM451.6,286.87v2.18h-.63v-.58c-.14.23-.32.4-.54.51-.21.11-.48.17-.79.17-.39,0-.7-.11-.94-.33-.23-.22-.35-.51-.35-.88,0-.43.14-.75.43-.97.29-.22.72-.33,1.29-.33h.88v-.06c0-.29-.1-.51-.29-.67s-.46-.24-.8-.24c-.22,0-.43.03-.64.08-.21.05-.41.13-.6.24v-.58c.23-.09.45-.16.67-.2.22-.04.43-.07.63-.07.55,0,.97.14,1.24.43.27.29.41.72.41,1.3Z"/>
      <path id="DejaVuSans-6e-9" data-name="DejaVuSans-6e" d="M456.07,286.74v2.31h-.63v-2.29c0-.36-.07-.63-.21-.81-.14-.18-.35-.27-.64-.27-.34,0-.61.11-.8.32-.2.22-.29.51-.29.88v2.16h-.63v-3.83h.63v.6c.15-.23.33-.4.53-.52.2-.11.44-.17.71-.17.44,0,.77.14,1,.41.23.27.34.67.34,1.2Z"/>
      <path id="DejaVuSans-69-10" data-name="DejaVuSans-69" d="M457.33,285.22h.63v3.83h-.63v-3.83ZM457.33,283.73h.63v.8h-.63v-.8Z"/>
      <path id="DejaVuSans-61-17" data-name="DejaVuSans-61" d="M461.01,287.13c-.51,0-.86.06-1.06.17s-.29.31-.29.6c0,.22.07.4.22.53.15.13.35.2.6.2.35,0,.63-.12.84-.37s.32-.58.32-.99v-.14h-.63ZM462.27,286.87v2.18h-.63v-.58c-.14.23-.32.4-.54.51-.21.11-.48.17-.79.17-.39,0-.7-.11-.94-.33-.23-.22-.35-.51-.35-.88,0-.43.14-.75.43-.97.29-.22.72-.33,1.29-.33h.88v-.06c0-.29-.1-.51-.29-.67s-.46-.24-.8-.24c-.22,0-.43.03-.64.08-.21.05-.41.13-.6.24v-.58c.23-.09.45-.16.67-.2.22-.04.43-.07.63-.07.55,0,.97.14,1.24.43.27.29.41.72.41,1.3Z"/>
    </g>
  </g>
  <g id="text_26" data-name="text 26">
    <g>
      <path id="DejaVuSans-53-2" data-name="DejaVuSans-53" d="M392.43,276.42v.67c-.26-.13-.51-.22-.74-.28-.23-.06-.46-.09-.67-.09-.38,0-.67.07-.87.22-.2.15-.31.35-.31.62,0,.23.07.4.2.51.14.11.39.21.77.28l.42.09c.51.1.89.27,1.14.52s.37.58.37.99c0,.5-.17.87-.5,1.13-.33.26-.82.38-1.46.38-.24,0-.5-.03-.77-.08-.27-.05-.55-.14-.85-.24v-.71c.28.16.55.28.82.36.27.08.53.12.79.12.39,0,.7-.08.91-.23.21-.16.32-.38.32-.66,0-.25-.08-.45-.23-.59s-.41-.25-.76-.32l-.42-.08c-.51-.1-.89-.26-1.12-.48-.23-.22-.34-.52-.34-.91,0-.45.16-.81.48-1.07.32-.26.76-.39,1.31-.39.24,0,.48.02.73.07.25.04.5.11.76.19Z"/>
      <path id="DejaVuSans-77" d="M393.42,277.53h.63l.79,2.99.78-2.99h.74l.79,2.99.78-2.99h.63l-1,3.83h-.74l-.82-3.14-.83,3.14h-.74l-1-3.83Z"/>
      <path id="DejaVuSans-65-7" data-name="DejaVuSans-65" d="M402.78,279.28v.31h-2.89c.03.43.16.76.39.99.23.23.56.34.98.34.24,0,.48-.03.7-.09s.45-.15.68-.27v.6c-.23.1-.46.17-.69.22s-.48.08-.72.08c-.61,0-1.09-.18-1.45-.53-.36-.36-.53-.84-.53-1.44s.17-1.12.51-1.49c.34-.37.79-.55,1.37-.55.51,0,.92.17,1.22.5.3.33.45.78.45,1.35ZM402.15,279.1c0-.34-.1-.62-.29-.82-.19-.21-.44-.31-.75-.31-.35,0-.63.1-.84.3s-.33.48-.36.84h2.24Z"/>
      <path id="DejaVuSans-64-4" data-name="DejaVuSans-64" d="M406.33,278.11v-2.07h.63v5.32h-.63v-.57c-.13.23-.3.4-.5.51-.2.11-.44.17-.73.17-.46,0-.84-.18-1.13-.55-.29-.37-.44-.86-.44-1.46s.15-1.09.44-1.46c.29-.37.67-.55,1.13-.55.28,0,.53.06.73.17.2.11.37.28.5.51ZM404.19,279.45c0,.46.1.83.29,1.09.19.26.45.39.78.39s.59-.13.79-.39c.19-.26.29-.63.29-1.09s-.1-.83-.29-1.09c-.19-.26-.45-.39-.79-.39s-.59.13-.78.39-.29.63-.29,1.09Z"/>
      <path id="DejaVuSans-65-8" data-name="DejaVuSans-65" d="M411.53,279.28v.31h-2.89c.03.43.16.76.39.99.23.23.56.34.98.34.24,0,.48-.03.7-.09s.45-.15.68-.27v.6c-.23.1-.46.17-.69.22s-.48.08-.72.08c-.61,0-1.09-.18-1.45-.53-.36-.36-.53-.84-.53-1.44s.17-1.12.51-1.49c.34-.37.79-.55,1.37-.55.51,0,.92.17,1.22.5.3.33.45.78.45,1.35ZM410.9,279.1c0-.34-.1-.62-.29-.82-.19-.21-.44-.31-.75-.31-.35,0-.63.1-.84.3s-.33.48-.36.84h2.24Z"/>
      <path id="DejaVuSans-6e-10" data-name="DejaVuSans-6e" d="M415.75,279.04v2.31h-.63v-2.29c0-.36-.07-.63-.21-.81-.14-.18-.35-.27-.64-.27-.34,0-.61.11-.8.32-.2.22-.29.51-.29.88v2.16h-.63v-3.83h.63v.6c.15-.23.33-.4.53-.52.2-.11.44-.17.71-.17.44,0,.77.14,1,.41.23.27.34.67.34,1.2Z"/>
    </g>
  </g>
  <g id="text_27" data-name="text 27">
    <g>
      <path id="DejaVuSans-43" d="M467.34,295.75v.73c-.23-.22-.48-.38-.74-.48-.26-.11-.54-.16-.84-.16-.58,0-1.03.18-1.34.53s-.46.87-.46,1.55.15,1.19.46,1.54.76.53,1.34.53c.3,0,.58-.05.84-.16s.51-.27.74-.49v.72c-.24.16-.5.29-.77.37-.27.08-.55.12-.86.12-.77,0-1.38-.24-1.83-.71-.44-.47-.67-1.12-.67-1.94s.22-1.47.67-1.94c.44-.47,1.05-.71,1.83-.71.3,0,.59.04.86.12.27.08.52.2.76.36Z"/>
      <path id="DejaVuSans-72-5" data-name="DejaVuSans-72" d="M470.6,297.21c-.07-.04-.15-.07-.23-.09-.08-.02-.17-.03-.27-.03-.36,0-.63.12-.82.35s-.29.56-.29,1v2.02h-.63v-3.83h.63v.6c.13-.23.3-.41.52-.52.21-.11.47-.17.77-.17.04,0,.09,0,.14,0,.05,0,.11.01.17.03v.65Z"/>
      <path id="DejaVuSans-6f-7" data-name="DejaVuSans-6f" d="M472.58,297.07c-.34,0-.6.13-.8.39s-.29.62-.29,1.08.1.82.29,1.08c.2.26.46.39.8.39s.6-.13.8-.4c.2-.26.29-.62.29-1.08s-.1-.81-.29-1.08c-.2-.27-.46-.4-.8-.4ZM472.58,296.54c.55,0,.98.18,1.29.53.31.36.47.85.47,1.48s-.16,1.12-.47,1.48c-.31.36-.74.53-1.29.53s-.98-.18-1.29-.53c-.31-.36-.47-.85-.47-1.48s.16-1.12.47-1.48c.31-.36.74-.53,1.29-.53Z"/>
      <path id="DejaVuSans-61-18" data-name="DejaVuSans-61" d="M477.12,298.53c-.51,0-.86.06-1.06.17s-.29.31-.29.6c0,.22.07.4.22.53.15.13.35.2.6.2.35,0,.63-.12.84-.37s.32-.58.32-.99v-.14h-.63ZM478.38,298.27v2.18h-.63v-.58c-.14.23-.32.4-.54.51-.21.11-.48.17-.79.17-.39,0-.7-.11-.94-.33-.23-.22-.35-.51-.35-.88,0-.43.14-.75.43-.97.29-.22.72-.33,1.29-.33h.88v-.06c0-.29-.1-.51-.29-.67s-.46-.24-.8-.24c-.22,0-.43.03-.64.08-.21.05-.41.13-.6.24v-.58c.23-.09.45-.16.67-.2.22-.04.43-.07.63-.07.55,0,.97.14,1.24.43.27.29.41.72.41,1.3Z"/>
      <path id="DejaVuSans-74-7" data-name="DejaVuSans-74" d="M480.29,295.54v1.09h1.3v.49h-1.3v2.08c0,.31.04.51.13.6s.26.13.52.13h.65v.53h-.65c-.49,0-.82-.09-1.01-.27-.18-.18-.28-.51-.28-.99v-2.08h-.46v-.49h.46v-1.09h.63Z"/>
      <path id="DejaVuSans-69-11" data-name="DejaVuSans-69" d="M482.42,296.63h.63v3.83h-.63v-3.83ZM482.42,295.14h.63v.8h-.63v-.8Z"/>
      <path id="DejaVuSans-61-19" data-name="DejaVuSans-61" d="M486.1,298.53c-.51,0-.86.06-1.06.17s-.29.31-.29.6c0,.22.07.4.22.53.15.13.35.2.6.2.35,0,.63-.12.84-.37s.32-.58.32-.99v-.14h-.63ZM487.35,298.27v2.18h-.63v-.58c-.14.23-.32.4-.54.51-.21.11-.48.17-.79.17-.39,0-.7-.11-.94-.33-.23-.22-.35-.51-.35-.88,0-.43.14-.75.43-.97.29-.22.72-.33,1.29-.33h.88v-.06c0-.29-.1-.51-.29-.67s-.46-.24-.8-.24c-.22,0-.43.03-.64.08-.21.05-.41.13-.6.24v-.58c.23-.09.45-.16.67-.2.22-.04.43-.07.63-.07.55,0,.97.14,1.24.43.27.29.41.72.41,1.3Z"/>
    </g>
  </g>
  <g id="text_28" data-name="text 28">
    <g>
      <path id="DejaVuSans-4d-8" data-name="DejaVuSans-4d" d="M525.43,298.13h1.03l1.3,3.47,1.31-3.47h1.03v5.1h-.67v-4.48l-1.32,3.5h-.69l-1.32-3.5v4.48h-.67v-5.1Z"/>
      <path id="DejaVuSans-6f-8" data-name="DejaVuSans-6f" d="M532.92,299.85c-.34,0-.6.13-.8.39s-.29.62-.29,1.08.1.82.29,1.08c.2.26.46.39.8.39s.6-.13.8-.4c.2-.26.29-.62.29-1.08s-.1-.81-.29-1.08c-.2-.27-.46-.4-.8-.4ZM532.92,299.32c.55,0,.98.18,1.29.53.31.36.47.85.47,1.48s-.16,1.12-.47,1.48c-.31.36-.74.53-1.29.53s-.98-.18-1.29-.53c-.31-.36-.47-.85-.47-1.48s.16-1.12.47-1.48c.31-.36.74-.53,1.29-.53Z"/>
      <path id="DejaVuSans-6e-11" data-name="DejaVuSans-6e" d="M538.9,300.93v2.31h-.63v-2.29c0-.36-.07-.63-.21-.81-.14-.18-.35-.27-.64-.27-.34,0-.61.11-.8.32-.2.22-.29.51-.29.88v2.16h-.63v-3.83h.63v.6c.15-.23.33-.4.53-.52.2-.11.44-.17.71-.17.44,0,.77.14,1,.41.23.27.34.67.34,1.2Z"/>
      <path id="DejaVuSans-74-8" data-name="DejaVuSans-74" d="M540.78,298.32v1.09h1.3v.49h-1.3v2.08c0,.31.04.51.13.6s.26.13.52.13h.65v.53h-.65c-.49,0-.82-.09-1.01-.27-.18-.18-.28-.51-.28-.99v-2.08h-.46v-.49h.46v-1.09h.63Z"/>
      <path id="DejaVuSans-65-9" data-name="DejaVuSans-65" d="M546.18,301.17v.31h-2.89c.03.43.16.76.39.99.23.23.56.34.98.34.24,0,.48-.03.7-.09s.45-.15.68-.27v.6c-.23.1-.46.17-.69.22s-.48.08-.72.08c-.61,0-1.09-.18-1.45-.53-.36-.36-.53-.84-.53-1.44s.17-1.12.51-1.49c.34-.37.79-.55,1.37-.55.51,0,.92.17,1.22.5.3.33.45.78.45,1.35ZM545.55,300.98c0-.34-.1-.62-.29-.82-.19-.21-.44-.31-.75-.31-.35,0-.63.1-.84.3s-.33.48-.36.84h2.24Z"/>
      <path id="DejaVuSans-6e-12" data-name="DejaVuSans-6e" d="M550.39,300.93v2.31h-.63v-2.29c0-.36-.07-.63-.21-.81-.14-.18-.35-.27-.64-.27-.34,0-.61.11-.8.32-.2.22-.29.51-.29.88v2.16h-.63v-3.83h.63v.6c.15-.23.33-.4.53-.52.2-.11.44-.17.71-.17.44,0,.77.14,1,.41.23.27.34.67.34,1.2Z"/>
      <path id="DejaVuSans-65-10" data-name="DejaVuSans-65" d="M554.92,301.17v.31h-2.89c.03.43.16.76.39.99.23.23.56.34.98.34.24,0,.48-.03.7-.09s.45-.15.68-.27v.6c-.23.1-.46.17-.69.22s-.48.08-.72.08c-.61,0-1.09-.18-1.45-.53-.36-.36-.53-.84-.53-1.44s.17-1.12.51-1.49c.34-.37.79-.55,1.37-.55.51,0,.92.17,1.22.5.3.33.45.78.45,1.35ZM554.29,300.98c0-.34-.1-.62-.29-.82-.19-.21-.44-.31-.75-.31-.35,0-.63.1-.84.3s-.33.48-.36.84h2.24Z"/>
      <path id="DejaVuSans-67-3" data-name="DejaVuSans-67" d="M558.47,301.28c0-.46-.09-.81-.28-1.06-.19-.25-.45-.38-.79-.38s-.6.13-.79.38c-.19.25-.28.6-.28,1.06s.09.81.28,1.06c.19.25.45.38.79.38s.6-.13.79-.38c.19-.25.28-.6.28-1.06ZM559.1,302.76c0,.65-.14,1.14-.43,1.45-.29.32-.73.48-1.33.48-.22,0-.43-.02-.63-.05s-.39-.08-.57-.15v-.61c.18.1.37.17.55.22.18.05.36.07.55.07.41,0,.72-.11.93-.32.2-.22.31-.54.31-.98v-.31c-.13.23-.3.39-.5.51s-.45.17-.73.17c-.47,0-.85-.18-1.13-.54-.29-.36-.43-.83-.43-1.42s.14-1.07.43-1.42c.29-.36.67-.54,1.13-.54.28,0,.53.06.73.17s.37.28.5.51v-.58h.63v3.35Z"/>
      <path id="DejaVuSans-72-6" data-name="DejaVuSans-72" d="M562.61,300c-.07-.04-.15-.07-.23-.09-.08-.02-.17-.03-.27-.03-.36,0-.63.12-.82.35s-.29.56-.29,1v2.02h-.63v-3.83h.63v.6c.13-.23.3-.41.52-.52.21-.11.47-.17.77-.17.04,0,.09,0,.14,0,.05,0,.11.01.17.03v.65Z"/>
      <path id="DejaVuSans-6f-9" data-name="DejaVuSans-6f" d="M564.6,299.85c-.34,0-.6.13-.8.39s-.29.62-.29,1.08.1.82.29,1.08c.2.26.46.39.8.39s.6-.13.8-.4c.2-.26.29-.62.29-1.08s-.1-.81-.29-1.08c-.2-.27-.46-.4-.8-.4ZM564.6,299.32c.55,0,.98.18,1.29.53.31.36.47.85.47,1.48s-.16,1.12-.47,1.48c-.31.36-.74.53-1.29.53s-.98-.18-1.29-.53c-.31-.36-.47-.85-.47-1.48s.16-1.12.47-1.48c.31-.36.74-.53,1.29-.53Z"/>
    </g>
  </g>
  <g id="text_29" data-name="text 29">
    <g>
      <path id="DejaVuSans-53-3" data-name="DejaVuSans-53" d="M75.8,294.87v.67c-.26-.13-.51-.22-.74-.28-.23-.06-.46-.09-.67-.09-.38,0-.67.07-.87.22-.2.15-.31.35-.31.62,0,.23.07.4.2.51.14.11.39.21.77.28l.42.09c.51.1.89.27,1.14.52s.37.58.37.99c0,.5-.17.87-.5,1.13-.33.26-.82.38-1.46.38-.24,0-.5-.03-.77-.08-.27-.05-.55-.14-.85-.24v-.71c.28.16.55.28.82.36.27.08.53.12.79.12.39,0,.7-.08.91-.23.21-.16.32-.38.32-.66,0-.25-.08-.45-.23-.59s-.41-.25-.76-.32l-.42-.08c-.51-.1-.89-.26-1.12-.48-.23-.22-.34-.52-.34-.91,0-.45.16-.81.48-1.07.32-.26.76-.39,1.31-.39.24,0,.48.02.73.07.25.04.5.11.76.19Z"/>
      <path id="DejaVuSans-70" d="M77.77,299.23v2.03h-.63v-5.28h.63v.58c.13-.23.3-.4.5-.51.2-.11.44-.17.72-.17.47,0,.84.18,1.13.55.29.37.44.85.44,1.46s-.15,1.09-.44,1.46c-.29.37-.67.55-1.13.55-.28,0-.52-.06-.72-.17-.2-.11-.37-.28-.5-.51ZM79.91,297.89c0-.46-.1-.83-.29-1.09s-.45-.39-.78-.39-.6.13-.79.39-.29.63-.29,1.09.1.83.29,1.09c.19.26.45.39.79.39s.59-.13.78-.39c.19-.26.29-.63.29-1.09Z"/>
      <path id="DejaVuSans-61-20" data-name="DejaVuSans-61" d="M83.35,297.88c-.51,0-.86.06-1.06.17s-.29.31-.29.6c0,.22.07.4.22.53.15.13.35.2.6.2.35,0,.63-.12.84-.37s.32-.58.32-.99v-.14h-.63ZM84.6,297.62v2.18h-.63v-.58c-.14.23-.32.4-.54.51-.21.11-.48.17-.79.17-.39,0-.7-.11-.94-.33-.23-.22-.35-.51-.35-.88,0-.43.14-.75.43-.97.29-.22.72-.33,1.29-.33h.88v-.06c0-.29-.1-.51-.29-.67s-.46-.24-.8-.24c-.22,0-.43.03-.64.08-.21.05-.41.13-.6.24v-.58c.23-.09.45-.16.67-.2.22-.04.43-.07.63-.07.55,0,.97.14,1.24.43.27.29.41.72.41,1.3Z"/>
      <path id="DejaVuSans-69-12" data-name="DejaVuSans-69" d="M85.89,295.98h.63v3.83h-.63v-3.83ZM85.89,294.49h.63v.8h-.63v-.8Z"/>
      <path id="DejaVuSans-6e-13" data-name="DejaVuSans-6e" d="M91.02,297.49v2.31h-.63v-2.29c0-.36-.07-.63-.21-.81-.14-.18-.35-.27-.64-.27-.34,0-.61.11-.8.32-.2.22-.29.51-.29.88v2.16h-.63v-3.83h.63v.6c.15-.23.33-.4.53-.52.2-.11.44-.17.71-.17.44,0,.77.14,1,.41.23.27.34.67.34,1.2Z"/>
    </g>
  </g>
  <g id="text_30" data-name="text 30">
    <g>
      <path id="DejaVuSans-Bold-45" class="cls-5" d="M269.23,12.13h6.09v1.71h-3.83v1.63h3.6v1.71h-3.6v2h3.96v1.7h-6.22v-8.75Z"/>
      <path id="DejaVuSans-Bold-75" class="cls-5" d="M277.27,18.32v-4.01h2.11v.66c0,.35,0,.8,0,1.34s0,.9,0,1.07c0,.53.01.91.04,1.14s.07.4.14.51c.09.14.2.24.34.32.14.07.3.11.48.11.44,0,.78-.17,1.03-.5.25-.34.37-.8.37-1.4v-3.24h2.1v6.56h-2.1v-.95c-.32.38-.65.66-1,.85-.35.18-.74.27-1.17.27-.76,0-1.34-.23-1.73-.7-.4-.46-.59-1.14-.59-2.03Z"/>
      <path id="DejaVuSans-Bold-72" class="cls-5" d="M290.76,16.1c-.18-.09-.37-.15-.55-.19-.18-.04-.36-.06-.55-.06-.54,0-.95.17-1.24.52-.29.34-.44.84-.44,1.48v3.02h-2.1v-6.56h2.1v1.08c.27-.43.58-.74.93-.94.35-.2.77-.3,1.26-.3.07,0,.15,0,.23,0,.08,0,.2.02.36.04v1.9Z"/>
      <path id="DejaVuSans-Bold-6f" class="cls-5" d="M294.92,15.66c-.46,0-.82.17-1.06.5s-.37.82-.37,1.44.12,1.11.37,1.45c.24.33.6.5,1.06.5s.81-.17,1.05-.5c.24-.33.36-.82.36-1.45s-.12-1.11-.36-1.44c-.24-.33-.59-.5-1.05-.5ZM294.92,14.16c1.13,0,2.01.31,2.65.91.64.61.95,1.45.95,2.53s-.32,1.92-.95,2.53c-.64.61-1.52.91-2.65.91s-2.02-.3-2.66-.91c-.64-.61-.96-1.45-.96-2.53s.32-1.92.96-2.53c.64-.61,1.52-.91,2.66-.91Z"/>
      <path id="DejaVuSans-Bold-70" class="cls-5" d="M302.14,19.93v3.44h-2.1v-9.06h2.1v.96c.29-.38.61-.66.96-.85.35-.18.76-.27,1.21-.27.81,0,1.47.32,1.99.96.52.64.78,1.47.78,2.48s-.26,1.84-.78,2.48c-.52.64-1.18.96-1.99.96-.46,0-.86-.09-1.21-.27-.35-.18-.67-.46-.96-.85ZM303.53,15.68c-.45,0-.79.16-1.03.49-.24.33-.36.81-.36,1.43s.12,1.1.36,1.43c.24.33.59.49,1.03.49s.79-.16,1.03-.49c.24-.33.36-.81.36-1.43s-.12-1.1-.36-1.43c-.24-.33-.58-.49-1.03-.49Z"/>
      <path id="DejaVuSans-Bold-65" class="cls-5" d="M315.18,17.58v.6h-4.9c.05.49.23.86.53,1.11s.73.37,1.28.37c.44,0,.89-.07,1.36-.2.46-.13.94-.33,1.43-.59v1.62c-.5.19-.99.33-1.49.43-.5.1-.99.14-1.49.14-1.19,0-2.11-.3-2.77-.91-.66-.6-.99-1.45-.99-2.54s.32-1.91.97-2.52c.65-.61,1.54-.92,2.67-.92,1.03,0,1.86.31,2.47.93.62.62.93,1.45.93,2.49ZM313.03,16.88c0-.4-.12-.72-.35-.96-.23-.25-.54-.37-.91-.37-.41,0-.74.11-.99.34s-.41.56-.47.99h2.72Z"/>
    </g>
  </g>
</svg>