<?xml version="1.0" encoding="UTF-8"?>
<svg id="Layer_1" data-name="Layer 1" xmlns="http://www.w3.org/2000/svg" viewBox="0 0 554.52 335.87">
  <defs>
    <style>
      .cls-1 {
        fill: #fff;
      }

      .cls-2, .cls-3 {
        fill: none;
      }

      .cls-4, .cls-5 {
        fill: #e78ac3;
      }

      .cls-3 {
        stroke-linecap: square;
      }

      .cls-3, .cls-6 {
        stroke: #000;
        stroke-width: .8px;
      }

      .cls-5 {
        stroke: #e78ac3;
      }

      .cls-5, .cls-6 {
        stroke-linejoin: round;
      }
    </style>
  </defs>
  <g id="patch_2" data-name="patch 2">
    <path class="cls-1" d="M42.94,306.28h511.18V15.12H42.94v291.16Z"/>
  </g>
  <g id="PathCollection_1" data-name="PathCollection 1">
    <rect class="cls-2" x="42.94" y="15.12" width="511.18" height="291.16"/>
    <path id="mf85f28f796" class="cls-5" d="M298.53,165.17c1.19,0,2.32-.47,3.16-1.31.84-.84,1.31-1.98,1.31-3.16s-.47-2.32-1.31-3.16c-.84-.84-1.98-1.31-3.16-1.31s-2.32.47-3.16,1.31c-.84.84-1.31,1.98-1.31,3.16s.47,2.32,1.31,3.16c.84.84,1.98,1.31,3.16,1.31Z"/>
  </g>
  <g id="matplotlib.axis_1" data-name="matplotlib.axis 1">
    <g id="xtick_1" data-name="xtick 1">
      <g id="line2d_1" data-name="line2d 1">
        <path id="mbfa6b75db8" class="cls-6" d="M499.44,306.28v3.5"/>
      </g>
      <g id="text_1" data-name="text 1">
        <g>
          <path id="DejaVuSans-31" d="M488.42,320.05h1.61v-5.56l-1.75.35v-.9l1.74-.35h.99v6.46h1.61v.83h-4.2v-.83Z"/>
          <path id="DejaVuSans-2e" d="M494.61,319.64h1.03v1.24h-1.03v-1.24Z"/>
          <path id="DejaVuSans-32" d="M498.64,320.05h3.44v.83h-4.63v-.83c.37-.39.88-.91,1.53-1.56.65-.65,1.05-1.07,1.22-1.26.32-.35.54-.65.66-.9.13-.25.19-.49.19-.73,0-.39-.14-.7-.41-.95-.27-.24-.63-.37-1.06-.37-.31,0-.64.05-.98.16-.34.11-.71.27-1.1.49v-1c.4-.16.77-.28,1.11-.36.35-.08.66-.12.95-.12.76,0,1.36.19,1.81.57.45.38.67.88.67,1.51,0,.3-.06.58-.17.85-.11.27-.32.58-.61.95-.08.09-.34.37-.78.82-.44.45-1.05,1.08-1.85,1.89Z"/>
          <path id="DejaVuSans-4d" d="M504.06,313.59h1.47l1.86,4.96,1.87-4.96h1.47v7.29h-.96v-6.4l-1.88,5h-.99l-1.88-5v6.4h-.96v-7.29Z"/>
        </g>
      </g>
    </g>
    <g id="xtick_2" data-name="xtick 2">
      <g id="line2d_2" data-name="line2d 2">
        <path id="mbfa6b75db8-2" data-name="mbfa6b75db8" class="cls-6" d="M424.09,306.28v3.5"/>
      </g>
      <g id="text_2" data-name="text 2">
        <g>
          <path id="DejaVuSans-31-2" data-name="DejaVuSans-31" d="M413.06,320.05h1.61v-5.56l-1.75.35v-.9l1.74-.35h.99v6.46h1.61v.83h-4.2v-.83Z"/>
          <path id="DejaVuSans-2e-2" data-name="DejaVuSans-2e" d="M419.25,319.64h1.03v1.24h-1.03v-1.24Z"/>
          <path id="DejaVuSans-32-2" data-name="DejaVuSans-32" d="M423.28,320.05h3.44v.83h-4.63v-.83c.37-.39.88-.91,1.53-1.56.65-.65,1.05-1.07,1.22-1.26.32-.35.54-.65.66-.9.13-.25.19-.49.19-.73,0-.39-.14-.7-.41-.95-.27-.24-.63-.37-1.06-.37-.31,0-.64.05-.98.16-.34.11-.71.27-1.1.49v-1c.4-.16.77-.28,1.11-.36.35-.08.66-.12.95-.12.76,0,1.36.19,1.81.57.45.38.67.88.67,1.51,0,.3-.06.58-.17.85-.11.27-.32.58-.61.95-.08.09-.34.37-.78.82-.44.45-1.05,1.08-1.85,1.89Z"/>
          <path id="DejaVuSans-4d-2" data-name="DejaVuSans-4d" d="M428.7,313.59h1.47l1.86,4.96,1.87-4.96h1.47v7.29h-.96v-6.4l-1.88,5h-.99l-1.88-5v6.4h-.96v-7.29Z"/>
        </g>
      </g>
    </g>
    <g id="xtick_3" data-name="xtick 3">
      <g id="line2d_3" data-name="line2d 3">
        <path id="mbfa6b75db8-3" data-name="mbfa6b75db8" class="cls-6" d="M348.73,306.28v3.5"/>
      </g>
      <g id="text_3" data-name="text 3">
        <g>
          <path id="DejaVuSans-31-3" data-name="DejaVuSans-31" d="M337.7,320.05h1.61v-5.56l-1.75.35v-.9l1.74-.35h.99v6.46h1.61v.83h-4.2v-.83Z"/>
          <path id="DejaVuSans-2e-3" data-name="DejaVuSans-2e" d="M343.89,319.64h1.03v1.24h-1.03v-1.24Z"/>
          <path id="DejaVuSans-32-3" data-name="DejaVuSans-32" d="M347.92,320.05h3.44v.83h-4.63v-.83c.37-.39.88-.91,1.53-1.56.65-.65,1.05-1.07,1.22-1.26.32-.35.54-.65.66-.9.13-.25.19-.49.19-.73,0-.39-.14-.7-.41-.95-.27-.24-.63-.37-1.06-.37-.31,0-.64.05-.98.16-.34.11-.71.27-1.1.49v-1c.4-.16.77-.28,1.11-.36.35-.08.66-.12.95-.12.76,0,1.36.19,1.81.57.45.38.67.88.67,1.51,0,.3-.06.58-.17.85-.11.27-.32.58-.61.95-.08.09-.34.37-.78.82-.44.45-1.05,1.08-1.85,1.89Z"/>
          <path id="DejaVuSans-4d-3" data-name="DejaVuSans-4d" d="M353.35,313.59h1.47l1.86,4.96,1.87-4.96h1.47v7.29h-.96v-6.4l-1.88,5h-.99l-1.88-5v6.4h-.96v-7.29Z"/>
        </g>
      </g>
    </g>
    <g id="xtick_4" data-name="xtick 4">
      <g id="line2d_4" data-name="line2d 4">
        <path id="mbfa6b75db8-4" data-name="mbfa6b75db8" class="cls-6" d="M273.37,306.28v3.5"/>
      </g>
      <g id="text_4" data-name="text 4">
        <g>
          <path id="DejaVuSans-31-4" data-name="DejaVuSans-31" d="M262.34,320.05h1.61v-5.56l-1.75.35v-.9l1.74-.35h.99v6.46h1.61v.83h-4.2v-.83Z"/>
          <path id="DejaVuSans-2e-4" data-name="DejaVuSans-2e" d="M268.53,319.64h1.03v1.24h-1.03v-1.24Z"/>
          <path id="DejaVuSans-32-4" data-name="DejaVuSans-32" d="M272.56,320.05h3.44v.83h-4.63v-.83c.37-.39.88-.91,1.53-1.56.65-.65,1.05-1.07,1.22-1.26.32-.35.54-.65.66-.9.13-.25.19-.49.19-.73,0-.39-.14-.7-.41-.95-.27-.24-.63-.37-1.06-.37-.31,0-.64.05-.98.16-.34.11-.71.27-1.1.49v-1c.4-.16.77-.28,1.11-.36.35-.08.66-.12.95-.12.76,0,1.36.19,1.81.57.45.38.67.88.67,1.51,0,.3-.06.58-.17.85-.11.27-.32.58-.61.95-.08.09-.34.37-.78.82-.44.45-1.05,1.08-1.85,1.89Z"/>
          <path id="DejaVuSans-4d-4" data-name="DejaVuSans-4d" d="M277.99,313.59h1.47l1.86,4.96,1.87-4.96h1.47v7.29h-.96v-6.4l-1.88,5h-.99l-1.88-5v6.4h-.96v-7.29Z"/>
        </g>
      </g>
    </g>
    <g id="xtick_5" data-name="xtick 5">
      <g id="line2d_5" data-name="line2d 5">
        <path id="mbfa6b75db8-5" data-name="mbfa6b75db8" class="cls-6" d="M198.01,306.28v3.5"/>
      </g>
      <g id="text_5" data-name="text 5">
        <g>
          <path id="DejaVuSans-31-5" data-name="DejaVuSans-31" d="M186.98,320.05h1.61v-5.56l-1.75.35v-.9l1.74-.35h.99v6.46h1.61v.83h-4.2v-.83Z"/>
          <path id="DejaVuSans-2e-5" data-name="DejaVuSans-2e" d="M193.17,319.64h1.03v1.24h-1.03v-1.24Z"/>
          <path id="DejaVuSans-33" d="M199.34,316.95c.47.1.84.31,1.1.63.27.32.4.71.4,1.18,0,.72-.25,1.28-.74,1.67-.49.39-1.2.59-2.11.59-.31,0-.62-.03-.94-.09-.32-.06-.66-.15-1-.27v-.95c.27.16.57.28.9.36.33.08.67.12,1.02.12.62,0,1.09-.12,1.41-.37s.49-.6.49-1.06c0-.43-.15-.77-.45-1.01-.3-.24-.72-.36-1.26-.36h-.85v-.81h.89c.48,0,.86-.1,1.11-.29s.39-.47.39-.84-.13-.66-.4-.86c-.26-.2-.64-.3-1.14-.3-.27,0-.56.03-.87.09-.31.06-.65.15-1.02.27v-.88c.38-.1.73-.18,1.05-.23s.64-.08.93-.08c.75,0,1.34.17,1.78.51.44.34.65.8.65,1.38,0,.4-.12.75-.35,1.02s-.56.47-.99.58Z"/>
          <path id="DejaVuSans-4d-5" data-name="DejaVuSans-4d" d="M202.63,313.59h1.47l1.86,4.96,1.87-4.96h1.47v7.29h-.96v-6.4l-1.88,5h-.99l-1.88-5v6.4h-.96v-7.29Z"/>
        </g>
      </g>
    </g>
    <g id="xtick_6" data-name="xtick 6">
      <g id="line2d_6" data-name="line2d 6">
        <path id="mbfa6b75db8-6" data-name="mbfa6b75db8" class="cls-6" d="M122.65,306.28v3.5"/>
      </g>
      <g id="text_6" data-name="text 6">
        <g>
          <path id="DejaVuSans-31-6" data-name="DejaVuSans-31" d="M111.62,320.05h1.61v-5.56l-1.75.35v-.9l1.74-.35h.99v6.46h1.61v.83h-4.2v-.83Z"/>
          <path id="DejaVuSans-2e-6" data-name="DejaVuSans-2e" d="M117.82,319.64h1.03v1.24h-1.03v-1.24Z"/>
          <path id="DejaVuSans-33-2" data-name="DejaVuSans-33" d="M123.98,316.95c.47.1.84.31,1.1.63.27.32.4.71.4,1.18,0,.72-.25,1.28-.74,1.67-.49.39-1.2.59-2.11.59-.31,0-.62-.03-.94-.09-.32-.06-.66-.15-1-.27v-.95c.27.16.57.28.9.36.33.08.67.12,1.02.12.62,0,1.09-.12,1.41-.37s.49-.6.49-1.06c0-.43-.15-.77-.45-1.01-.3-.24-.72-.36-1.26-.36h-.85v-.81h.89c.48,0,.86-.1,1.11-.29s.39-.47.39-.84-.13-.66-.4-.86c-.26-.2-.64-.3-1.14-.3-.27,0-.56.03-.87.09-.31.06-.65.15-1.02.27v-.88c.38-.1.73-.18,1.05-.23s.64-.08.93-.08c.75,0,1.34.17,1.78.51.44.34.65.8.65,1.38,0,.4-.12.75-.35,1.02s-.56.47-.99.58Z"/>
          <path id="DejaVuSans-4d-6" data-name="DejaVuSans-4d" d="M127.27,313.59h1.47l1.86,4.96,1.87-4.96h1.47v7.29h-.96v-6.4l-1.88,5h-.99l-1.88-5v6.4h-.96v-7.29Z"/>
        </g>
      </g>
    </g>
    <g id="xtick_7" data-name="xtick 7">
      <g id="line2d_7" data-name="line2d 7">
        <path id="mbfa6b75db8-7" data-name="mbfa6b75db8" class="cls-6" d="M47.29,306.28v3.5"/>
      </g>
      <g id="text_7" data-name="text 7">
        <g>
          <path id="DejaVuSans-31-7" data-name="DejaVuSans-31" d="M36.27,320.05h1.61v-5.56l-1.75.35v-.9l1.74-.35h.99v6.46h1.61v.83h-4.2v-.83Z"/>
          <path id="DejaVuSans-2e-7" data-name="DejaVuSans-2e" d="M42.46,319.64h1.03v1.24h-1.03v-1.24Z"/>
          <path id="DejaVuSans-33-3" data-name="DejaVuSans-33" d="M48.62,316.95c.47.1.84.31,1.1.63.27.32.4.71.4,1.18,0,.72-.25,1.28-.74,1.67-.49.39-1.2.59-2.11.59-.31,0-.62-.03-.94-.09-.32-.06-.66-.15-1-.27v-.95c.27.16.57.28.9.36.33.08.67.12,1.02.12.62,0,1.09-.12,1.41-.37s.49-.6.49-1.06c0-.43-.15-.77-.45-1.01-.3-.24-.72-.36-1.26-.36h-.85v-.81h.89c.48,0,.86-.1,1.11-.29s.39-.47.39-.84-.13-.66-.4-.86c-.26-.2-.64-.3-1.14-.3-.27,0-.56.03-.87.09-.31.06-.65.15-1.02.27v-.88c.38-.1.73-.18,1.05-.23s.64-.08.93-.08c.75,0,1.34.17,1.78.51.44.34.65.8.65,1.38,0,.4-.12.75-.35,1.02s-.56.47-.99.58Z"/>
          <path id="DejaVuSans-4d-7" data-name="DejaVuSans-4d" d="M51.91,313.59h1.47l1.86,4.96,1.87-4.96h1.47v7.29h-.96v-6.4l-1.88,5h-.99l-1.88-5v6.4h-.96v-7.29Z"/>
        </g>
      </g>
    </g>
    <g id="text_8" data-name="text 8">
      <g>
        <path id="DejaVuSans-54" d="M252.57,327.26h6.17v.83h-2.59v6.46h-.99v-6.46h-2.59v-.83Z"/>
        <path id="DejaVuSans-6f" d="M260.07,329.72c-.48,0-.86.19-1.14.56s-.42.89-.42,1.55.14,1.17.42,1.55c.28.38.66.56,1.15.56s.86-.19,1.14-.57c.28-.38.42-.89.42-1.54s-.14-1.16-.42-1.54c-.28-.38-.66-.57-1.14-.57ZM260.07,328.95c.78,0,1.39.25,1.84.76.45.51.67,1.21.67,2.11s-.22,1.6-.67,2.11c-.45.51-1.06.76-1.84.76s-1.4-.25-1.84-.76c-.44-.51-.67-1.21-.67-2.11s.22-1.6.67-2.11c.44-.51,1.06-.76,1.84-.76Z"/>
        <path id="DejaVuSans-74" d="M264.96,327.53v1.55h1.85v.7h-1.85v2.97c0,.45.06.73.18.86s.37.19.75.19h.92v.75h-.92c-.69,0-1.17-.13-1.44-.39-.26-.26-.4-.73-.4-1.41v-2.97h-.66v-.7h.66v-1.55h.9Z"/>
        <path id="DejaVuSans-61" d="M270.48,331.81c-.73,0-1.23.08-1.51.25s-.42.45-.42.85c0,.32.11.57.32.76.21.19.5.28.86.28.5,0,.9-.18,1.2-.53s.45-.82.45-1.41v-.2h-.89ZM272.27,331.43v3.12h-.9v-.83c-.21.33-.46.58-.77.73-.31.16-.68.24-1.12.24-.56,0-1-.16-1.34-.47-.33-.31-.5-.74-.5-1.26,0-.61.21-1.08.62-1.39.41-.31,1.03-.47,1.84-.47h1.26v-.09c0-.41-.14-.73-.41-.96s-.65-.34-1.15-.34c-.31,0-.62.04-.91.11-.3.08-.58.19-.85.34v-.83c.33-.13.65-.22.96-.28.31-.06.61-.1.9-.1.79,0,1.38.21,1.77.62.39.41.59,1.03.59,1.86Z"/>
        <path id="DejaVuSans-6c" d="M274.12,326.96h.9v7.6h-.9v-7.6Z"/>
        <path id="DejaVuSans-41" d="M282.55,328.24l-1.34,3.63h2.68l-1.34-3.63ZM281.99,327.26h1.12l2.78,7.29h-1.03l-.66-1.87h-3.29l-.66,1.87h-1.04l2.78-7.29Z"/>
        <path id="DejaVuSans-72" d="M290.08,329.92c-.1-.06-.21-.1-.33-.13-.12-.03-.25-.04-.39-.04-.51,0-.9.17-1.17.5s-.41.8-.41,1.42v2.88h-.9v-5.47h.9v.85c.19-.33.44-.58.74-.74.3-.16.67-.24,1.1-.24.06,0,.13,0,.2.01.08,0,.16.02.25.04v.92Z"/>
        <path id="DejaVuSans-65" d="M295.48,331.6v.44h-4.13c.04.62.23,1.09.56,1.41.33.32.8.49,1.39.49.34,0,.68-.04,1-.13s.65-.21.97-.38v.85c-.32.14-.65.24-.99.31s-.68.11-1.03.11c-.87,0-1.56-.25-2.07-.76-.51-.51-.76-1.2-.76-2.06s.24-1.6.73-2.13c.48-.53,1.14-.79,1.96-.79.74,0,1.32.24,1.75.71.43.47.64,1.12.64,1.93ZM294.58,331.33c0-.49-.14-.88-.41-1.18-.27-.29-.62-.44-1.07-.44-.5,0-.9.14-1.2.43s-.47.68-.52,1.2h3.2Z"/>
        <path id="DejaVuSans-61-2" data-name="DejaVuSans-61" d="M299.44,331.81c-.73,0-1.23.08-1.51.25s-.42.45-.42.85c0,.32.11.57.32.76.21.19.5.28.86.28.5,0,.9-.18,1.2-.53s.45-.82.45-1.41v-.2h-.89ZM301.23,331.43v3.12h-.9v-.83c-.21.33-.46.58-.77.73-.31.16-.68.24-1.12.24-.56,0-1-.16-1.34-.47-.33-.31-.5-.74-.5-1.26,0-.61.21-1.08.62-1.39.41-.31,1.03-.47,1.84-.47h1.26v-.09c0-.41-.14-.73-.41-.96s-.65-.34-1.15-.34c-.31,0-.62.04-.91.11-.3.08-.58.19-.85.34v-.83c.33-.13.65-.22.96-.28.31-.06.61-.1.9-.1.79,0,1.38.21,1.77.62.39.41.59,1.03.59,1.86Z"/>
        <path id="DejaVuSans-28" d="M308.42,326.97c-.44.75-.76,1.49-.97,2.22-.21.73-.32,1.47-.32,2.23s.11,1.5.32,2.23.54,1.48.97,2.23h-.78c-.49-.77-.85-1.52-1.1-2.26-.24-.74-.36-1.47-.36-2.2s.12-1.46.36-2.19c.24-.74.61-1.49,1.1-2.26h.78Z"/>
        <path id="DejaVuSans-4d-8" data-name="DejaVuSans-4d" d="M310.2,327.26h1.47l1.86,4.96,1.87-4.96h1.47v7.29h-.96v-6.4l-1.88,5h-.99l-1.88-5v6.4h-.96v-7.29Z"/>
        <path id="DejaVuSans-6b" d="M321.93,326.96h.9v4.49l2.68-2.36h1.15l-2.9,2.56,3.02,2.91h-1.17l-2.78-2.67v2.67h-.9v-7.6Z"/>
        <path id="DejaVuSans-6d" d="M332.02,330.14c.23-.4.49-.7.81-.89s.68-.29,1.1-.29c.57,0,1.01.2,1.32.6.31.4.46.96.46,1.7v3.3h-.9v-3.27c0-.52-.09-.91-.28-1.17-.19-.25-.47-.38-.85-.38-.47,0-.83.15-1.1.46-.27.31-.4.73-.4,1.26v3.09h-.9v-3.27c0-.53-.09-.92-.28-1.17s-.47-.38-.86-.38c-.46,0-.82.16-1.1.47-.27.31-.4.73-.4,1.26v3.09h-.9v-5.47h.9v.85c.21-.34.45-.58.74-.74s.63-.24,1.02-.24.74.1,1.01.3c.28.2.48.49.62.88Z"/>
        <path id="DejaVuSans-b2" d="M337.87,330.74h2.07v.56h-2.92v-.54c.11-.1.27-.24.47-.43,1.12-.99,1.68-1.64,1.68-1.95,0-.21-.08-.39-.25-.52-.17-.13-.39-.2-.67-.2-.17,0-.35.03-.55.09-.2.06-.41.14-.65.25v-.6c.25-.09.48-.16.7-.2.22-.05.42-.07.6-.07.47,0,.85.11,1.13.32.28.21.43.5.43.85,0,.45-.54,1.14-1.62,2.07-.18.16-.32.28-.42.37Z"/>
        <path id="DejaVuSans-29" d="M341.37,326.97h.78c.49.77.85,1.52,1.1,2.26.24.74.36,1.47.36,2.19s-.12,1.46-.36,2.2c-.24.74-.61,1.49-1.1,2.26h-.78c.43-.75.76-1.49.97-2.23.21-.74.32-1.48.32-2.23s-.11-1.49-.32-2.23c-.21-.73-.54-1.47-.97-2.22Z"/>
      </g>
    </g>
  </g>
  <g id="matplotlib.axis_2" data-name="matplotlib.axis 2">
    <g id="ytick_1" data-name="ytick 1">
      <g id="line2d_8" data-name="line2d 8">
        <path id="me900bc2336" class="cls-6" d="M42.94,281.81h-3.5"/>
      </g>
      <g id="text_9" data-name="text 9">
        <g>
          <path id="DejaVuSans-33-4" data-name="DejaVuSans-33" d="M17.74,281.67c.47.1.84.31,1.1.63.27.32.4.71.4,1.18,0,.72-.25,1.28-.74,1.67-.49.39-1.2.59-2.11.59-.31,0-.62-.03-.94-.09-.32-.06-.66-.15-1-.27v-.95c.27.16.57.28.9.36.33.08.67.12,1.02.12.62,0,1.09-.12,1.41-.37s.49-.6.49-1.06c0-.43-.15-.77-.45-1.01-.3-.24-.72-.36-1.26-.36h-.85v-.81h.89c.48,0,.86-.1,1.11-.29s.39-.47.39-.84-.13-.66-.4-.86c-.26-.2-.64-.3-1.14-.3-.27,0-.56.03-.87.09-.31.06-.65.15-1.02.27v-.88c.38-.1.73-.18,1.05-.23s.64-.08.93-.08c.75,0,1.34.17,1.78.51.44.34.65.8.65,1.38,0,.4-.12.75-.35,1.02s-.56.47-.99.58Z"/>
          <path id="DejaVuSans-39" d="M21.14,285.45v-.9c.25.12.5.21.75.27.25.06.5.09.75.09.65,0,1.15-.22,1.49-.66.34-.44.54-1.1.59-2-.19.28-.43.5-.72.65-.29.15-.61.23-.96.23-.73,0-1.31-.22-1.73-.66-.43-.44-.64-1.05-.64-1.81s.22-1.35.66-1.8c.44-.45,1.03-.68,1.77-.68.84,0,1.49.32,1.93.97.44.65.67,1.58.67,2.81,0,1.15-.27,2.07-.82,2.75-.54.69-1.28,1.03-2.2,1.03-.25,0-.5-.02-.75-.07-.25-.05-.52-.12-.79-.22ZM23.1,282.36c.44,0,.79-.15,1.05-.45.26-.3.39-.72.39-1.25s-.13-.94-.39-1.24c-.26-.3-.61-.46-1.05-.46s-.79.15-1.05.46c-.26.3-.39.72-.39,1.24s.13.94.39,1.25c.26.3.61.45,1.05.45Z"/>
          <path id="DejaVuSans-2e-8" data-name="DejaVuSans-2e" d="M27.47,284.37h1.03v1.24h-1.03v-1.24Z"/>
          <path id="DejaVuSans-30" d="M32.76,278.97c-.51,0-.89.25-1.15.75-.26.5-.38,1.25-.38,2.25s.13,1.75.38,2.25c.26.5.64.75,1.15.75s.89-.25,1.15-.75c.26-.5.38-1.25.38-2.25s-.13-1.75-.38-2.25c-.26-.5-.64-.75-1.15-.75ZM32.76,278.18c.82,0,1.44.32,1.87.97.43.65.65,1.58.65,2.81s-.22,2.16-.65,2.81c-.43.65-1.06.97-1.87.97s-1.44-.32-1.87-.97c-.43-.65-.65-1.58-.65-2.81s.22-2.17.65-2.81c.43-.65,1.06-.97,1.87-.97Z"/>
        </g>
      </g>
    </g>
    <g id="ytick_2" data-name="ytick 2">
      <g id="line2d_9" data-name="line2d 9">
        <path id="me900bc2336-2" data-name="me900bc2336" class="cls-6" d="M42.94,249.42h-3.5"/>
      </g>
      <g id="text_10" data-name="text 10">
        <g>
          <path id="DejaVuSans-33-5" data-name="DejaVuSans-33" d="M17.74,249.29c.47.1.84.31,1.1.63.27.32.4.71.4,1.18,0,.72-.25,1.28-.74,1.67-.49.39-1.2.59-2.11.59-.31,0-.62-.03-.94-.09-.32-.06-.66-.15-1-.27v-.95c.27.16.57.28.9.36.33.08.67.12,1.02.12.62,0,1.09-.12,1.41-.37s.49-.6.49-1.06c0-.43-.15-.77-.45-1.01-.3-.24-.72-.36-1.26-.36h-.85v-.81h.89c.48,0,.86-.1,1.11-.29s.39-.47.39-.84-.13-.66-.4-.86c-.26-.2-.64-.3-1.14-.3-.27,0-.56.03-.87.09-.31.06-.65.15-1.02.27v-.88c.38-.1.73-.18,1.05-.23s.64-.08.93-.08c.75,0,1.34.17,1.78.51.44.34.65.8.65,1.38,0,.4-.12.75-.35,1.02s-.56.47-.99.58Z"/>
          <path id="DejaVuSans-39-2" data-name="DejaVuSans-39" d="M21.14,253.07v-.9c.25.12.5.21.75.27.25.06.5.09.75.09.65,0,1.15-.22,1.49-.66.34-.44.54-1.1.59-2-.19.28-.43.5-.72.65-.29.15-.61.23-.96.23-.73,0-1.31-.22-1.73-.66-.43-.44-.64-1.05-.64-1.81s.22-1.35.66-1.8c.44-.45,1.03-.68,1.77-.68.84,0,1.49.32,1.93.97.44.65.67,1.58.67,2.81,0,1.15-.27,2.07-.82,2.75-.54.69-1.28,1.03-2.2,1.03-.25,0-.5-.02-.75-.07-.25-.05-.52-.12-.79-.22ZM23.1,249.98c.44,0,.79-.15,1.05-.45.26-.3.39-.72.39-1.25s-.13-.94-.39-1.24c-.26-.3-.61-.46-1.05-.46s-.79.15-1.05.46c-.26.3-.39.72-.39,1.24s.13.94.39,1.25c.26.3.61.45,1.05.45Z"/>
          <path id="DejaVuSans-2e-9" data-name="DejaVuSans-2e" d="M27.47,251.98h1.03v1.24h-1.03v-1.24Z"/>
          <path id="DejaVuSans-35" d="M30.66,245.93h3.87v.83h-2.97v1.79c.14-.05.29-.09.43-.11.14-.02.29-.04.43-.04.81,0,1.46.22,1.93.67.48.45.71,1.05.71,1.81s-.24,1.39-.73,1.83c-.49.43-1.18.65-2.07.65-.31,0-.62-.03-.94-.08-.32-.05-.64-.13-.98-.23v-.99c.29.16.6.28.91.36s.64.12.99.12c.56,0,1.01-.15,1.34-.44.33-.3.49-.7.49-1.21s-.16-.91-.49-1.2c-.33-.3-.77-.45-1.34-.45-.26,0-.53.03-.79.09-.26.06-.53.15-.8.27v-3.66Z"/>
        </g>
      </g>
    </g>
    <g id="ytick_3" data-name="ytick 3">
      <g id="line2d_10" data-name="line2d 10">
        <path id="me900bc2336-3" data-name="me900bc2336" class="cls-6" d="M42.94,217.04h-3.5"/>
      </g>
      <g id="text_11" data-name="text 11">
        <g>
          <path id="DejaVuSans-34" d="M17.46,214.41l-2.49,3.89h2.49v-3.89ZM17.2,213.55h1.24v4.75h1.04v.82h-1.04v1.72h-.98v-1.72h-3.29v-.95l3.03-4.62Z"/>
          <path id="DejaVuSans-30-2" data-name="DejaVuSans-30" d="M23.22,214.2c-.51,0-.89.25-1.15.75-.26.5-.38,1.25-.38,2.25s.13,1.75.38,2.25c.26.5.64.75,1.15.75s.89-.25,1.15-.75c.26-.5.38-1.25.38-2.25s-.13-1.75-.38-2.25c-.26-.5-.64-.75-1.15-.75ZM23.22,213.42c.82,0,1.44.32,1.87.97.43.65.65,1.58.65,2.81s-.22,2.16-.65,2.81c-.43.65-1.06.97-1.87.97s-1.44-.32-1.87-.97c-.43-.65-.65-1.58-.65-2.81s.22-2.17.65-2.81c.43-.65,1.06-.97,1.87-.97Z"/>
          <path id="DejaVuSans-2e-10" data-name="DejaVuSans-2e" d="M27.47,219.6h1.03v1.24h-1.03v-1.24Z"/>
          <path id="DejaVuSans-30-3" data-name="DejaVuSans-30" d="M32.76,214.2c-.51,0-.89.25-1.15.75-.26.5-.38,1.25-.38,2.25s.13,1.75.38,2.25c.26.5.64.75,1.15.75s.89-.25,1.15-.75c.26-.5.38-1.25.38-2.25s-.13-1.75-.38-2.25c-.26-.5-.64-.75-1.15-.75ZM32.76,213.42c.82,0,1.44.32,1.87.97.43.65.65,1.58.65,2.81s-.22,2.16-.65,2.81c-.43.65-1.06.97-1.87.97s-1.44-.32-1.87-.97c-.43-.65-.65-1.58-.65-2.81s.22-2.17.65-2.81c.43-.65,1.06-.97,1.87-.97Z"/>
        </g>
      </g>
    </g>
    <g id="ytick_4" data-name="ytick 4">
      <g id="line2d_11" data-name="line2d 11">
        <path id="me900bc2336-4" data-name="me900bc2336" class="cls-6" d="M42.94,184.66h-3.5"/>
      </g>
      <g id="text_12" data-name="text 12">
        <g>
          <path id="DejaVuSans-34-2" data-name="DejaVuSans-34" d="M17.46,182.03l-2.49,3.89h2.49v-3.89ZM17.2,181.17h1.24v4.75h1.04v.82h-1.04v1.72h-.98v-1.72h-3.29v-.95l3.03-4.62Z"/>
          <path id="DejaVuSans-30-4" data-name="DejaVuSans-30" d="M23.22,181.82c-.51,0-.89.25-1.15.75-.26.5-.38,1.25-.38,2.25s.13,1.75.38,2.25c.26.5.64.75,1.15.75s.89-.25,1.15-.75c.26-.5.38-1.25.38-2.25s-.13-1.75-.38-2.25c-.26-.5-.64-.75-1.15-.75ZM23.22,181.04c.82,0,1.44.32,1.87.97.43.65.65,1.58.65,2.81s-.22,2.16-.65,2.81c-.43.65-1.06.97-1.87.97s-1.44-.32-1.87-.97c-.43-.65-.65-1.58-.65-2.81s.22-2.17.65-2.81c.43-.65,1.06-.97,1.87-.97Z"/>
          <path id="DejaVuSans-2e-11" data-name="DejaVuSans-2e" d="M27.47,187.22h1.03v1.24h-1.03v-1.24Z"/>
          <path id="DejaVuSans-35-2" data-name="DejaVuSans-35" d="M30.66,181.17h3.87v.83h-2.97v1.79c.14-.05.29-.09.43-.11.14-.02.29-.04.43-.04.81,0,1.46.22,1.93.67.48.45.71,1.05.71,1.81s-.24,1.39-.73,1.83c-.49.43-1.18.65-2.07.65-.31,0-.62-.03-.94-.08-.32-.05-.64-.13-.98-.23v-.99c.29.16.6.28.91.36s.64.12.99.12c.56,0,1.01-.15,1.34-.44.33-.3.49-.7.49-1.21s-.16-.91-.49-1.2c-.33-.3-.77-.45-1.34-.45-.26,0-.53.03-.79.09-.26.06-.53.15-.8.27v-3.66Z"/>
        </g>
      </g>
    </g>
    <g id="ytick_5" data-name="ytick 5">
      <g id="line2d_12" data-name="line2d 12">
        <path id="me900bc2336-5" data-name="me900bc2336" class="cls-6" d="M42.94,152.28h-3.5"/>
      </g>
      <g id="text_13" data-name="text 13">
        <g>
          <path id="DejaVuSans-34-3" data-name="DejaVuSans-34" d="M17.46,149.65l-2.49,3.89h2.49v-3.89ZM17.2,148.79h1.24v4.75h1.04v.82h-1.04v1.72h-.98v-1.72h-3.29v-.95l3.03-4.62Z"/>
          <path id="DejaVuSans-31-8" data-name="DejaVuSans-31" d="M21.28,155.25h1.61v-5.56l-1.75.35v-.9l1.74-.35h.99v6.46h1.61v.83h-4.2v-.83Z"/>
          <path id="DejaVuSans-2e-12" data-name="DejaVuSans-2e" d="M27.47,154.84h1.03v1.24h-1.03v-1.24Z"/>
          <path id="DejaVuSans-30-5" data-name="DejaVuSans-30" d="M32.76,149.44c-.51,0-.89.25-1.15.75-.26.5-.38,1.25-.38,2.25s.13,1.75.38,2.25c.26.5.64.75,1.15.75s.89-.25,1.15-.75c.26-.5.38-1.25.38-2.25s-.13-1.75-.38-2.25c-.26-.5-.64-.75-1.15-.75ZM32.76,148.66c.82,0,1.44.32,1.87.97.43.65.65,1.58.65,2.81s-.22,2.16-.65,2.81c-.43.65-1.06.97-1.87.97s-1.44-.32-1.87-.97c-.43-.65-.65-1.58-.65-2.81s.22-2.17.65-2.81c.43-.65,1.06-.97,1.87-.97Z"/>
        </g>
      </g>
    </g>
    <g id="ytick_6" data-name="ytick 6">
      <g id="line2d_13" data-name="line2d 13">
        <path id="me900bc2336-6" data-name="me900bc2336" class="cls-6" d="M42.94,119.9h-3.5"/>
      </g>
      <g id="text_14" data-name="text 14">
        <g>
          <path id="DejaVuSans-34-4" data-name="DejaVuSans-34" d="M17.46,117.26l-2.49,3.89h2.49v-3.89ZM17.2,116.41h1.24v4.75h1.04v.82h-1.04v1.72h-.98v-1.72h-3.29v-.95l3.03-4.62Z"/>
          <path id="DejaVuSans-31-9" data-name="DejaVuSans-31" d="M21.28,122.87h1.61v-5.56l-1.75.35v-.9l1.74-.35h.99v6.46h1.61v.83h-4.2v-.83Z"/>
          <path id="DejaVuSans-2e-13" data-name="DejaVuSans-2e" d="M27.47,122.46h1.03v1.24h-1.03v-1.24Z"/>
          <path id="DejaVuSans-35-3" data-name="DejaVuSans-35" d="M30.66,116.41h3.87v.83h-2.97v1.79c.14-.05.29-.09.43-.11.14-.02.29-.04.43-.04.81,0,1.46.22,1.93.67.48.45.71,1.05.71,1.81s-.24,1.39-.73,1.83c-.49.43-1.18.65-2.07.65-.31,0-.62-.03-.94-.08-.32-.05-.64-.13-.98-.23v-.99c.29.16.6.28.91.36s.64.12.99.12c.56,0,1.01-.15,1.34-.44.33-.3.49-.7.49-1.21s-.16-.91-.49-1.2c-.33-.3-.77-.45-1.34-.45-.26,0-.53.03-.79.09-.26.06-.53.15-.8.27v-3.66Z"/>
        </g>
      </g>
    </g>
    <g id="ytick_7" data-name="ytick 7">
      <g id="line2d_14" data-name="line2d 14">
        <path id="me900bc2336-7" data-name="me900bc2336" class="cls-6" d="M42.94,87.51h-3.5"/>
      </g>
      <g id="text_15" data-name="text 15">
        <g>
          <path id="DejaVuSans-34-5" data-name="DejaVuSans-34" d="M17.46,84.88l-2.49,3.89h2.49v-3.89ZM17.2,84.02h1.24v4.75h1.04v.82h-1.04v1.72h-.98v-1.72h-3.29v-.95l3.03-4.62Z"/>
          <path id="DejaVuSans-32-5" data-name="DejaVuSans-32" d="M21.96,90.48h3.44v.83h-4.63v-.83c.37-.39.88-.91,1.53-1.56.65-.65,1.05-1.07,1.22-1.26.32-.35.54-.65.66-.9.13-.25.19-.49.19-.73,0-.39-.14-.7-.41-.95-.27-.24-.63-.37-1.06-.37-.31,0-.64.05-.98.16-.34.11-.71.27-1.1.49v-1c.4-.16.77-.28,1.11-.36.35-.08.66-.12.95-.12.76,0,1.36.19,1.81.57.45.38.67.88.67,1.51,0,.3-.06.58-.17.85-.11.27-.32.58-.61.95-.08.09-.34.37-.78.82-.44.45-1.05,1.08-1.85,1.89Z"/>
          <path id="DejaVuSans-2e-14" data-name="DejaVuSans-2e" d="M27.47,90.07h1.03v1.24h-1.03v-1.24Z"/>
          <path id="DejaVuSans-30-6" data-name="DejaVuSans-30" d="M32.76,84.67c-.51,0-.89.25-1.15.75-.26.5-.38,1.25-.38,2.25s.13,1.75.38,2.25c.26.5.64.75,1.15.75s.89-.25,1.15-.75c.26-.5.38-1.25.38-2.25s-.13-1.75-.38-2.25c-.26-.5-.64-.75-1.15-.75ZM32.76,83.89c.82,0,1.44.32,1.87.97.43.65.65,1.58.65,2.81s-.22,2.16-.65,2.81c-.43.65-1.06.97-1.87.97s-1.44-.32-1.87-.97c-.43-.65-.65-1.58-.65-2.81s.22-2.17.65-2.81c.43-.65,1.06-.97,1.87-.97Z"/>
        </g>
      </g>
    </g>
    <g id="ytick_8" data-name="ytick 8">
      <g id="line2d_15" data-name="line2d 15">
        <path id="me900bc2336-8" data-name="me900bc2336" class="cls-6" d="M42.94,55.13h-3.5"/>
      </g>
      <g id="text_16" data-name="text 16">
        <g>
          <path id="DejaVuSans-34-6" data-name="DejaVuSans-34" d="M17.46,52.5l-2.49,3.89h2.49v-3.89ZM17.2,51.64h1.24v4.75h1.04v.82h-1.04v1.72h-.98v-1.72h-3.29v-.95l3.03-4.62Z"/>
          <path id="DejaVuSans-32-6" data-name="DejaVuSans-32" d="M21.96,58.1h3.44v.83h-4.63v-.83c.37-.39.88-.91,1.53-1.56.65-.65,1.05-1.07,1.22-1.26.32-.35.54-.65.66-.9.13-.25.19-.49.19-.73,0-.39-.14-.7-.41-.95-.27-.24-.63-.37-1.06-.37-.31,0-.64.05-.98.16-.34.11-.71.27-1.1.49v-1c.4-.16.77-.28,1.11-.36.35-.08.66-.12.95-.12.76,0,1.36.19,1.81.57.45.38.67.88.67,1.51,0,.3-.06.58-.17.85-.11.27-.32.58-.61.95-.08.09-.34.37-.78.82-.44.45-1.05,1.08-1.85,1.89Z"/>
          <path id="DejaVuSans-2e-15" data-name="DejaVuSans-2e" d="M27.47,57.69h1.03v1.24h-1.03v-1.24Z"/>
          <path id="DejaVuSans-35-4" data-name="DejaVuSans-35" d="M30.66,51.64h3.87v.83h-2.97v1.79c.14-.05.29-.09.43-.11.14-.02.29-.04.43-.04.81,0,1.46.22,1.93.67.48.45.71,1.05.71,1.81s-.24,1.39-.73,1.83c-.49.43-1.18.65-2.07.65-.31,0-.62-.03-.94-.08-.32-.05-.64-.13-.98-.23v-.99c.29.16.6.28.91.36s.64.12.99.12c.56,0,1.01-.15,1.34-.44.33-.3.49-.7.49-1.21s-.16-.91-.49-1.2c-.33-.3-.77-.45-1.34-.45-.26,0-.53.03-.79.09-.26.06-.53.15-.8.27v-3.66Z"/>
        </g>
      </g>
    </g>
    <g id="ytick_9" data-name="ytick 9">
      <g id="line2d_16" data-name="line2d 16">
        <path id="me900bc2336-9" data-name="me900bc2336" class="cls-6" d="M42.94,22.75h-3.5"/>
      </g>
      <g id="text_17" data-name="text 17">
        <g>
          <path id="DejaVuSans-34-7" data-name="DejaVuSans-34" d="M17.46,20.12l-2.49,3.89h2.49v-3.89ZM17.2,19.26h1.24v4.75h1.04v.82h-1.04v1.72h-.98v-1.72h-3.29v-.95l3.03-4.62Z"/>
          <path id="DejaVuSans-33-6" data-name="DejaVuSans-33" d="M24.1,22.62c.47.1.84.31,1.1.63.27.32.4.71.4,1.18,0,.72-.25,1.28-.74,1.67-.49.39-1.2.59-2.11.59-.31,0-.62-.03-.94-.09-.32-.06-.66-.15-1-.27v-.95c.27.16.57.28.9.36.33.08.67.12,1.02.12.62,0,1.09-.12,1.41-.37s.49-.6.49-1.06c0-.43-.15-.77-.45-1.01-.3-.24-.72-.36-1.26-.36h-.85v-.81h.89c.48,0,.86-.1,1.11-.29s.39-.47.39-.84-.13-.66-.4-.86c-.26-.2-.64-.3-1.14-.3-.27,0-.56.03-.87.09-.31.06-.65.15-1.02.27v-.88c.38-.1.73-.18,1.05-.23s.64-.08.93-.08c.75,0,1.34.17,1.78.51.44.34.65.8.65,1.38,0,.4-.12.75-.35,1.02s-.56.47-.99.58Z"/>
          <path id="DejaVuSans-2e-16" data-name="DejaVuSans-2e" d="M27.47,25.31h1.03v1.24h-1.03v-1.24Z"/>
          <path id="DejaVuSans-30-7" data-name="DejaVuSans-30" d="M32.76,19.91c-.51,0-.89.25-1.15.75-.26.5-.38,1.25-.38,2.25s.13,1.75.38,2.25c.26.5.64.75,1.15.75s.89-.25,1.15-.75c.26-.5.38-1.25.38-2.25s-.13-1.75-.38-2.25c-.26-.5-.64-.75-1.15-.75ZM32.76,19.13c.82,0,1.44.32,1.87.97.43.65.65,1.58.65,2.81s-.22,2.16-.65,2.81c-.43.65-1.06.97-1.87.97s-1.44-.32-1.87-.97c-.43-.65-.65-1.58-.65-2.81s.22-2.17.65-2.81c.43-.65,1.06-.97,1.87-.97Z"/>
        </g>
      </g>
    </g>
    <g id="text_18" data-name="text 18">
      <g>
        <path id="DejaVuSans-25" d="M4.39,183.69c0,.28.12.51.36.67.24.16.58.24,1.01.24s.76-.08,1-.24c.24-.16.36-.38.36-.67s-.12-.5-.36-.66c-.24-.16-.58-.24-1-.24s-.76.08-1,.24c-.24.16-.36.38-.36.66ZM3.77,183.69c0-.51.18-.92.54-1.23.36-.3.84-.45,1.45-.45s1.09.15,1.45.46c.36.3.53.71.53,1.22s-.18.93-.53,1.24c-.36.3-.84.45-1.45.45s-1.1-.15-1.45-.46-.53-.72-.53-1.23ZM.8,188.73c0,.28.12.5.36.66.24.16.57.24,1,.24s.76-.08,1.01-.24c.24-.16.36-.38.36-.66s-.12-.51-.36-.67c-.24-.16-.58-.24-1.01-.24s-.75.08-1,.24c-.24.16-.37.38-.37.66ZM.18,184.32v-.78l7.56,4.56v.78l-7.56-4.56ZM.18,188.73c0-.51.18-.92.53-1.23.36-.31.84-.46,1.45-.46s1.1.15,1.45.46c.36.3.53.72.53,1.23s-.18.93-.53,1.23c-.36.3-.84.45-1.45.45s-1.09-.15-1.45-.45c-.36-.3-.54-.71-.54-1.23Z"/>
        <path id="DejaVuSans-50" d="M1.12,176.32h2.74v-1.24c0-.46-.12-.81-.36-1.06-.24-.25-.58-.38-1.02-.38s-.77.13-1.01.38c-.24.25-.36.6-.36,1.06v1.24ZM.31,177.3v-2.23c0-.82.18-1.44.55-1.85.37-.42.91-.63,1.62-.63s1.26.21,1.63.63c.37.42.55,1.04.55,1.85v1.24h2.93v.99H.31Z"/>
        <path id="DejaVuSans-72-2" data-name="DejaVuSans-72" d="M2.97,168.32c-.06.1-.1.21-.13.33-.03.12-.04.25-.04.39,0,.51.17.9.5,1.17s.8.41,1.42.41h2.88v.9H2.13v-.9h.85c-.33-.19-.58-.44-.74-.74-.16-.3-.24-.67-.24-1.1,0-.06,0-.13.01-.2,0-.08.02-.16.04-.25h.92Z"/>
        <path id="DejaVuSans-6f-2" data-name="DejaVuSans-6f" d="M2.76,165.48c0,.48.19.86.56,1.14s.89.42,1.55.42,1.17-.14,1.55-.42c.38-.28.56-.66.56-1.15s-.19-.86-.57-1.14c-.38-.28-.89-.42-1.54-.42s-1.16.14-1.54.42c-.38.28-.57.66-.57,1.14ZM2,165.48c0-.78.25-1.39.76-1.84.51-.45,1.21-.67,2.11-.67s1.6.22,2.11.67c.51.45.76,1.06.76,1.84s-.25,1.4-.76,1.84c-.51.44-1.21.67-2.11.67s-1.6-.22-2.11-.67c-.51-.44-.76-1.06-.76-1.84Z"/>
        <path id="DejaVuSans-74-2" data-name="DejaVuSans-74" d="M.58,160.59h1.55v-1.85h.7v1.85h2.97c.45,0,.73-.06.86-.18s.19-.37.19-.75v-.92h.75v.92c0,.69-.13,1.17-.39,1.44-.26.26-.73.4-1.41.4h-2.97v.66h-.7v-.66H.58v-.9Z"/>
        <path id="DejaVuSans-65-2" data-name="DejaVuSans-65" d="M4.64,152.88h.44v4.13c.62-.04,1.09-.23,1.41-.56.32-.33.49-.8.49-1.39,0-.34-.04-.68-.13-1s-.21-.65-.38-.97h.85c.14.32.24.65.31.99s.11.68.11,1.03c0,.87-.25,1.56-.76,2.07-.51.51-1.2.76-2.06.76s-1.6-.24-2.13-.73c-.53-.48-.79-1.14-.79-1.96,0-.74.24-1.32.71-1.75.47-.43,1.12-.64,1.93-.64ZM4.38,153.78c-.49,0-.88.14-1.18.41-.29.27-.44.62-.44,1.07,0,.5.14.9.43,1.2s.68.47,1.2.52v-3.2Z"/>
        <path id="DejaVuSans-63" d="M2.34,147.47h.84c-.14.25-.25.51-.32.76s-.1.51-.1.77c0,.58.18,1.04.55,1.36.37.32.89.48,1.55.48s1.19-.16,1.56-.48c.37-.32.55-.78.55-1.36,0-.26-.03-.52-.1-.77s-.18-.51-.32-.76h.83c.12.25.2.51.26.78.06.27.09.55.09.86,0,.82-.26,1.48-.78,1.96-.52.48-1.22.73-2.1.73s-1.59-.24-2.1-.73c-.51-.49-.77-1.16-.77-2.02,0-.28.03-.55.09-.81.06-.26.14-.52.25-.77Z"/>
        <path id="DejaVuSans-74-3" data-name="DejaVuSans-74" d="M.58,145.02h1.55v-1.85h.7v1.85h2.97c.45,0,.73-.06.86-.18s.19-.37.19-.75v-.92h.75v.92c0,.69-.13,1.17-.39,1.44-.26.26-.73.4-1.41.4h-2.97v.66h-.7v-.66H.58v-.9Z"/>
        <path id="DejaVuSans-65-3" data-name="DejaVuSans-65" d="M4.64,137.31h.44v4.13c.62-.04,1.09-.23,1.41-.56.32-.33.49-.8.49-1.39,0-.34-.04-.68-.13-1s-.21-.65-.38-.97h.85c.14.32.24.65.31.99s.11.68.11,1.03c0,.87-.25,1.56-.76,2.07-.51.51-1.2.76-2.06.76s-1.6-.24-2.13-.73c-.53-.48-.79-1.14-.79-1.96,0-.74.24-1.32.71-1.75.47-.43,1.12-.64,1.93-.64ZM4.38,138.21c-.49,0-.88.14-1.18.41-.29.27-.44.62-.44,1.07,0,.5.14.9.43,1.2s.68.47,1.2.52v-3.2Z"/>
        <path id="DejaVuSans-64" d="M2.96,132.24H0v-.9h7.6v.9h-.82c.33.19.57.43.73.72.16.29.24.63.24,1.04,0,.66-.26,1.2-.79,1.61-.53.41-1.22.62-2.08.62s-1.55-.21-2.08-.62c-.53-.42-.79-.95-.79-1.61,0-.4.08-.75.24-1.04.16-.29.4-.53.72-.72ZM4.87,135.3c.66,0,1.18-.14,1.55-.41.38-.27.56-.65.56-1.12s-.19-.85-.56-1.12c-.38-.27-.89-.41-1.55-.41s-1.18.14-1.55.41c-.38.27-.56.65-.56,1.12s.19.85.56,1.12.89.41,1.55.41Z"/>
      </g>
    </g>
  </g>
  <g id="patch_3" data-name="patch 3">
    <path class="cls-3" d="M42.94,306.28V15.12"/>
  </g>
  <g id="patch_5" data-name="patch 5">
    <path class="cls-3" d="M42.94,306.28h511.18"/>
  </g>
  <g id="text_19" data-name="text 19">
    <g>
      <path id="DejaVuSans-50-2" data-name="DejaVuSans-50" d="M304.91,151.16v1.92h.87c.32,0,.57-.08.74-.25.18-.17.26-.4.26-.71s-.09-.54-.26-.71c-.18-.17-.42-.25-.74-.25h-.87ZM304.22,150.59h1.56c.57,0,1,.13,1.3.39.29.26.44.64.44,1.14s-.15.88-.44,1.14c-.29.26-.72.39-1.3.39h-.87v2.05h-.69v-5.1Z"/>
      <path id="DejaVuSans-61-3" data-name="DejaVuSans-61" d="M309.84,153.77c-.51,0-.86.06-1.06.17s-.29.31-.29.6c0,.22.07.4.22.53.15.13.35.2.6.2.35,0,.63-.12.84-.37s.32-.58.32-.99v-.14h-.63ZM311.09,153.51v2.18h-.63v-.58c-.14.23-.32.4-.54.51-.21.11-.48.17-.79.17-.39,0-.7-.11-.94-.33-.23-.22-.35-.51-.35-.88,0-.43.14-.75.43-.97.29-.22.72-.33,1.29-.33h.88v-.06c0-.29-.1-.51-.29-.67s-.46-.24-.8-.24c-.22,0-.43.03-.64.08-.21.05-.41.13-.6.24v-.58c.23-.09.45-.16.67-.2.22-.04.43-.07.63-.07.55,0,.97.14,1.24.43.27.29.41.72.41,1.3Z"/>
      <path id="DejaVuSans-6c-2" data-name="DejaVuSans-6c" d="M312.39,150.38h.63v5.32h-.63v-5.32Z"/>
      <path id="DejaVuSans-61-4" data-name="DejaVuSans-61" d="M316.07,153.77c-.51,0-.86.06-1.06.17s-.29.31-.29.6c0,.22.07.4.22.53.15.13.35.2.6.2.35,0,.63-.12.84-.37s.32-.58.32-.99v-.14h-.63ZM317.33,153.51v2.18h-.63v-.58c-.14.23-.32.4-.54.51-.21.11-.48.17-.79.17-.39,0-.7-.11-.94-.33-.23-.22-.35-.51-.35-.88,0-.43.14-.75.43-.97.29-.22.72-.33,1.29-.33h.88v-.06c0-.29-.1-.51-.29-.67s-.46-.24-.8-.24c-.22,0-.43.03-.64.08-.21.05-.41.13-.6.24v-.58c.23-.09.45-.16.67-.2.22-.04.43-.07.63-.07.55,0,.97.14,1.24.43.27.29.41.72.41,1.3Z"/>
      <path id="DejaVuSans-75" d="M318.56,154.19v-2.32h.63v2.29c0,.36.07.63.21.82.14.18.35.27.64.27.34,0,.61-.11.8-.32.2-.22.3-.51.3-.89v-2.17h.63v3.83h-.63v-.59c-.15.23-.33.41-.53.52-.2.11-.44.17-.7.17-.44,0-.77-.14-1-.41-.23-.27-.34-.67-.34-1.2ZM320.14,151.78"/>
    </g>
  </g>
  <g id="text_20" data-name="text 20">
    <g>
      <path id="DejaVuSans-Bold-4f" class="cls-4" d="M276.48,1.85c-.69,0-1.22.25-1.6.76s-.57,1.22-.57,2.14.19,1.63.57,2.14c.38.51.91.76,1.6.76s1.23-.25,1.6-.76c.38-.51.57-1.22.57-2.14s-.19-1.64-.57-2.14-.91-.76-1.6-.76ZM276.48.21c1.41,0,2.51.4,3.3,1.21.8.8,1.2,1.91,1.2,3.33s-.4,2.52-1.2,3.33c-.8.8-1.9,1.21-3.3,1.21s-2.5-.4-3.3-1.21c-.8-.8-1.2-1.91-1.2-3.33s.4-2.53,1.2-3.33c.8-.81,1.9-1.21,3.3-1.21Z"/>
      <path id="DejaVuSans-Bold-63" class="cls-4" d="M287.89,2.76v1.71c-.28-.19-.57-.34-.86-.43s-.59-.14-.89-.14c-.58,0-1.04.17-1.37.51s-.49.82-.49,1.43.16,1.09.49,1.43c.33.34.78.51,1.37.51.33,0,.64-.05.94-.15.29-.1.57-.24.82-.43v1.72c-.33.12-.66.21-1,.27-.34.06-.68.09-1.02.09-1.18,0-2.11-.3-2.78-.91-.67-.61-1-1.45-1-2.53s.33-1.93,1-2.53c.67-.61,1.59-.91,2.78-.91.34,0,.68.03,1.02.09s.67.15,1,.27Z"/>
      <path id="DejaVuSans-Bold-65" class="cls-4" d="M296.25,5.82v.6h-4.9c.05.49.23.86.53,1.11s.73.37,1.28.37c.44,0,.89-.07,1.36-.2.46-.13.94-.33,1.43-.59v1.62c-.5.19-.99.33-1.49.43-.5.1-.99.14-1.49.14-1.19,0-2.11-.3-2.77-.91-.66-.6-.99-1.45-.99-2.54s.32-1.91.97-2.52c.65-.61,1.54-.92,2.67-.92,1.03,0,1.86.31,2.47.93.62.62.93,1.45.93,2.49ZM294.1,5.12c0-.4-.12-.72-.35-.96-.23-.25-.54-.37-.91-.37-.41,0-.74.11-.99.34s-.41.56-.47.99h2.72Z"/>
      <path id="DejaVuSans-Bold-61" class="cls-4" d="M300.78,6.16c-.44,0-.77.07-.99.22-.22.15-.33.37-.33.66,0,.26.09.47.27.62.18.15.43.22.74.22.39,0,.73-.14,1-.42.27-.28.4-.64.4-1.06v-.24h-1.09ZM303.99,5.37v3.74h-2.11v-.97c-.28.4-.6.69-.95.87-.35.18-.78.27-1.28.27-.68,0-1.23-.2-1.66-.59-.42-.4-.64-.91-.64-1.54,0-.77.26-1.33.79-1.69.53-.36,1.36-.54,2.49-.54h1.24v-.16c0-.33-.13-.58-.39-.73-.26-.16-.67-.23-1.22-.23-.45,0-.87.04-1.25.13-.39.09-.75.22-1.08.4v-1.6c.45-.11.9-.19,1.35-.25.45-.06.91-.08,1.36-.08,1.18,0,2.04.23,2.56.7.53.47.79,1.22.79,2.28Z"/>
      <path id="DejaVuSans-Bold-6e" class="cls-4" d="M312.54,5.12v4h-2.11v-3.06c0-.57-.01-.96-.04-1.17s-.07-.37-.13-.47c-.08-.14-.19-.24-.34-.32-.14-.08-.3-.11-.48-.11-.44,0-.78.17-1.03.51-.25.34-.37.81-.37,1.4v3.23h-2.1V2.56h2.1v.96c.32-.38.65-.66,1.01-.85.36-.18.75-.27,1.18-.27.76,0,1.33.23,1.72.7.39.46.59,1.14.59,2.03Z"/>
      <path id="DejaVuSans-Bold-69" class="cls-4" d="M314.48,2.56h2.1v6.56h-2.1V2.56ZM314.48,0h2.1v1.71h-2.1V0Z"/>
      <path id="DejaVuSans-Bold-61-2" data-name="DejaVuSans-Bold-61" class="cls-4" d="M321.54,6.16c-.44,0-.77.07-.99.22-.22.15-.33.37-.33.66,0,.26.09.47.27.62.18.15.43.22.74.22.39,0,.73-.14,1-.42.27-.28.4-.64.4-1.06v-.24h-1.09ZM324.74,5.37v3.74h-2.11v-.97c-.28.4-.6.69-.95.87-.35.18-.78.27-1.28.27-.68,0-1.23-.2-1.66-.59-.42-.4-.64-.91-.64-1.54,0-.77.26-1.33.79-1.69.53-.36,1.36-.54,2.49-.54h1.24v-.16c0-.33-.13-.58-.39-.73-.26-.16-.67-.23-1.22-.23-.45,0-.87.04-1.25.13-.39.09-.75.22-1.08.4v-1.6c.45-.11.9-.19,1.35-.25.45-.06.91-.08,1.36-.08,1.18,0,2.04.23,2.56.7.53.47.79,1.22.79,2.28Z"/>
    </g>
  </g>
</svg>